<?xml version="1.0" encoding="utf-8"?>
<svg version="1.1" id="Layer_1" xmlns="http://www.w3.org/2000/svg" xmlns:xlink="http://www.w3.org/1999/xlink" x="0px" y="0px"
	 viewBox="0 0 71 25" style="enable-background:new 0 0 71 25;" xml:space="preserve">
<g>
	<g>
		<polygon fill="#F37422" points="28.9,4.6 28.9,7.8 41.9,7.8 41.9,17.6 32.2,17.6 32.2,11.1 28.9,11.1 28.9,20.9 45.2,20.9 45.2,4.6"/>
		<polygon fill="#F37422" points="68.5,4.6 63,9.7 57.4,4.6 54.9,4.6 54.9,20.8 58.1,20.8 58.1,9.3 63,13.8 67.8,9.4 67.8,20.8 71,20.8 71,4.6"/>
		<rect x="48.4" y="4.6" fill="#F37422" width="3.3" height="16.2"/>
	</g>
	<g>
        <rect x="10.5" y="10.8" transform="matrix(0.7071 -0.7071 0.7071 0.7071 -5.2464 12.3328)" fill="#F37422" width="3.5" height="3.5"/>
		<polygon fill="#F37422" points="12.3,0.2 9.8,2.7 19.6,12.5 12.3,19.9 4.9,12.5 9.8,7.6 7.4,5.1 0,12.5 12.3,24.8 24.5,12.5"/>
	</g>
</g>
</svg>
