<?xml version="1.0" encoding="UTF-8"?>
<svg width="71px" height="25px" viewBox="0 0 71 25" version="1.1" xmlns="http://www.w3.org/2000/svg" xmlns:xlink="http://www.w3.org/1999/xlink">
    <!-- Generator: Sketch 45.1 (43504) - http://www.bohemiancoding.com/sketch -->
    <title>DIM-menu</title>
    <desc>Created with Sketch.</desc>
    <defs>
        <linearGradient x1="97.073663%" y1="97.0720687%" x2="24.9815504%" y2="24.9777845%" id="linearGradient-1">
            <stop stop-color="#FFFFFF" offset="0%"></stop>
            <stop stop-color="#C9CACC" offset="100%"></stop>
        </linearGradient>
        <linearGradient x1="75.4128186%" y1="75.4140285%" x2="24.9627996%" y2="24.9634016%" id="linearGradient-2">
            <stop stop-color="#FBB040" offset="0%"></stop>
            <stop stop-color="#F36E21" offset="100%"></stop>
        </linearGradient>
    </defs>
    <g id="Welcome" stroke="none" stroke-width="1" fill="none" fill-rule="evenodd">
        <g id="Desktop-HD" transform="translate(-252.000000, -12.000000)" fill-rule="nonzero">
            <g id="Header" transform="translate(-12.000000, -1.000000)">
                <g id="DIM-menu" transform="translate(264.000000, 13.000000)">
                    <polygon id="Shape" fill="url(#linearGradient-1)" points="14.9913398 12.4922564 12.4927832 9.99407603 9.99430181 12.4922564 12.4927832 14.9909635"></polygon>
                    <polygon id="Shape" fill="url(#linearGradient-2)" points="22.6722999 10.1795919 22.4866334 9.99407603 19.9880768 7.49566991 17.4896707 4.99703802 14.7317681 2.23913543 12.4926327 -2.84217094e-14 9.99400077 2.49848138 12.0218814 4.526362 14.9911893 7.49566991 17.4896707 9.99385025 17.4894449 9.99407603 19.9880768 12.4925574 17.4894449 14.9909635 17.4896707 14.991114 15.4589302 17.021704 12.4926327 19.9879263 9.99400077 17.4894449 7.49566991 14.9909635 7.49566991 14.991114 5.18925205 12.6847714 4.99703802 12.4925574 7.80182758 9.68769259 9.99400077 7.49536887 7.49566991 4.99703802 4.99703802 7.49536887 2.49855664 9.99407603 0 12.4925574 2.4986319 14.9909635 4.99733906 17.4894449 4.99703802 17.4895954 7.49566991 19.9879263 9.99400077 22.4866334 12.4926327 24.9849643 14.9911893 22.4866334 17.4898212 19.9879263 19.9880768 17.4894449 22.4866334 14.9909635 24.9852653 12.4925574 22.887694 10.3950613"></polygon>
                    <path d="M55.4628547,3.94994568 L52.726025,3.94994568 L52.726025,20.8399447 L56.2293778,20.8400952 L56.2293778,9.08839723 L61.4714624,13.9028545 L66.6544678,9.09998727 L66.6544678,20.8400952 L70.157896,20.8399447 L70.157896,3.94994568 L67.44244,3.94994568 L61.4768811,9.45950427 L55.4628547,3.94994568 Z M47.1716114,3.95017146 L50.5493553,3.95017146 L50.5493553,20.8401705 L47.1716114,20.8401705 L47.1716114,3.95017146 Z M41.8544174,3.9500962 L28.0911702,3.9500962 L28.0911702,7.32814116 L41.603651,7.32814116 L41.6032747,10.7061109 L41.603651,10.7061109 L41.603651,13.4515956 L41.6032747,17.4622008 L31.4692151,17.4622008 L31.4692151,10.7061109 L28.0911702,10.7061109 L28.0911702,20.8402458 L31.4692151,20.8400952 L34.8474106,20.8400952 L34.8474106,20.8402458 L38.2252298,20.8400952 L41.603651,20.8400952 L41.603651,20.8402458 L44.9813197,20.8400952 L44.9813197,14.0840806 L44.9813197,14.0842311 L44.9813197,3.9500962 L42.145523,3.9500962 L41.8544174,3.9500962 Z" id="Shape" fill="#F2F2F2"></path>
                </g>
            </g>
        </g>
    </g>
</svg>