<svg xmlns="http://www.w3.org/2000/svg" width="1000" height="1000" viewBox="0 0 1000 1000"><defs><filter id="a" color-interpolation-filters="sRGB"><feFlood flood-opacity=".314" flood-color="#000" result="flood"/><feComposite in="flood" in2="SourceGraphic" operator="in" result="composite1"/><feGaussianBlur in="composite1" stdDeviation="10" result="blur"/><feOffset dy="5" result="offset"/><feComposite in="SourceGraphic" in2="offset" result="fbSourceGraphic"/><feColorMatrix result="fbSourceGraphicAlpha" in="fbSourceGraphic" values="0 0 0 -1 0 0 0 0 -1 0 0 0 0 -1 0 0 0 0 1 0"/><feFlood flood-opacity=".314" flood-color="#000" result="flood"/><feComposite in2="fbSourceGraphic" in="flood" operator="in" result="composite1"/><feGaussianBlur in="composite1" stdDeviation="10" result="blur"/><feOffset dy="5" result="offset"/><feComposite in2="offset" in="fbSourceGraphic" result="composite2"/></filter></defs><linearGradient id="b" gradientUnits="userSpaceOnUse" x1="602.758" y1="580.046" x2="448.774" y2="459.06"><stop offset="0" stop-color="#6d6e71"/><stop offset="1" stop-color="#414042"/></linearGradient><linearGradient id="c" gradientUnits="userSpaceOnUse" x1="733.807" y1="733.182" x2="269.142" y2="268.517"><stop offset="0" stop-color="#fbb040"/><stop offset="1" stop-color="#f36e21"/></linearGradient><g filter="url(#a)"><path fill="url(#b)" d="M407.644 499.113l92.108 92.104 92.101-92.104-92.101-92.101z"/><path fill="url(#c)" d="M882.942 421.796l-7.941-7.942-6.843-6.842-92.104-92.101-92.104-92.108v.004L582.285 121.139l-82.544-82.541-92.104 92.105 74.749 74.752 109.464 109.46 92.1 92.093-.004.004 92.108 92.104v.004l-92.108 92.101.004.004-74.856 74.852-109.353 109.349-92.1-92.101-92.105-92.104v.004l-85.018-85.019-7.09-7.09 103.394-103.394 80.815-80.818-92.101-92.101-92.108 92.101v.004l-92.104 92.104v.004l-92.104 92.1 92.108 92.101v.004l92.108 92.104-.004.003 92.104 92.102 92.105 92.103h-.004l92.108 92.101 92.101-92.101 92.107-92.107v.004l92.101-92.105 92.104-92.104 92.105-92.101z"/></g></svg>