<svg enable-background="new 0 0 500 500" height="500" viewBox="0 0 500 500" width="500" xmlns="http://www.w3.org/2000/svg"><path d="m73.224 73.225h353.552v353.551h-353.552z" fill="#ee6d0d" transform="matrix(.7071 -.7071 .7071 .7071 -103.5534 250.0004)"/><g fill="#fff"><path d="m214.444 249.996 35.555 35.559 35.557-35.559-35.557-35.553z"/><path d="m397.926 220.152-3.065-3.068-2.642-2.641-35.557-35.552-35.554-35.557-39.247-39.248-31.864-31.863-35.557 35.555 28.858 28.857 42.256 42.256 35.554 35.55-.002.002 35.556 35.557-35.556 35.555.002.002-28.898 28.896-42.213 42.211-35.557-35.555-35.553-35.554v.002l-32.822-32.821-2.735-2.736 39.913-39.916 31.197-31.197-35.553-35.553-35.557 35.553-35.557 35.556-35.553 35.557 35.556 35.555 35.558 35.554-.004.002 35.557 35.553 35.553 35.559 35.557 35.552 35.557-35.552 35.556-35.559 35.552-35.555 35.557-35.554 35.556-35.555z"/></g></svg>