<svg enable-background="new 0 0 500 500" height="500" viewBox="0 0 500 500" width="500" xmlns="http://www.w3.org/2000/svg"><path d="m73.224 73.224h353.553v353.553h-353.553z" fill="#5bb1ce" transform="matrix(.7071 -.7071 .7071 .7071 -103.5532 250.0004)"/><g fill="#fff"><path d="m214.444 249.997 35.555 35.558 35.557-35.558-35.557-35.552z"/><path d="m397.926 220.152-3.065-3.066-2.642-2.641-35.557-35.554-35.554-35.557-39.247-39.246-31.864-31.865-35.557 35.555 28.858 28.858 42.256 42.255 35.554 35.551-.002.003 35.556 35.556-35.556 35.554.002.002-28.898 28.897-42.213 42.211-35.557-35.556-35.553-35.554v.002l-32.822-32.821-2.735-2.735 39.913-39.915 31.197-31.199-35.553-35.553-35.557 35.553-35.557 35.558-35.553 35.556 35.556 35.554 35.558 35.554-.004.003 35.557 35.553 35.553 35.559 35.557 35.552 35.557-35.552 35.556-35.559 35.552-35.556 35.557-35.554 35.556-35.554z"/></g></svg>