<?xml version="1.0" encoding="iso-8859-1"?>
<!-- Generator: Adobe Illustrator 15.0.2, SVG Export Plug-In . SVG Version: 6.00 Build 0)  -->
<!DOCTYPE svg PUBLIC "-//W3C//DTD SVG 1.1//EN" "http://www.w3.org/Graphics/SVG/1.1/DTD/svg11.dtd">
<svg version="1.1" id="Layer_1" xmlns="http://www.w3.org/2000/svg" xmlns:xlink="http://www.w3.org/1999/xlink" x="0px" y="0px"
	 width="500px" height="500px" viewBox="0 0 500 500" style="enable-background:new 0 0 500 500;" xml:space="preserve">
<rect x="73.224" y="73.225" transform="matrix(0.7071 -0.7071 0.7071 0.7071 -103.5534 250.0004)" style="fill:#EE6D0D;" width="353.552" height="353.551"/>
<polygon style="fill:#FFFFFF;" points="214.444,249.996 249.999,285.555 285.556,249.996 249.999,214.443 "/>
<polygon style="fill:#FFFFFF;" points="397.926,220.152 397.926,220.152 394.861,217.084 392.219,214.443 392.219,214.443 
	356.662,178.891 321.108,143.334 321.108,143.334 281.861,104.086 281.861,104.086 249.997,72.223 214.44,107.778 243.298,136.635 
	243.298,136.635 285.554,178.891 321.108,214.441 321.106,214.443 356.662,250 356.662,250 356.662,250 321.106,285.555 
	321.108,285.557 292.21,314.453 292.21,314.453 249.997,356.664 214.44,321.109 178.887,285.555 178.887,285.557 146.065,252.736 
	143.33,250 183.243,210.084 214.44,178.887 178.887,143.334 143.33,178.887 143.33,178.887 107.773,214.443 107.773,214.443 
	72.22,250 107.776,285.555 107.776,285.555 143.334,321.109 143.33,321.111 178.887,356.664 214.44,392.223 214.44,392.223 
	249.997,427.775 285.554,392.223 321.11,356.664 321.11,356.664 356.662,321.109 392.219,285.555 427.775,250 "/>
</svg>
