<?xml version="1.0" encoding="UTF-8" standalone="no"?>
<svg
   xmlns:dc="http://purl.org/dc/elements/1.1/"
   xmlns:cc="http://creativecommons.org/ns#"
   xmlns:rdf="http://www.w3.org/1999/02/22-rdf-syntax-ns#"
   xmlns:svg="http://www.w3.org/2000/svg"
   xmlns="http://www.w3.org/2000/svg"
   xmlns:xlink="http://www.w3.org/1999/xlink"
   xmlns:sodipodi="http://sodipodi.sourceforge.net/DTD/sodipodi-0.dtd"
   xmlns:inkscape="http://www.inkscape.org/namespaces/inkscape"
   width="1000"
   height="1000"
   viewBox="0 0 1000 1000"
   id="svg5904"
   version="1.1"
   inkscape:version="0.91+devel+osxmenu r12897"
   sodipodi:docname="apple-touch-icon-release.svg">
  <metadata
     id="metadata5932">
    <rdf:RDF>
      <cc:Work
         rdf:about="">
        <dc:format>image/svg+xml</dc:format>
        <dc:type
           rdf:resource="http://purl.org/dc/dcmitype/StillImage" />
      </cc:Work>
    </rdf:RDF>
  </metadata>
  <sodipodi:namedview
     pagecolor="#ffffff"
     bordercolor="#666666"
     borderopacity="1"
     objecttolerance="10"
     gridtolerance="10"
     guidetolerance="10"
     inkscape:pageopacity="0"
     inkscape:pageshadow="2"
     inkscape:window-width="1629"
     inkscape:window-height="1004"
     id="namedview5930"
     showgrid="false"
     inkscape:zoom="0.73883954"
     inkscape:cx="476.03775"
     inkscape:cy="608.27791"
     inkscape:window-x="0"
     inkscape:window-y="23"
     inkscape:window-maximized="0"
     inkscape:current-layer="svg5904" />
  <defs
     id="defs5906">
    <linearGradient
       id="a">
      <stop
         offset="0"
         stop-color="#fefdff"
         id="stop5909" />
      <stop
         offset="1"
         stop-color="#9cb7ca"
         id="stop5911" />
    </linearGradient>
    <radialGradient
       xlink:href="#a"
       id="b"
       cx="500"
       cy="500"
       fx="500"
       fy="500"
       r="500"
       gradientTransform="translate(-.75 -.75) scale(1.0015)"
       gradientUnits="userSpaceOnUse" />
  </defs>
  <linearGradient
     id="c"
     gradientUnits="userSpaceOnUse"
     x1="602.758"
     y1="580.046"
     x2="448.774"
     y2="459.06"
     gradientTransform="matrix(0.77303666,0,0,0.77303666,113.67609,114.16619)">
    <stop
       offset="0"
       stop-color="#6d6e71"
       id="stop5915" />
    <stop
       offset="1"
       stop-color="#414042"
       id="stop5917" />
  </linearGradient>
  <path
     fill="url(#b)"
     d="M0 0h1000v1000H0z"
     id="path5919" />
  <path
     d="M 428.79984,499.99884 500.0027,571.1986 571.20015,499.99884 500.0027,428.80139 Z"
     id="path5921"
     style="fill:url(#c);stroke-width:0.77303666"
     inkscape:connector-curvature="0" />
  <linearGradient
     id="d"
     gradientUnits="userSpaceOnUse"
     x1="733.807"
     y1="733.182"
     x2="269.142"
     y2="268.517"
     gradientTransform="matrix(0.77303666,0,0,0.77303666,113.6815,114.16561)">
    <stop
       offset="0"
       stop-color="#fbb040"
       id="stop5924" />
    <stop
       offset="1"
       stop-color="#f36e21"
       id="stop5926" />
  </linearGradient>
  <path
     d="m 796.22803,440.22937 -6.13868,-6.13945 -5.28989,-5.28912 -71.19977,-71.19745 -71.19977,-71.20286 0,0.003 -78.59077,-78.59309 -63.80954,-63.80722 -71.19976,71.20054 57.78371,57.78604 84.61969,84.61659 71.19667,71.19128 -0.003,0.003 71.20286,71.19977 0,0.003 -71.20286,71.19745 0.003,0.003 -57.86643,57.86334 -84.53388,84.53078 -71.19667,-71.19745 -71.20054,-71.19976 0,0.003 -65.72203,-65.7228 -5.48083,-5.48083 79.92735,-79.92736 62.47296,-62.47527 -71.19745,-71.19745 -71.20286,71.19745 0,0.003 -71.19977,71.19977 0,0.003 L 144,499.99995 l 71.20286,71.19744 0,0.003 71.20286,71.19976 -0.003,0.002 71.19977,71.19822 71.20054,71.19899 -0.003,0 71.20286,71.19745 71.19744,-71.19745 71.20209,-71.20209 0,0.003 71.19745,-71.20055 71.19977,-71.19975 L 856,500.00367 Z"
     id="path5928"
     style="fill:url(#d);stroke-width:0.77303666"
     inkscape:connector-curvature="0" />
</svg>
