<svg xmlns="http://www.w3.org/2000/svg" xmlns:xlink="http://www.w3.org/1999/xlink" width="1000" height="1000" viewBox="0 0 1000 1000"><defs><linearGradient id="a"><stop offset="0" stop-color="#fefdff"/><stop offset="1" stop-color="#9cb7ca"/></linearGradient><radialGradient xlink:href="#a" id="b" cx="500" cy="500" fx="500" fy="500" r="500" gradientTransform="translate(-.75 -.75) scale(1.0015)" gradientUnits="userSpaceOnUse"/></defs><linearGradient id="c" gradientUnits="userSpaceOnUse" x1="602.758" y1="580.046" x2="448.774" y2="459.06"><stop offset="0" stop-color="#6d6e71"/><stop offset="1" stop-color="#414042"/></linearGradient><path fill="url(#b)" d="M0 0h1000v1000H0z"/><path fill="url(#c)" d="M407.644 499.113l92.108 92.104 92.101-92.104-92.101-92.101z"/><linearGradient id="d" gradientUnits="userSpaceOnUse" x1="733.807" y1="733.182" x2="269.142" y2="268.517"><stop offset="0" stop-color="#fbb040"/><stop offset="1" stop-color="#f36e21"/></linearGradient><path fill="url(#d)" d="M882.942 421.796l-7.941-7.942-6.843-6.842-92.104-92.101-92.104-92.108v.004L582.285 121.139l-82.544-82.541-92.104 92.105 74.749 74.752 109.464 109.46 92.1 92.093-.004.004 92.108 92.104v.004l-92.108 92.101.004.004-74.856 74.852-109.353 109.349-92.1-92.101-92.105-92.104v.004l-85.018-85.019-7.09-7.09 103.394-103.394 80.815-80.818-92.101-92.101-92.108 92.101v.004l-92.104 92.104v.004l-92.104 92.1 92.108 92.101v.004l92.108 92.104-.004.003 92.104 92.102 92.105 92.103h-.004l92.108 92.101 92.101-92.101 92.107-92.107v.004l92.101-92.105 92.104-92.104 92.105-92.101z"/></svg>