<?xml version="1.0" encoding="UTF-8" standalone="no"?>
<svg
   xmlns:dc="http://purl.org/dc/elements/1.1/"
   xmlns:cc="http://creativecommons.org/ns#"
   xmlns:rdf="http://www.w3.org/1999/02/22-rdf-syntax-ns#"
   xmlns:svg="http://www.w3.org/2000/svg"
   xmlns="http://www.w3.org/2000/svg"
   xmlns:xlink="http://www.w3.org/1999/xlink"
   xmlns:sodipodi="http://sodipodi.sourceforge.net/DTD/sodipodi-0.dtd"
   xmlns:inkscape="http://www.inkscape.org/namespaces/inkscape"
   id="Ebene_1"
   viewBox="0 0 92.1 93.4"
   version="1.1"
   inkscape:version="0.91+devel+osxmenu r12897"
   sodipodi:docname="icon.svg">
  <metadata
     id="metadata4536">
    <rdf:RDF>
      <cc:Work
         rdf:about="">
        <dc:format>image/svg+xml</dc:format>
        <dc:type
           rdf:resource="http://purl.org/dc/dcmitype/StillImage" />
      </cc:Work>
    </rdf:RDF>
  </metadata>
  <defs
     id="defs4534">
    <linearGradient
       id="linearGradient6095"
       gradientUnits="userSpaceOnUse"
       x1="45.834"
       y1="47.707001"
       x2="45.834"
       y2="0"
       spreadMethod="pad">
      <stop
         offset="0"
         stop-color="#c84e12"
         id="stop6097"
         style="stop-color:#2698b3;stop-opacity:1" />
      <stop
         offset=".995"
         stop-color="#f4b93f"
         id="stop6099"
         style="stop-color:#5196dc;stop-opacity:1" />
    </linearGradient>
    <linearGradient
       x2="45.834"
       y1="47.707001"
       x1="45.834"
       gradientUnits="userSpaceOnUse"
       id="linearGradient6077"
       y2="0"
       spreadMethod="pad">
      <stop
         id="stop6079"
         stop-color="#c84e12"
         offset="0" />
      <stop
         id="stop6081"
         stop-color="#f4b93f"
         offset=".995"
         style="stop-color:#5196dc;stop-opacity:1" />
    </linearGradient>
    <linearGradient
       x2="45.834"
       y1="47.707001"
       x1="45.834"
       gradientUnits="userSpaceOnUse"
       id="linearGradient6071"
       y2="0"
       spreadMethod="pad">
      <stop
         id="stop6073"
         stop-color="#c84e12"
         offset="0"
         style="stop-color:#2698b3;stop-opacity:1" />
      <stop
         id="stop6075"
         stop-color="#f4b93f"
         offset=".995" />
    </linearGradient>
    <linearGradient
       x2="45.834"
       y1="47.707001"
       x1="45.834"
       gradientUnits="userSpaceOnUse"
       id="linearGradient6065"
       y2="0"
       spreadMethod="pad">
      <stop
         id="stop6067"
         stop-color="#c84e12"
         offset="0" />
      <stop
         id="stop6069"
         stop-color="#f4b93f"
         offset=".995"
         style="stop-color:#5196dc;stop-opacity:1" />
    </linearGradient>
    <linearGradient
       x2="45.834"
       y1="47.707001"
       x1="45.834"
       gradientUnits="userSpaceOnUse"
       id="linearGradient6059"
       y2="0"
       spreadMethod="pad">
      <stop
         id="stop6061"
         stop-color="#c84e12"
         offset="0"
         style="stop-color:#2598b2;stop-opacity:1" />
      <stop
         id="stop6063"
         stop-color="#f4b93f"
         offset=".995" />
    </linearGradient>
    <linearGradient
       x2="45.834"
       y1="47.707"
       x1="45.834"
       gradientUnits="userSpaceOnUse"
       id="linearGradient6053">
      <stop
         id="stop6055"
         stop-color="#c84e12"
         offset="0"
         style="stop-color:#2598b2;stop-opacity:1" />
      <stop
         id="stop6057"
         stop-color="#f4b93f"
         offset=".995" />
    </linearGradient>
    <linearGradient
       inkscape:collect="always"
       xlink:href="#XMLID_75_"
       id="linearGradient6083"
       gradientUnits="userSpaceOnUse"
       x1="45.834"
       y1="47.707"
       x2="45.834" />
    <linearGradient
       xlink:href="#XMLID_75_"
       y2="7.8239999"
       x2="45.798"
       y1="93.375"
       x1="45.798"
       gradientUnits="userSpaceOnUse"
       id="XMLID_74_">
      <stop
         style="stop-color:#2599b2;stop-opacity:1"
         id="stop4521"
         stop-color="#c84e12"
         offset="0" />
      <stop
         style="stop-color:#4b96d6;stop-opacity:1"
         id="stop4523"
         stop-color="#f4b93f"
         offset=".995" />
    </linearGradient>
    <linearGradient
       xlink:href="#linearGradient6077"
       x2="45.834"
       y1="47.707"
       x1="45.834"
       gradientUnits="userSpaceOnUse"
       id="XMLID_75_">
      <stop
         id="stop4527"
         stop-color="#c84e12"
         offset="0" />
      <stop
         id="stop4529"
         stop-color="#f4b93f"
         offset=".995" />
    </linearGradient>
    <linearGradient
       inkscape:collect="always"
       xlink:href="#linearGradient6095"
       id="linearGradient6092"
       gradientUnits="userSpaceOnUse"
       x1="45.834"
       y1="47.707"
       x2="45.834" />
  </defs>
  <sodipodi:namedview
     pagecolor="#ffffff"
     bordercolor="#666666"
     borderopacity="1"
     objecttolerance="10"
     gridtolerance="10"
     guidetolerance="10"
     inkscape:pageopacity="0"
     inkscape:pageshadow="2"
     inkscape:window-width="2130"
     inkscape:window-height="895"
     id="namedview4532"
     showgrid="false"
     inkscape:zoom="2.5267666"
     inkscape:cx="-14.897459"
     inkscape:cy="46.700002"
     inkscape:window-x="0"
     inkscape:window-y="23"
     inkscape:window-maximized="0"
     inkscape:current-layer="Ebene_1" />
  <style
     id="style4515">.st0{fill:#cecdcd}.st1{fill:url(#XMLID_74_)}.st2{fill:url(#XMLID_75_)}</style>
  <g
     id="XMLID_22_"
     style="fill:#212121;fill-opacity:1">
    <path
       id="XMLID_24_"
       class="st0"
       d="M89.7 37.8l-10.9-1.3c-4.4-14-17.4-24.1-32.8-24.1-15.4 0-28.4 10.1-32.8 24.1L2.4 37.8c-1.3 0-2.4 1.4-2.4 3.1v11.8c0 1.7 1.1 3.1 2.4 3.1L13.3 57c.6 2 1.4 3.9 2.4 5.7l-6.8 8.6c-.9.9-.7 2.7.5 3.8l8.4 8.4c1.2 1.2 2.9 1.4 3.8.5l8.6-6.8c4.8 2.5 10.2 3.9 16 3.9 5.8 0 11.2-1.4 16-3.9l8.6 6.8c.9.9 2.7.7 3.8-.5l8.4-8.4c1.2-1.2 1.4-2.9.5-3.8l-6.8-8.6c1-1.8 1.8-3.7 2.4-5.7L90 55.7c1.3 0 2.4-1.4 2.4-3.1V40.9c-.3-1.7-1.4-3.1-2.7-3.1zM59.8 60.4l-.2.2c-3.5 3.4-8.3 5.6-13.6 5.6-4.8 0-9.2-1.7-12.5-4.6l-2.1-2.1c-2.9-3.4-4.6-7.7-4.6-12.5 0-10.7 8.6-19.3 19.3-19.3S65.4 36.3 65.4 47c-.1 5.1-2.2 9.9-5.6 13.4z"
       style="fill:#212121;fill-opacity:1" />
  </g>
  <path
     inkscape:connector-curvature="0"
     style="fill:url(#XMLID_74_);fill-opacity:1"
     d="m 84.4,22.2 c 0,0 -14.7,18.6 -19.3,29 -4.2,9.5 -8.9,39.3 -8.9,39.3 -0.2,1.5 -1.7,2.8 -3.7,2.8 l -13,0 c -2,0 -3.4,-1.1 -3.7,-2.8 0,0 -4,-28.4 -9.7,-39.3 C 21.2,41.9 7.3,22.3 7.3,22.3 6.2,21.2 6.4,19.2 7.9,17.8 L 16.8,9 c 1.5,-1.4 3.4,-1.5 4.7,-0.6 l 10.9,6.8 -0.6,30 c 0,3 1.9,5.3 5,5.3 l 18.2,0 c 3,0 5,-2.9 5,-5.4 L 59.3,15 70.1,8.3 c 1.2,-0.8 3.2,-0.8 4.7,0.6 l 9,8.7 c 1.5,1.5 1.5,3.3 0.6,4.6 z"
     class="st1"
     id="XMLID_11_" />
  <path
     inkscape:connector-curvature="0"
     style="fill:url(#linearGradient6092)"
     d="m 53.2,47.7 -14.7,0 C 36.6,47.7 35,46.1 35,44.2 L 36,3.5 C 36,1.6 37.6,0 39.5,0 l 12.9,0 c 1.9,0 3.5,1.6 3.5,3.5 l 0.8,40.7 c 0,1.9 -1.6,3.5 -3.5,3.5 z"
     class="st2"
     id="XMLID_10_" />
</svg>
