<svg xmlns="http://www.w3.org/2000/svg" width="921.043" height="921.036" viewBox="0 0 921.04303 921.03601"><linearGradient id="a" gradientUnits="userSpaceOnUse" x1="602.758" y1="580.046" x2="448.774" y2="459.06"><stop offset="0" stop-color="#6d6e71"/><stop offset="1" stop-color="#414042"/></linearGradient><path transform="translate(-39.22 -38.598)" fill="url(#a)" d="M591.853 499.113l-92.101-92.101-92.108 92.101 92.108 92.104z"/><linearGradient id="b" gradientUnits="userSpaceOnUse" x1="733.807" y1="733.182" x2="269.142" y2="268.517"><stop offset="0" stop-color="#fbb040"/><stop offset="1" stop-color="#f36e21"/></linearGradient><path transform="translate(-39.22 -38.598)" fill="url(#b)" d="M875.001 413.854l-6.843-6.842-92.104-92.101-92.104-92.108v.004L582.285 121.139l-82.544-82.541-92.104 92.105 74.749 74.752 109.464 109.46 92.1 92.093-.004.004 92.108 92.104v.004l-92.108 92.101.004.004-74.856 74.852-109.353 109.349-92.1-92.101-92.105-92.104v.004l-85.018-85.019-7.09-7.09 103.394-103.394 80.815-80.818-92.101-92.101-92.108 92.101v.004l-92.104 92.104v.004l-92.104 92.1 92.108 92.101v.004l92.108 92.104-.004.003 92.104 92.102 92.105 92.103h-.004l92.108 92.101 92.101-92.101 92.107-92.107v.004l92.101-92.105 92.104-92.104 92.105-92.101-77.321-77.324z"/></svg>