<?xml version="1.0" encoding="utf-8"?>
<!-- Generator: Adobe Illustrator 23.0.3, SVG Export Plug-In . SVG Version: 6.00 Build 0)  -->
<svg version="1.1" id="Layer_1" xmlns="http://www.w3.org/2000/svg" xmlns:xlink="http://www.w3.org/1999/xlink" x="0px" y="0px"
	 viewBox="0 0 921 921" style="enable-background:new 0 0 921 921;" xml:space="preserve">
<path fill="#F37321" d="M552.6,460.5l-92.1-92.1l-92.1,92.1l92.1,92.1L552.6,460.5z"/>
<path fill="#F37321" d="M835.8,375.3l-6.8-6.8l-92.1-92.1l-92.1-92.1v0L543.1,82.5L460.5,0l-92.1,92.1l74.7,74.8l109.5,109.5l92.1,92.1
	l0,0l92.1,92.1v0l-92.1,92.1l0,0l-74.9,74.9L460.5,736.8l-92.1-92.1l-92.1-92.1v0l-85-85l-7.1-7.1l103.4-103.4l80.8-80.8l-92.1-92.1
	l-92.1,92.1v0l-92.1,92.1v0L0,460.5l92.1,92.1v0l92.1,92.1l0,0l92.1,92.1l92.1,92.1h0l92.1,92.1l92.1-92.1l92.1-92.1v0l92.1-92.1
	l92.1-92.1l92.1-92.1l-77.3-77.3L835.8,375.3z"/>
</svg>
