<?xml version="1.0" encoding="UTF-8" standalone="no"?>
<svg
   xmlns:dc="http://purl.org/dc/elements/1.1/"
   xmlns:cc="http://creativecommons.org/ns#"
   xmlns:rdf="http://www.w3.org/1999/02/22-rdf-syntax-ns#"
   xmlns:svg="http://www.w3.org/2000/svg"
   xmlns="http://www.w3.org/2000/svg"
   xmlns:sodipodi="http://sodipodi.sourceforge.net/DTD/sodipodi-0.dtd"
   xmlns:inkscape="http://www.inkscape.org/namespaces/inkscape"
   id="Ebene_1"
   viewBox="0 0 92.1 93.4"
   version="1.1"
   inkscape:version="0.91+devel+osxmenu r12897"
   sodipodi:docname="dim.svg">
  <metadata
     id="metadata4536">
    <rdf:RDF>
      <cc:Work
         rdf:about="">
        <dc:format>image/svg+xml</dc:format>
        <dc:type
           rdf:resource="http://purl.org/dc/dcmitype/StillImage" />
      </cc:Work>
    </rdf:RDF>
  </metadata>
  <defs
     id="defs4534" />
  <sodipodi:namedview
     pagecolor="#ffffff"
     bordercolor="#666666"
     borderopacity="1"
     objecttolerance="10"
     gridtolerance="10"
     guidetolerance="10"
     inkscape:pageopacity="0"
     inkscape:pageshadow="2"
     inkscape:window-width="2130"
     inkscape:window-height="895"
     id="namedview4532"
     showgrid="false"
     inkscape:zoom="2.5267666"
     inkscape:cx="46.049999"
     inkscape:cy="46.700001"
     inkscape:window-x="0"
     inkscape:window-y="23"
     inkscape:window-maximized="0"
     inkscape:current-layer="Ebene_1" />
  <style
     id="style4515">.st0{fill:#cecdcd}.st1{fill:url(#XMLID_74_)}.st2{fill:url(#XMLID_75_)}</style>
  <g
     id="XMLID_22_"
     style="fill:#212121;fill-opacity:1">
    <path
       id="XMLID_24_"
       class="st0"
       d="M89.7 37.8l-10.9-1.3c-4.4-14-17.4-24.1-32.8-24.1-15.4 0-28.4 10.1-32.8 24.1L2.4 37.8c-1.3 0-2.4 1.4-2.4 3.1v11.8c0 1.7 1.1 3.1 2.4 3.1L13.3 57c.6 2 1.4 3.9 2.4 5.7l-6.8 8.6c-.9.9-.7 2.7.5 3.8l8.4 8.4c1.2 1.2 2.9 1.4 3.8.5l8.6-6.8c4.8 2.5 10.2 3.9 16 3.9 5.8 0 11.2-1.4 16-3.9l8.6 6.8c.9.9 2.7.7 3.8-.5l8.4-8.4c1.2-1.2 1.4-2.9.5-3.8l-6.8-8.6c1-1.8 1.8-3.7 2.4-5.7L90 55.7c1.3 0 2.4-1.4 2.4-3.1V40.9c-.3-1.7-1.4-3.1-2.7-3.1zM59.8 60.4l-.2.2c-3.5 3.4-8.3 5.6-13.6 5.6-4.8 0-9.2-1.7-12.5-4.6l-2.1-2.1c-2.9-3.4-4.6-7.7-4.6-12.5 0-10.7 8.6-19.3 19.3-19.3S65.4 36.3 65.4 47c-.1 5.1-2.2 9.9-5.6 13.4z"
       style="fill:#212121;fill-opacity:1" />
  </g>
  <g
     id="XMLID_60_">
    <linearGradient
       id="XMLID_74_"
       gradientUnits="userSpaceOnUse"
       x1="45.798"
       y1="93.375"
       x2="45.798"
       y2="7.824">
      <stop
         offset="0"
         stop-color="#c84e12"
         id="stop4521" />
      <stop
         offset=".995"
         stop-color="#f4b93f"
         id="stop4523" />
    </linearGradient>
    <path
       id="XMLID_11_"
       class="st1"
       d="M84.4 22.2s-14.7 18.6-19.3 29c-4.2 9.5-8.9 39.3-8.9 39.3-.2 1.5-1.7 2.8-3.7 2.8h-13c-2 0-3.4-1.1-3.7-2.8 0 0-4-28.4-9.7-39.3-4.9-9.3-18.8-28.9-18.8-28.9-1.1-1.1-.9-3.1.6-4.5L16.8 9c1.5-1.4 3.4-1.5 4.7-.6l10.9 6.8-.6 30c0 3 1.9 5.3 5 5.3H55c3 0 5-2.9 5-5.4L59.3 15l10.8-6.7c1.2-.8 3.2-.8 4.7.6l9 8.7c1.5 1.5 1.5 3.3.6 4.6z" />
    <linearGradient
       id="XMLID_75_"
       gradientUnits="userSpaceOnUse"
       x1="45.834"
       y1="47.707"
       x2="45.834">
      <stop
         offset="0"
         stop-color="#c84e12"
         id="stop4527" />
      <stop
         offset=".995"
         stop-color="#f4b93f"
         id="stop4529" />
    </linearGradient>
    <path
       id="XMLID_10_"
       class="st2"
       d="M53.2 47.7H38.5c-1.9 0-3.5-1.6-3.5-3.5l1-40.7C36 1.6 37.6 0 39.5 0h12.9c1.9 0 3.5 1.6 3.5 3.5l.8 40.7c0 1.9-1.6 3.5-3.5 3.5z" />
  </g>
</svg>
