<svg version="1.1" xmlns="http://www.w3.org/2000/svg" x="0px" y="0px" viewBox="0 0 512 512">
<g id="radial">
	<path fill="#ffffff" opacity="0.15" d="M471.7,196.6V166l-21.1-21.1c-20.1-35.8-49.8-65.4-85.6-85.6l-18.9-18.9l-0.3-0.3H320
		c-15.3-4.6-31.3-7.6-47.8-8.8l-15-26l-14.9,25.9c-17.3,1.1-34.1,4.1-50.2,8.9h-24L151.1,57c-39,20.9-71.2,53-92,92l-16.6,16.6
		l-0.3,0.3v24c-6.1,20.3-9.4,41.7-9.4,64s3.3,43.7,9.4,64v25.9L61.4,363c20.1,35.8,49.8,65.4,85.6,85.6l20.8,20.8l0.3,0.3h30.7
		c13.3,3.5,27,5.9,41.1,6.9l16.9,29.3l0.5,0.9l17.5-30.3c13.2-1.1,26.1-3.4,38.6-6.7h32.6l23.6-23.6c32.3-19.2,59.4-46.2,78.5-78.5
		l23.4-23.4l0.3-0.3v-32.6c4.9-18.3,7.5-37.5,7.5-57.3S476.5,214.9,471.7,196.6z M42.2,311.5c-4.9-18.4-7.6-37.6-7.6-57.6
		c0-19.9,2.7-39.2,7.6-57.6V311.5z M469.9,166.7v23.7c-4.2-14-9.7-27.4-16.3-40.1L469.9,166.7z M445.8,140.1l-75.9-75.9
		C401,82.9,427.1,109,445.8,140.1z M345.2,41.9L345.2,41.9l14.5,14.5c-10.9-5.7-22.2-10.6-34.1-14.5H345.2z M313.6,40.2h-36.3
		l-4-6.9C287.1,34.3,300.6,36.7,313.6,40.2z M273.5,474.7c-5.8,0.5-11.6,0.7-17.5,0.7c-4.9,0-9.8-0.2-14.6-0.5l-3-5.2h38.1
		L273.5,474.7z M272.4,476.5l-15,25.9l-14.9-25.7c4.5,0.3,9,0.4,13.6,0.4C261.5,477.1,267,476.9,272.4,476.5z M237.3,467.9
		l-17.8-30.5h75.6l-17.8,30.5H237.3z M218.5,435.6l-4.6-8c13.5,3.3,27.6,5,42.1,5c15.7,0,30.8-2.1,45.3-5.9l-5.1,8.8H218.5z
		 M256,430.9c-14.9,0-29.4-1.9-43.3-5.4l-41.8-72l85.9,49.6l0.4,0.3l87-50.2l-41.5,71.4C287.7,428.7,272.1,430.9,256,430.9z
		 M383.8,228.2l0,27.8l-253.3-0.6v-27.2l40-69.3l86.6-50l86.6,50L383.8,228.2z M346.8,160.7l37,21.3v42.7L346.8,160.7z M385.6,255.4
		v-24.2l14,24.2H385.6z M399.8,257.9l-14.1,23.8l-0.1,0.2v-24H399.8z M114.8,255.4l14-24.2v24.2H114.8z M130.5,224.7V182l37-21.3
		L130.5,224.7z M169.2,157.6L128.8,181v46.7l-16.2,28l-0.2,0.3l0,0l-0.1,0.1l-0.1,0.2l0,0l-0.5,0.8h0l17,27.6v44.5l39,22.5l42.2,73
		C134.6,404.4,79,335.6,79,254c0-82.6,56.9-152.2,133.6-171.6L169.2,157.6z M114.8,257.9h14v23.3L114.8,257.9z M130.5,284.2v-26.3
		h253.3v27l-37.9,65.2l-88.7,51.2l-88.1-50.9L130.5,284.2z M383.8,288.5v39.8L349,348.4L383.8,288.5z M347.2,351.4l38.3-22.1v-43.8
		l17-28.3l0,0l-0.3-0.5l0,0l-0.3-0.6l-0.1-0.1l0,0l-0.2-0.3l-16.2-28V181l-40.5-23.4l-43-74.5c75.3,20.3,130.9,89.2,130.9,170.8
		c0,80.5-54.1,148.6-127.9,170L347.2,351.4z M342,155.9l-84.9-49l-84.9,49l42.7-74c13.2-3.1,26.9-4.8,41-4.8
		c15.1,0,29.7,1.9,43.7,5.5L342,155.9z M213.9,80.3C135.6,99.3,77.3,169.9,77.3,254c0,83,57,153.1,133.9,173l5,8.6h-34L76.3,329.7
		V180.1L182.1,74.2h35.3L213.9,80.3z M130.5,328.3v-40.5l35.4,60.9L130.5,328.3z M303.8,426.1c75.4-21,130.9-90.2,130.9-172.2
		c0-83.1-57-153.1-133.9-173l-3.9-6.7h34.9l105.8,105.8v149.7L331.8,435.6h-33.5L303.8,426.1z M298.5,80.4
		c-13.6-3.3-27.8-5.1-42.5-5.1c-13.7,0-27,1.6-39.8,4.5l3.2-5.6h75.5L298.5,80.4z M220.4,72.5l17.6-30.5h38.2l17.6,30.5H220.4z
		 M257.2,8.9l12.9,22.4c-4.7-0.3-9.4-0.5-14.1-0.5c-3.9,0-7.8,0.1-11.7,0.3L257.2,8.9z M243.3,32.9c4.2-0.2,8.5-0.4,12.7-0.4
		c5.1,0,10.1,0.2,15.2,0.5l4.1,7.1h-36.1L243.3,32.9z M241.2,33.1l-4.1,7.1h-38.6C212.2,36.5,226.5,34.1,241.2,33.1z M168.7,41.9
		h17.7c-10.4,3.4-20.5,7.6-30.2,12.5L168.7,41.9z M146.7,61.5l-83.1,83.1C83.3,110,112.1,81.2,146.7,61.5z M43.9,166.7l12.5-12.5
		c-4.9,9.7-9,19.8-12.5,30.2V166.7z M43.9,343.1v-19.6c3.9,11.8,8.7,23.2,14.4,34.1L43.9,343.1z M66.2,367.9l75.9,75.9
		C111,425,84.9,398.9,66.2,367.9z M168.7,467.9l-16.3-16.3c12.7,6.7,26.1,12.2,40.1,16.3H168.7z M148,447.2L62.8,362
		c-7.8-13.9-14.2-28.7-18.8-44.3V190.3c4.2-14,9.8-27.4,16.5-40.1l91.7-91.7c12.7-6.8,26.1-12.3,40.1-16.5h43.8l-17.6,30.5h-37
		L74.8,179.1l-0.3,0.3v151.1l106.6,106.6l0.3,0.3h35.8l17.6,30.5h-35.9C181,463.1,163.9,456.1,148,447.2z M205.9,469.6h29.9l2.9,5
		C227.5,473.8,216.6,472.1,205.9,469.6z M275.7,474.5l2.8-4.8h27.6C296.2,471.9,286.1,473.6,275.7,474.5z M345.2,467.9h-25.6
		c15.5-4.6,30.3-10.9,44.2-18.5L345.2,467.9z M374.9,440.7l67.9-67.9C425.3,400.1,402.1,423.3,374.9,440.7z M469.9,343.1l-18.5,18.5
		c7.7-13.9,13.9-28.7,18.5-44.2V343.1z M469.9,311c-5.3,19.7-13.1,38.2-23.3,55.4l-78.2,78.2c-17.1,10.1-35.7,18-55.4,23.3h-33.5
		l9.2-16l8.5-14.6h35.3l106.6-106.6l0.3-0.3V179.3L332.8,72.7l-0.3-0.3h-36.6l-17.6-30.5h41.4c15.5,4.7,30.4,11,44.3,18.8l85.2,85.2
		c8.9,15.9,15.9,32.9,20.7,50.9V311z M471.7,304.1V203.9c3.7,16.1,5.7,32.9,5.7,50.1C477.4,271.2,475.4,288,471.7,304.1z"/>
</g>
<g id="arrow">
	<path fill="#ffffff" d="M257.1,61.3l0-1.3c0-0.5-0.4-0.9-0.9-1c0,0,0,0-0.1,0c0,0,0,0-0.1,0c0,0,0,0-0.1,0c0,0,0,0-0.1,0
		c-0.5,0-0.9,0.5-0.9,1l0,1.3L234,214.9c-0.1,0.5,0.2,0.9,0.7,1.1c0.1,0,0.2,0.1,0.3,0.1c0.3,0,0.7-0.2,0.9-0.5l9.1-14.8l5.6,24.5
		v116c-6.7,2.3-11.3,8.7-11.3,15.8c0,9.2,7.5,16.8,16.8,16.8c9.2,0,16.8-7.5,16.8-16.8c0-7.1-4.6-13.5-11.3-15.8v-116l5.6-24.3
		l9,14.6c0.2,0.3,0.5,0.5,0.9,0.5c0.1,0,0.2,0,0.3-0.1c0.4-0.2,0.7-0.6,0.7-1.1L257.1,61.3z"/>
</g>
<g id="bow">
	<path fill="#ffffff" d="M268.1,122.2c0,0,23.6,9.2,25.3,28.1l-0.7,13.2c0,0,3,0.9,7.3-2.9c4.3-3.8,51-41.7,87.4-14.4
		c0,0-19.5,0.4-18.5,5.9c0.8,4.4,17.5,4.7,24,4.6c1.4,0,2.6,1.1,2.6,2.5v2.8c0,0-0.7,1.1,3.1,3.5c3.9,2.4,38.2,21.6,50.7,54.5
		c12.4,32.9,37.3,65.8,37.3,65.8s-25.2-0.2-44.9-47.6c-19.8-47.6-95.8-68.7-95.8-68.7s-7.1-2.9-7.3-7.3c0,0-30.7,4.2-39.3,19.8
		c-8.7,15.6-2.9,26.4-2.9,26.4s20.7,42-21.3,58.7C275.3,267.1,291.7,176.9,268.1,122.2z"/>
	<path fill="#ffffff" d="M243.9,122.2c0,0-23.6,9.2-25.3,28.1l0.7,13.2c0,0-3,0.9-7.3-2.9c-4.3-3.8-51-41.7-87.4-14.4
		c0,0,19.5,0.4,18.5,5.9c-0.8,4.4-17.5,4.7-24,4.6c-1.4,0-2.6,1.1-2.6,2.5v2.8c0,0,0.7,1.1-3.1,3.5c-3.9,2.4-38.2,21.6-50.7,54.5
		s-37.3,65.8-37.3,65.8s25.2-0.2,44.9-47.6c19.8-47.6,95.8-68.7,95.8-68.7s7.1-2.9,7.3-7.3c0,0,30.7,4.2,39.3,19.8
		c8.7,15.6,2.9,26.4,2.9,26.4s-20.7,42,21.3,58.7C236.7,267.1,220.3,176.9,243.9,122.2z"/>
</g>
<g id="voidBall">
	<path fill="#ffffff" d="M221.5,417.4c-15.1-8.2-25.9-24.2-31.3-40.8c-1.1-3-4-1.7-3.3,1c5.7,17.6,17.9,32.2,33.8,40.9
		C221.7,418.9,222.3,417.9,221.5,417.4z"/>
	<path fill="#ffffff" d="M252.1,287.8c-0.1-1.4,0.3-2.9,1.2-4c-38.7,1-69.8,32.8-69.8,71.7c0,4.4,0.4,8.7,1.2,12.9
		c0.9,2.6,4.5,1.7,3.9-0.8c-0.7-3.9-1.1-8-1.1-12.1C187.4,319.2,216.2,289.5,252.1,287.8z"/>
	<path fill="#ffffff" d="M293.1,295.4c-7.4-5.3-12.2-7.5-21.3-9.7c-2.7-0.5-3.5,3.2-1.5,3.8c8.9,2,13.8,3.3,21,8.4
		C293.1,298.9,294.7,296.8,293.1,295.4z"/>
	<path fill="#ffffff" d="M321.1,326.9C321.1,326.9,321.1,326.9,321.1,326.9c-1.6-3.7-3.3-5.4-5.5-8.8c-0.9-1.4-3.1-0.6-2.3,1.4
		c1.9,3,2.7,5.7,4.1,9c0,0,0,0,0,0C318.3,330.6,321.8,329.6,321.1,326.9z"/>
	<path fill="#ffffff" d="M327,355.5c0-4.1-0.4-8.2-1-12.2c-0.3-2-1.1-7.1-1.9-8.9c-1.3-3-4.4-2.2-3.9,0.9c0.3,1.8,1.4,6.7,1.8,8.6
		c0.7,3.9,1,7.8,1,11.7c0,2.9-0.2,5.7-0.6,8.5c0,0.1-0.1,0.3-0.1,0.4c0,1.1,0.9,2,2,2c0.6,0,1.2-0.3,1.6-0.8c0.2-0.3,0.4-0.6,0.4-1
		c0-0.4,0.1-0.8,0.1-1.1c0.1-0.8,0.2-1.6,0.2-2.4c0.1-0.8,0.1-1.6,0.2-2.5c0-0.8,0.1-1.6,0.1-2.4C327,356,327,355.8,327,355.5z"/>
	<path fill="#ffffff" d="M324.5,374.6c0.2-1.1,0.3-2.2-0.4-3c-0.8-1-2.1-0.4-2.8,0.5c-0.2,0.3-0.4,0.6-0.5,0.9
		c-5.6,20.8-20.4,38.1-40.2,45.9c-2.5,1-0.9,4.7,1.2,3.6c0,0,0,0,0,0c0,0,0,0,0,0c1.6-0.7,3.2-1.4,4.7-2.1c1.5-0.8,3.1-1.6,4.5-2.5
		c1.5-0.9,2.9-1.8,4.4-2.8c1.4-1,2.8-2,4.2-3.1c1.3-1.1,2.7-2.2,3.9-3.4c1.3-1.2,2.5-2.4,3.7-3.6c1.2-1.3,2.3-2.6,3.4-3.9
		c1.1-1.3,2.2-2.7,3.2-4.1c1-1.4,2-2.9,2.9-4.3c0.9-1.5,1.8-3,2.5-4.5c0.8-1.5,1.5-3.1,2.2-4.7c0.7-1.6,1.3-3.2,1.9-4.9
		c0.2-0.7,0.4-1.3,0.7-2C324.1,375.9,324.3,375.3,324.5,374.6z"/>
	<path fill="#ffffff" d="M256,294.4c-33.8,0-61.1,27.4-61.1,61.1s27.4,61.1,61.1,61.1s61.1-27.4,61.1-61.1S289.8,294.4,256,294.4z
		M296.3,371.5c0,0-9.8,10.2-25.9,1.8c-0.1,0.1-0.3,0.2-0.4,0.3c1.3,2.3,7.5,12.1,14.4,13.8c0,0-13.2,5.1-24.3-9.4
		c0.2,2.5,1.6,14.2,7.2,18.7c0,0-14.1-0.9-18-18.7c-1.1,2.1-6.5,12.7-4.2,19.6c0,0-11.3-8.6-4.8-25.6c-1.6,1.3-11,9.2-11.6,16.5
		c0,0-7-12,5.1-25c-3.1,0.9-13.5,4.2-16.8,10.2c0,0-1.4-13.6,14.5-20.6c-3.5-0.5-13.8-1.7-19.2,2.2c0,0,4.5-13.2,22.3-12.6
		c-3.1-1.8-12.2-6.7-18.6-5.1c0,0,9.1-10.6,25.4-3.3c-1.6-3-6.9-12.2-13.3-14.2c0,0,13.1-4.2,23.2,10.1c0.2-0.1,0.4-0.1,0.7-0.2
		c-0.2-3.1-1.3-14.1-6.5-18.5c0,0,13.8,1.4,17.3,18.7c1.2-3.4,4.2-13.3,1.4-19.2c0,0,12.1,6.9,8.2,24.2c2.2-2.1,10-10,10.1-17
		c0,0,8,11.7-3.7,25.8c2.8-0.8,13.6-4.2,16.9-10.3c0,0,1.5,14.1-15.3,21c0,0,0,0,0,0c2.8,0.5,14.1,2,19.8-2.2
		c0,0-4.5,13.3-22.5,12.6c0,0,0,0,0,0C279.8,366.7,289.4,372.9,296.3,371.5z"/>
</g>
</svg>