<svg version="1.1" xmlns="http://www.w3.org/2000/svg" x="0px" y="0px" viewBox="0 0 512 512">
<g id="radial">
	<path fill="#ffffff" opacity="0.15" d="M468.3,197.6v-30.2l-20.7-20.7c-19.8-35.2-49-64.4-84.2-84.2l-18.6-18.6l-0.3-0.3H319
		c-15.1-4.5-30.8-7.5-47-8.6L257.1,9.3l-14.7,25.5c-17.1,1-33.6,4-49.4,8.8h-23.7l-16.6,16.6c-38.4,20.5-70.1,52.2-90.6,90.6
		l-16.3,16.4l-0.3,0.3V191c-6,20-9.2,41.1-9.2,63s3.2,43,9.2,63v25.5l18.9,18.9c19.8,35.2,49,64.4,84.2,84.2l20.5,20.5l0.3,0.3h30.2
		c13,3.5,26.6,5.8,40.4,6.8l16.6,28.8l0.5,0.9l17.2-29.8c13-1.1,25.7-3.3,38-6.6h32.1l23.3-23.3c31.8-18.9,58.4-45.5,77.3-77.3
		l23-23l0.3-0.3v-32.1c4.8-18,7.4-36.9,7.4-56.4S473.1,215.6,468.3,197.6z M45.5,310.7c-4.9-18.1-7.5-37.1-7.5-56.7
		c0-19.6,2.6-38.6,7.5-56.7V310.7z M466.6,168.1v23.4c-4.1-13.8-9.5-27-16.1-39.5L466.6,168.1z M442.8,141.9l-74.7-74.7
		C398.7,85.6,424.4,111.3,442.8,141.9z M343.8,45.3L343.8,45.3L358,59.5c-10.7-5.6-21.9-10.4-33.5-14.2H343.8z M312.7,43.5h-35.7
		l-3.9-6.8C286.6,37.8,299.9,40.1,312.7,43.5z M273.2,471.2c-5.7,0.4-11.4,0.7-17.2,0.7c-4.8,0-9.6-0.2-14.4-0.5l-3-5.1h37.5
		L273.2,471.2z M272.2,473.1l-14.8,25.5l-14.7-25.3c4.4,0.3,8.9,0.4,13.3,0.4C261.4,473.7,266.8,473.5,272.2,473.1z M237.6,464.6
		l-17.5-30.1h74.5l-17.5,30.1H237.6z M219.1,432.8l-4.6-7.8c13.3,3.2,27.2,5,41.4,5c15.4,0,30.4-2,44.6-5.8l-5,8.6H219.1z
		 M256,428.2c-14.7,0-29-1.8-42.6-5.3l-41.2-70.8l84.5,48.8l0.4,0.3l85.6-49.4L301.9,422C287.2,426,271.9,428.2,256,428.2z
		 M381.8,228.7v26.8H132.5v-26.8l39.4-68.2l85.3-49.2l85.3,49.2L381.8,228.7z M345.4,162.2l36.4,21v42L345.4,162.2z M383.5,255.4
		v-23.8l13.7,23.8H383.5z M397.2,257.9l-13.5,23.4l-0.1,0.2v-23.6H397.2z M117,255.4l13.7-23.8v23.8H117z M132.5,225.2v-42l36.4-21
		L132.5,225.2z M170.6,159.2l-39.8,23v46l-15.9,27.5h-0.3l0.2,0.3l-0.1,0.1h-0.3l0.1,0.2l-0.5,0.8h1l15.8,27.1v43.8l38.3,22.1
		l41.5,71.9c-74.1-20-128.8-87.8-128.8-168.1c0-81.3,56-149.8,131.5-168.9L170.6,159.2z M117.4,257.9h13.3v22.9L117.4,257.9z
		 M132.5,283.8v-25.9h249.3v26.6l-37.3,64.2l-87.3,50.4L170.4,349L132.5,283.8z M381.8,288v39.1l-34.3,19.8L381.8,288z M345.8,349.9
		l37.7-21.8V285l16.2-27.8h0.5l-0.3-0.5l0.3-0.6h-0.7l-0.1-0.1l0.2-0.3h-0.3l-15.9-27.5v-46l-39.9-23l-42.3-73.3
		c74.1,20,128.8,87.8,128.8,168.1c0,79.3-53.3,146.3-125.9,167.3L345.8,349.9z M340.7,157.4l-83.5-48.2l-83.6,48.2l42.1-72.9
		c13-3.1,26.4-4.8,40.3-4.8c14.8,0,29.2,1.9,43,5.4L340.7,157.4z M214.6,83.1C137.5,101.8,80.1,171.3,80.1,254
		c0,81.8,56.1,150.7,131.8,170.3l4.9,8.5h-33.5L79.1,328.6V181.3L183.3,77.1H218L214.6,83.1z M132.5,327.1v-39.8l34.9,60
		L132.5,327.1z M303,423.5c74.2-20.6,128.9-88.8,128.9-169.5c0-81.8-56.1-150.7-131.8-170.3l-3.8-6.6h34.3l104.2,104.2v147.3
		L330.6,432.8h-33L303,423.5z M297.8,83.2c-13.4-3.3-27.4-5.1-41.8-5.1c-13.5,0-26.6,1.6-39.2,4.4l3.2-5.5h74.3L297.8,83.2z
		 M221,75.3l17.4-30.1h37.6l17.4,30.1H221z M257.1,12.7l12.7,22c-4.6-0.3-9.2-0.5-13.9-0.5c-3.9,0-7.7,0.1-11.5,0.3L257.1,12.7z
		 M243.5,36.4c4.1-0.2,8.3-0.4,12.5-0.4c5,0,10,0.2,14.9,0.5l4,7h-35.6L243.5,36.4z M241.4,36.6l-4,7h-38
		C212.9,39.9,227,37.5,241.4,36.6z M170.1,45.3h17.4c-10.3,3.4-20.2,7.5-29.7,12.3L170.1,45.3z M148.4,64.5l-81.8,81.8
		C86,112.3,114.3,84,148.4,64.5z M47.3,168.1l12.3-12.3c-4.8,9.5-8.9,19.5-12.3,29.7V168.1z M47.3,341.8v-19.3
		c3.8,11.6,8.6,22.8,14.2,33.5L47.3,341.8z M69.2,366.1l74.7,74.7C113.3,422.4,87.6,396.7,69.2,366.1z M170.1,464.6L154,448.5
		c12.5,6.6,25.7,12,39.5,16.1H170.1z M149.7,444.2l-83.9-83.9c-7.7-13.7-13.9-28.3-18.5-43.6V191.3c4.2-13.8,9.6-27,16.3-39.5
		l90.2-90.2c12.5-6.7,25.7-12.1,39.5-16.3h43.1L219,75.3h-36.5L77.6,180.3l-0.3,0.3v148.8l105,105l0.3,0.3h35.2l17.4,30.1h-35.3
		C182.1,459.9,165.3,453,149.7,444.2z M206.7,466.3h29.4l2.9,5C228,470.4,217.2,468.7,206.7,466.3z M275.4,471.1l2.7-4.8h27.1
		C295.6,468.6,285.6,470.2,275.4,471.1z M343.8,464.6h-25.2c15.3-4.5,29.8-10.7,43.5-18.3L343.8,464.6z M373,437.8l66.8-66.8
		C422.7,397.8,399.8,420.7,373,437.8z M466.6,341.8L448.3,360c7.6-13.7,13.7-28.2,18.3-43.5V341.8z M466.6,310.2
		c-5.2,19.4-12.9,37.7-22.9,54.5l-77,77c-16.8,10-35.1,17.7-54.5,22.9h-33l9.1-15.7l8.3-14.4h34.7l105-104.9l0.3-0.3V180.5
		L331.6,75.6l-0.3-0.3h-36l-17.4-30.1h40.8c15.3,4.6,29.9,10.8,43.6,18.5l83.9,83.9c8.8,15.6,15.7,32.4,20.4,50.1V310.2z
		 M468.3,303.3v-98.6c3.7,15.9,5.6,32.4,5.6,49.3C473.9,271,472,287.5,468.3,303.3z"/>
</g>
<g id="staff">
	<rect x="248.3" y="214.3" fill="#ffffff" width="17.4" height="85"/>
	<path fill="#ffffff" d="M274,153.9c0-4.2-7.6-7.7-17-7.7c-9.4,0-17,3.4-17,7.7c0,2.8,3.3,5.3,8.3,6.6v36.7c-2.5,0.2-4.4,2.3-4.4,4.8
		v5.4c0,1.8,1.5,3.3,3.3,3.3h1.2h17.4h0.5c1.8,0,3.3-1.5,3.3-3.3V202c0-2.3-1.6-4.2-3.8-4.7v-36.8C270.6,159.2,274,156.7,274,153.9z
		"/>
	<path fill="#ffffff" d="M274,123.7c0-2.2-2.6-4.1-6.5-5.3l-0.1-3.1c2.2-0.9,3.5-2,3.5-3.3c0-1.3-1.5-2.5-3.8-3.4l-1.4-35.8h0l6.3-9.2
		h0.2l-0.1-0.2l0.1-0.1h-0.1l-7.5-25.1L257,12.9l-7.6,25.4l-7.5,25.1h-0.1l0.1,0.1l-0.1,0.2h0.2l6.3,9.2h0l-1.1,35.7
		c-2.5,0.9-4.1,2.1-4.1,3.5c0,1.3,1.5,2.5,3.8,3.4l-0.1,2.9c-4.2,1.2-6.9,3.2-6.9,5.4c0,2.2,2.6,4.1,6.5,5.3l-0.5,15.3
		c3-1.1,6.8-1.8,11-1.8c4.4,0,8.5,0.8,11.5,2l-0.6-15.7C271.6,127.7,274,125.8,274,123.7z M254.8,107.1v-2.4h-1.4V52.1h1.4V36.6h4.4
		v15.4h1.4v52.6h-1.4v2.4H254.8z"/>
	<path fill="#ffffff" d="M240,359.6c0,4.2,7.6,7.7,17,7.7c9.4,0,17-3.4,17-7.7c0-2.8-3.3-5.3-8.3-6.6v-36.7c2.5-0.2,4.4-2.3,4.4-4.8
		v-5.4c0-1.8-1.5-3.3-3.3-3.3h-1.2h-17.4h-0.5c-1.8,0-3.3,1.5-3.3,3.3v5.4c0,2.3,1.6,4.2,3.8,4.7V353
		C243.3,354.4,240,356.8,240,359.6z"/>
	<path fill="#ffffff" d="M240,389.8c0,2.2,2.6,4.1,6.5,5.3l0.1,3.1c-2.2,0.9-3.6,2-3.6,3.3c0,1.3,1.4,2.5,3.8,3.4l1.4,35.8h0L242,450
		h-0.2l0.1,0.2l-0.1,0.1h0.1l7.5,25.1l7.6,25.4l7.6-25.4l7.5-25.1h0.1l-0.1-0.1l0.1-0.2h-0.2l-6.3-9.2h0l1.1-35.7
		c2.5-0.9,4.1-2.1,4.1-3.5c0-1.3-1.5-2.5-3.8-3.4l0.1-2.9c4.2-1.2,6.9-3.2,6.9-5.4c0-2.1-2.6-4.1-6.5-5.3l0.5-15.3
		c-3,1.1-6.8,1.8-11,1.8c-4.4,0-8.5-0.8-11.5-2l0.6,15.7C242.3,385.9,240,387.8,240,389.8z M259.2,406.5v2.4h1.4v52.6h-1.4v15.4
		h-4.4v-15.4h-1.4v-52.6h1.4v-2.4H259.2z"/>
</g>
<g id="spikes">
	<polygon fill="#ffffff" points="313.6,146.7 275.4,184.8 275.4,193.6 277.7,193.6 277.7,214.4 275.4,214.4 275.4,253.8 312,253.8 
		367.5,198.4 313.1,198.4 	"/>
	<polygon fill="#ffffff" points="313.6,367.1 275.4,329 275.4,320.2 277.7,320.2 277.7,299.4 275.4,299.4 275.4,259.9 312,259.9 
		367.5,315.4 313.1,315.4 	"/>
	<polygon fill="#ffffff" points="200.4,146.7 238.5,184.8 238.5,193.6 236.2,193.6 236.2,214.4 238.5,214.4 238.5,253.8 201.9,253.8 
		146.5,198.4 200.9,198.4 	"/>
	<polygon fill="#ffffff" points="200.4,367.1 238.5,329 238.5,320.2 236.2,320.2 236.2,299.4 238.5,299.4 238.5,259.9 201.9,259.9 
		146.5,315.4 200.9,315.4 	"/>
</g>
<g id="shortLines">
  <rect x="325.8" y="179.7" transform="matrix(0.7071 -0.7071 0.7071 0.7071 -31.2752 288.5691)" fill="#ffffff" width="13.8" height="4.6"/>
  <rect x="356.2" y="245.6" fill="#ffffff" width="13.8" height="4.6"/>
  <rect x="353.4" y="227.3" transform="matrix(0.9397 -0.342 0.342 0.9397 -56.8035 137.0801)" fill="#ffffff" width="13.8" height="4.6"/>
  <rect x="179.3" y="175.1" transform="matrix(0.7071 -0.7071 0.7071 0.7071 -75.5238 181.7221)" fill="#ffffff" width="4.6" height="13.8"/>
  <rect x="144.3" y="245.6" fill="#ffffff" width="13.8" height="4.6"/>
  <rect x="151.7" y="222.7" transform="matrix(0.342 -0.9397 0.9397 0.342 -114.4576 295.7585)" fill="#ffffff" width="4.6" height="13.8"/>
  <rect x="330.4" y="324.8" transform="matrix(0.7071 -0.7071 0.7071 0.7071 -137.1078 332.4079)" fill="#ffffff" width="4.6" height="13.8"/>
  <rect x="356.2" y="263.6" fill="#ffffff" width="13.8" height="4.6"/>
  <rect x="358" y="277.2" transform="matrix(0.342 -0.9397 0.9397 0.342 -29.8772 525.548)" fill="#ffffff" width="4.6" height="13.8"/>
  <rect x="174.7" y="329.4" transform="matrix(0.7071 -0.7071 0.7071 0.7071 -181.3635 225.558)" fill="#ffffff" width="13.8" height="4.6"/>
  <rect x="144.3" y="263.6" fill="#ffffff" width="13.8" height="4.6"/>
  <rect x="147" y="281.8" transform="matrix(0.9397 -0.342 0.342 0.9397 -87.8893 69.7848)" fill="#ffffff" width="13.8" height="4.6"/>
  <rect x="389.4" y="254.6" fill="#ffffff" width="13.8" height="4.6"/>
  <rect x="388.5" y="230.6" transform="matrix(0.9883 -0.1524 0.1524 0.9883 -30.8772 62.882)" fill="#ffffff" width="12.5" height="4.6"/>
  <rect x="382.9" y="206.7" transform="matrix(0.944 -0.33 0.33 0.944 -47.1914 139.9782)" fill="#ffffff" width="11.5" height="4.6"/>
  <rect x="374.6" y="184" transform="matrix(0.8552 -0.5184 0.5184 0.8552 -41.5137 224.0126)" fill="#ffffff" width="11" height="4.6"/>
  <rect x="359.6" y="163.9" transform="matrix(0.7226 -0.6913 0.6913 0.7226 -13.6414 298.4963)" fill="#ffffff" width="11" height="4.6"/>
  <rect x="342" y="146.4" transform="matrix(0.5635 -0.8261 0.8261 0.5635 28.9691 352.2156)" fill="#ffffff" width="11.5" height="4.6"/>
  <rect x="321.4" y="131.4" transform="matrix(0.4033 -0.9151 0.9151 0.4033 73.1355 379.6353)" fill="#ffffff" width="12.5" height="4.6"/>
  <rect x="299.6" y="121" transform="matrix(0.2588 -0.9659 0.9659 0.2588 108.0697 387.4212)" fill="#ffffff" width="13.8" height="4.6"/>
  <rect x="110.7" y="254.6" fill="#ffffff" width="13.8" height="4.6"/>
  <rect x="116.9" y="226.7" transform="matrix(0.1524 -0.9883 0.9883 0.1524 -129.1639 315.196)" fill="#ffffff" width="4.6" height="12.5"/>
  <rect x="122.9" y="203.2" transform="matrix(0.33 -0.944 0.944 0.33 -113.3836 258.2681)" fill="#ffffff" width="4.6" height="11.5"/>
  <rect x="131.6" y="180.8" transform="matrix(0.5184 -0.8552 0.8552 0.5184 -94.8291 204.2119)" fill="#ffffff" width="4.6" height="11"/>
  <rect x="146.6" y="160.7" transform="matrix(0.6913 -0.7226 0.7226 0.6913 -74.1513 158.8927)" fill="#ffffff" width="4.6" height="11"/>
  <rect x="163.9" y="142.9" transform="matrix(0.8261 -0.5635 0.5635 0.8261 -54.8764 119.4824)" fill="#ffffff" width="4.6" height="11.5"/>
  <rect x="184" y="127.5" transform="matrix(0.9151 -0.4033 0.4033 0.9151 -38.1234 86.4858)" fill="#ffffff" width="4.6" height="12.5"/>
  <rect x="205.1" y="116.4" transform="matrix(0.9659 -0.2588 0.2588 0.9659 -24.8382 57.8878)" fill="#ffffff" width="4.6" height="13.8"/>
  <rect x="392.5" y="274.6" transform="matrix(0.1524 -0.9883 0.9883 0.1524 57.0183 628.2274)" fill="#ffffff" width="4.6" height="12.5"/>
  <rect x="386.4" y="299" transform="matrix(0.33 -0.944 0.944 0.33 -27.2311 571.1254)" fill="#ffffff" width="4.6" height="11.5"/>
  <rect x="377.8" y="321.9" transform="matrix(0.5184 -0.8552 0.8552 0.5184 -96.9441 482.749)" fill="#ffffff" width="4.6" height="11"/>
  <rect x="362.8" y="342" transform="matrix(0.6913 -0.7226 0.7226 0.6913 -138.3793 371.0755)" fill="#ffffff" width="4.6" height="11"/>
  <rect x="345.5" y="359.3" transform="matrix(0.8261 -0.5635 0.5635 0.8261 -145.2253 259.4526)" fill="#ffffff" width="4.6" height="11.5"/>
  <rect x="325.4" y="373.8" transform="matrix(0.9151 -0.4033 0.4033 0.9151 -125.4247 164.4151)" fill="#ffffff" width="4.6" height="12.5"/>
  <rect x="304.2" y="383.5" transform="matrix(0.9659 -0.2588 0.2588 0.9659 -90.6082 92.6208)" fill="#ffffff" width="4.6" height="13.8"/>
  <rect x="112.9" y="278.5" transform="matrix(0.9883 -0.1524 0.1524 0.9883 -41.4074 21.4447)" fill="#ffffff" width="12.5" height="4.6"/>
  <rect x="119.5" y="302.4" transform="matrix(0.944 -0.33 0.33 0.944 -93.5426 58.4042)" fill="#ffffff" width="11.5" height="4.6"/>
  <rect x="128.4" y="325.1" transform="matrix(0.8552 -0.5184 0.5184 0.8552 -150.3488 116.8339)" fill="#ffffff" width="11" height="4.6"/>
  <rect x="143.4" y="345.2" transform="matrix(0.7226 -0.6913 0.6913 0.7226 -198.9356 199.3222)" fill="#ffffff" width="11" height="4.6"/>
  <rect x="160.4" y="362.8" transform="matrix(0.5635 -0.8261 0.8261 0.5635 -229.0778 296.6185)" fill="#ffffff" width="11.5" height="4.6"/>
  <rect x="180" y="377.7" transform="matrix(0.4033 -0.9151 0.9151 0.4033 -236.5376 397.1996)" fill="#ffffff" width="12.5" height="4.6"/>
  <rect x="200.5" y="388.1" transform="matrix(0.2588 -0.9659 0.9659 0.2588 -223.392 489.769)" fill="#ffffff" width="13.8" height="4.6"/>
</g>
</svg>
