<svg version="1.1" xmlns="http://www.w3.org/2000/svg" x="0px" y="0px" viewBox="0 0 512 512">
<g id="radial">
	<path fill="#ffffff" opacity="0.15" d="M471.7,196.6V166l-21.1-21.1c-20.1-35.8-49.8-65.4-85.6-85.6l-18.9-18.9l-0.3-0.3H320
		c-15.3-4.6-31.3-7.6-47.8-8.8l-15-26l-14.9,25.9c-17.3,1.1-34.1,4.1-50.2,8.9h-24l-17,16.9c-39,20.9-71.2,53-92,92l-16.6,16.6
		l-0.3,0.3v24c-6.1,20.3-9.4,41.7-9.4,64s3.3,43.7,9.4,64v25.9L61.4,363c20.1,35.8,49.8,65.4,85.6,85.6l20.8,20.8l0.3,0.3h30.7
		c13.3,3.5,27,5.9,41.1,6.9l16.9,29.3l0.5,0.9l17.5-30.3c13.2-1.1,26.1-3.4,38.6-6.7H346l23.6-23.6c32.3-19.2,59.4-46.2,78.5-78.5
		l23.4-23.4l0.3-0.3v-32.6c4.9-18.3,7.5-37.5,7.5-57.3S476.5,214.9,471.7,196.6z M42.2,311.5c-4.9-18.4-7.6-37.6-7.6-57.6
		c0-19.9,2.7-39.2,7.6-57.6V311.5z M469.9,166.7v23.7c-4.2-14-9.7-27.4-16.3-40.1L469.9,166.7z M445.8,140.1l-75.9-75.9
		C401,82.9,427.1,109,445.8,140.1z M345.2,41.9L345.2,41.9l14.5,14.5c-10.9-5.7-22.2-10.6-34.1-14.5H345.2z M313.6,40.2h-36.3
		l-4-6.9C287.1,34.3,300.6,36.7,313.6,40.2z M273.5,474.7c-5.8,0.5-11.6,0.7-17.5,0.7c-4.9,0-9.8-0.2-14.6-0.5l-3-5.2h38.1
		L273.5,474.7z M272.4,476.5l-15,25.9l-14.9-25.7c4.5,0.3,9,0.4,13.6,0.4C261.5,477.1,267,476.9,272.4,476.5z M237.3,467.9
		l-17.8-30.5h75.6l-17.8,30.5H237.3z M218.4,435.6l-4.6-8c13.5,3.3,27.6,5,42.1,5c15.7,0,30.8-2.1,45.3-5.9l-5.1,8.8h-77.7V435.6z
		 M255.9,430.9c-14.9,0-29.4-1.9-43.3-5.4l-41.8-72l85.9,49.6l0.4,0.3l87-50.2l-41.5,71.4C287.7,428.7,272.1,430.9,255.9,430.9z
		 M383.8,228.2V256l-253.3-0.6v-27.2l40-69.3l86.6-50l86.6,50L383.8,228.2z M346.8,160.7l37,21.3v42.7L346.8,160.7z M385.6,255.4
		v-24.2l14,24.2H385.6z M399.8,257.9l-14.1,23.8l-0.1,0.2v-24H399.8z M114.8,255.4l14-24.2v24.2H114.8z M130.4,224.7V182l37-21.3
		L130.4,224.7z M169.1,157.6L128.8,181v46.7l-16.2,28l-0.2,0.3l0,0l-0.1,0.1l-0.1,0.2l0,0l-0.5,0.8l0,0l17,27.6v44.5l39,22.5
		l42.2,73C134.6,404.4,78.9,335.6,78.9,254c0-82.6,56.9-152.2,133.6-171.6L169.1,157.6z M114.8,257.9h14v23.3L114.8,257.9z
		 M130.4,284.2v-26.3h253.3v27l-37.9,65.2l-88.7,51.2l-88.1-50.9L130.4,284.2z M383.8,288.5v39.8L349,348.4L383.8,288.5z
		 M347.2,351.4l38.3-22.1v-43.8l17-28.3l0,0l-0.3-0.5l0,0l-0.3-0.6l-0.1-0.1l0,0l-0.2-0.3l-16.2-28V181l-40.5-23.4l-43-74.5
		c75.3,20.3,130.9,89.2,130.9,170.8c0,80.5-54.1,148.6-127.9,170L347.2,351.4z M342,155.9l-84.9-49l-84.9,49l42.7-74
		c13.2-3.1,26.9-4.8,41-4.8c15.1,0,29.7,1.9,43.7,5.5L342,155.9z M213.8,80.3C135.6,99.3,77.3,169.9,77.3,254
		c0,83,57,153.1,133.9,173l5,8.6h-34L76.3,329.7V180.1L182.1,74.2h35.3L213.8,80.3z M130.4,328.3v-40.5l35.4,60.9L130.4,328.3z
		 M303.8,426.1c75.4-21,130.9-90.2,130.9-172.2c0-83.1-57-153.1-133.9-173l-3.9-6.7h34.9L437.5,180v149.7L331.8,435.6h-33.5
		L303.8,426.1z M298.5,80.4c-13.6-3.3-27.8-5.1-42.5-5.1c-13.7,0-27,1.6-39.8,4.5l3.2-5.6h75.5L298.5,80.4z M220.3,72.5L237.9,42
		h38.2l17.6,30.5H220.3z M257.2,8.9l12.9,22.4c-4.7-0.3-9.4-0.5-14.1-0.5c-3.9,0-7.8,0.1-11.7,0.3L257.2,8.9z M243.3,32.9
		c4.2-0.2,8.5-0.4,12.7-0.4c5.1,0,10.1,0.2,15.2,0.5l4.1,7.1h-36.1L243.3,32.9z M241.1,33.1l-4.1,7.1h-38.6
		C212.1,36.5,226.4,34.1,241.1,33.1z M168.6,41.9h17.7c-10.4,3.4-20.5,7.6-30.2,12.5L168.6,41.9z M146.6,61.5l-83.1,83.1
		C83.3,110,112.1,81.2,146.6,61.5z M43.9,166.7l12.5-12.5c-4.9,9.7-9,19.8-12.5,30.2V166.7z M43.9,343.1v-19.6
		c3.9,11.8,8.7,23.2,14.4,34.1L43.9,343.1z M66.1,367.9l75.9,75.9C110.9,425,84.9,398.9,66.1,367.9z M168.6,467.9l-16.3-16.3
		c12.7,6.7,26.1,12.2,40.1,16.3H168.6z M147.9,447.2L62.8,362C55,348.1,48.5,333.3,44,317.7V190.3c4.2-14,9.8-27.4,16.5-40.1
		l91.7-91.7c12.7-6.8,26.1-12.3,40.1-16.5H236l-17.6,30.5h-37L74.8,179.1l-0.3,0.3v151.1l106.6,106.6l0.3,0.3h35.8l17.6,30.5h-35.9
		C180.9,463.1,163.8,456.1,147.9,447.2z M205.8,469.6h29.9l2.9,5C227.4,473.8,216.6,472.1,205.8,469.6z M275.7,474.5l2.8-4.8h27.6
		C296.2,471.9,286.1,473.6,275.7,474.5z M345.2,467.9h-25.6c15.5-4.6,30.3-10.9,44.2-18.5L345.2,467.9z M374.9,440.7l67.9-67.9
		C425.3,400.1,402.1,423.3,374.9,440.7z M469.9,343.1l-18.5,18.5c7.7-13.9,13.9-28.7,18.5-44.2V343.1z M469.9,311
		c-5.3,19.7-13.1,38.2-23.3,55.4l-78.2,78.2c-17.1,10.1-35.7,18-55.4,23.3h-33.5l9.2-16l8.5-14.6h35.3l106.6-106.6l0.3-0.3V179.3
		L332.8,72.7l-0.3-0.3h-36.6l-17.6-30.5h41.4c15.5,4.7,30.4,11,44.3,18.8l85.2,85.2c8.9,15.9,15.9,32.9,20.7,50.9L469.9,311
		L469.9,311z M471.7,304.1V203.9c3.7,16.1,5.7,32.9,5.7,50.1C477.4,271.2,475.4,288,471.7,304.1z"/>
</g>
<g id="staff">
	<rect x="219.9" y="248.6" transform="matrix(0.7071 -0.7071 0.7071 0.7071 -105.8141 257.0713)" fill="#ffffff" width="75.1" height="15.4"/>
	<path fill="#ffffff" d="M332.3,202.6c2.6-2.6,0.1-9.6-5.8-15.4c-5.9-5.9-12.7-8.5-15.4-5.8c-1.7,1.7-1.2,5.4,1.1,9.3l-22.9,22.9
		c-1.7-1.4-4.2-1.3-5.7,0.2l-3.4,3.4c-1.1,1.1-1.1,3,0,4.1l0.7,0.7l10.9,10.9l0.3,0.3c1.1,1.1,3,1.1,4.1,0l3.4-3.4
		c1.4-1.4,1.6-3.6,0.6-5.3l23-23C326.8,203.8,330.5,204.4,332.3,202.6z"/>
	<path fill="#ffffff" d="M351.1,183.8c1.4-1.4,0.9-4.2-0.7-7.4l1.9-2c1.9,0.8,3.4,0.9,4.2,0.1c0.8-0.8,0.6-2.5-0.2-4.5l21.5-23.2l0,0
		l9.7-1.8l0.1,0.1l0.1-0.2h0.1l-0.1-0.1l11-20.4l11.1-20.5l-20.6,11.1l-20.4,11l-0.1-0.1v0.1l-0.2,0.1l0.1,0.1l-1.8,9.7l0,0
		l-23,21.6c-2.1-1-3.9-1.2-4.7-0.4c-0.8,0.8-0.6,2.5,0.2,4.5l-1.9,1.7c-3.4-1.9-6.3-2.3-7.7-0.9s-0.9,4.2,0.7,7.4l-9.9,9.2
		c2.6,1.2,5.4,3.1,8,5.7c2.7,2.7,4.8,5.8,5.9,8.4l9.4-10.2C347.1,184.8,349.8,185.1,351.1,183.8z M349.5,161.4l1.5-1.5l-0.9-0.9
		l32.8-32.8l0.9,0.9l9.7-9.7l2.7,2.7l-9.6,9.6l0.9,0.9l-32.8,32.8l-0.9-0.9l-1.5,1.5L349.5,161.4L349.5,161.4z"/>
	<path fill="#ffffff" d="M182.6,309.8c-2.6,2.6-0.1,9.6,5.8,15.4c5.9,5.9,12.7,8.5,15.4,5.8c1.7-1.7,1.2-5.4-1.1-9.3l22.9-22.9
		c1.7,1.4,4.2,1.3,5.7-0.2l3.4-3.4c1.1-1.1,1.1-3,0-4.1l-0.7-0.7l-10.9-10.9l-0.3-0.3c-1.1-1.1-3-1.1-4.1,0l-3.4,3.4
		c-1.4,1.4-1.6,3.6-0.6,5.3l-23,23C187.9,308.7,184.3,308.1,182.6,309.8z"/>
	<path fill="#ffffff" d="M163.7,328.7c-1.4,1.4-0.9,4.2,0.7,7.4l-1.9,2c-1.9-0.8-3.5-1-4.3-0.2c-0.8,0.8-0.7,2.4,0.2,4.5l-21.5,23.2
		l0,0l-9.7,1.9l-0.1-0.1l-0.1,0.2h-0.1l0.1,0.1l-11,20.4L105,408.6l20.6-11.1l20.4-11l0.1,0.1v-0.1l0.2-0.1l-0.1-0.1l1.8-9.7l0,0
		l23-21.6c2.1,1,3.9,1.2,4.7,0.4c0.8-0.8,0.6-2.5-0.2-4.5l1.9-1.7c3.4,1.9,6.3,2.3,7.7,0.9c1.3-1.3,0.9-4.2-0.7-7.4l9.9-9.2
		c-2.6-1.2-5.4-3.1-8-5.7c-2.7-2.7-4.8-5.8-5.9-8.4l-9.4,10.2C167.6,327.7,165,327.4,163.7,328.7z M165.3,351.1l-1.5,1.5l0.9,0.9
		l-32.8,32.8l-0.9-0.9l-9.6,9.6l-2.7-2.7l9.6-9.6l-0.9-0.9l32.8-32.8l0.9,0.9l1.5-1.5L165.3,351.1z"/>
</g>
<g id="twirl">
	<path fill="#ffffff" d="M273.4,194.6l36.6-36.6l0.2,0.1l0.1-0.4l28.3-28.3l0,0L316,142.3l0.6-1.6l3.3-9l13-35.8l2.4-6.5l6.5-18l0,0
		l-12.9,15.2c-65.6-27-143.9-13.9-197.1,39.3c-53.1,53.1-66.3,131.4-39.4,196.9l-14.9,12.8l0,0l17.6-6.4l6.5-2.4l35.8-13l9-3.3
		l2-0.7l-14.2,24l0,0l29.6-29.6l0.4-0.1l-0.1-0.2l35.3-35.3l0,0l-14.7,4.9c-6.6-25.7,0.1-54.2,20.2-74.3s48.6-26.8,74.3-20.2
		L273.4,194.6L273.4,194.6z M99,320.5C73,257.4,85.5,182,136.7,130.8C187.9,79.6,263.4,67,326.5,93.1l-13,35.7
		c-49.7-21.3-109.5-11.7-150,28.8c-40.4,40.4-50.1,100.2-28.9,149.8L99,320.5z M175.7,169.8c-35.6,35.6-43.9,88.2-24.9,131.8
		l-7.2,2.6c-20-46.3-11.1-102.1,26.7-139.8c37.8-37.8,93.7-46.6,140-26.6l-2.6,7.2C264.1,125.9,211.3,134.2,175.7,169.8z"/>
	<path fill="#ffffff" d="M387.8,381.9c53.1-53.1,66.3-131.4,39.4-196.9l15.3-12.9l0,0l-18,6.6l-6.5,2.4l-35.8,13l-9,3.3l-1.9,0.7
		l13.1-22.9l0,0l-65.2,65.2l0,0l15.7-5.9c6.6,25.7-0.1,54.2-20.2,74.3c-20.1,20.1-48.6,26.8-74.3,20.2l4.9-14.7l0,0L180,379.4l0,0
		l24.2-14.5l-0.8,2.3l-3.3,9l-13,35.8l-2.4,6.5l-6.4,17.7l0,0l12.8-14.9C256.6,448.1,334.7,435,387.8,381.9z M212.3,363
		c43.5,18.9,96.1,10.6,131.7-24.9c35.6-35.6,43.9-88.3,24.9-131.8l7.2-2.6c20,46.3,11.1,102.1-26.7,139.9
		c-37.7,37.7-93.5,46.6-139.7,26.7L212.3,363z M193.4,414.8l13-35.7c49.6,21.1,109.3,11.4,149.7-28.9
		c40.4-40.4,50.1-100.2,28.9-149.8l35.7-13c26,63.1,13.4,138.5-37.7,189.7C331.8,428.1,256.5,440.7,193.4,414.8z"/>
</g>
</svg>