<?xml version="1.0" encoding="UTF-8" standalone="no"?>
<!DOCTYPE svg PUBLIC "-//W3C//DTD SVG 1.1//EN" "http://www.w3.org/Graphics/SVG/1.1/DTD/svg11.dtd">
<svg width="100%" height="100%" viewBox="0 0 25 32" version="1.1" xmlns="http://www.w3.org/2000/svg" xmlns:xlink="http://www.w3.org/1999/xlink" xml:space="preserve" xmlns:serif="http://www.serif.com/" style="fill-rule:evenodd;clip-rule:evenodd;stroke-linejoin:round;stroke-miterlimit:1.41421;">
    <g transform="matrix(1,0,0,1,-3.683,0)">
        <path d="M22.159,10.666L28.317,10.666L22.159,0L16,0L22.159,10.666Z" style="fill:rgb(228,228,228);fill-rule:nonzero;"/>
        <path d="M28.317,21.334L22.159,10.667L16,10.667L22.159,21.334L28.317,21.334Z" style="fill:rgb(228,228,228);fill-rule:nonzero;"/>
        <path d="M25.238,26.667L22.159,21.334L16,21.334L22.158,32L28.317,32L25.237,26.667L25.238,26.667Z" style="fill:rgb(228,228,228);fill-rule:nonzero;"/>
        <path d="M9.841,21.334L15.999,21.334L9.841,32L3.683,32L9.841,21.334Z" style="fill:rgb(228,228,228);fill-rule:nonzero;"/>
        <path d="M16,10.666L9.842,21.333L3.684,21.333L9.842,10.666L16,10.666Z" style="fill:rgb(228,228,228);fill-rule:nonzero;"/>
        <path d="M12.921,5.333L9.841,10.666L3.683,10.666L9.841,0L15.999,0L12.92,5.333L12.921,5.333Z" style="fill:rgb(228,228,228);fill-rule:nonzero;"/>
    </g>
</svg>
