<?xml version="1.0" encoding="UTF-8" standalone="no"?>
<!DOCTYPE svg PUBLIC "-//W3C//DTD SVG 1.1//EN" "http://www.w3.org/Graphics/SVG/1.1/DTD/svg11.dtd">
<svg width="100%" height="100%" viewBox="0 0 32 18" version="1.1" xmlns="http://www.w3.org/2000/svg" xmlns:xlink="http://www.w3.org/1999/xlink" xml:space="preserve" xmlns:serif="http://www.serif.com/" style="fill-rule:evenodd;clip-rule:evenodd;stroke-linejoin:round;stroke-miterlimit:1.41421;">
    <g transform="matrix(1,0,0,1,0,-7.19)">
        <path d="M30.728,22.608L32,24.811L26.913,24.811L29.457,20.406L30.729,22.609L30.728,22.608Z" style="fill:rgb(228,228,228);fill-rule:nonzero;"/>
        <path d="M28.185,18.203L29.457,20.406L24.37,20.406L26.913,16.001L28.185,18.204L28.185,18.203Z" style="fill:rgb(228,228,228);fill-rule:nonzero;"/>
        <path d="M29.457,20.405L26.913,24.81L24.37,20.405L29.457,20.405Z" style="fill:rgb(228,228,228);fill-rule:nonzero;"/>
        <path d="M25.641,13.797L26.913,16L21.826,16L24.369,11.595L25.641,13.798L25.641,13.797Z" style="fill:rgb(228,228,228);fill-rule:nonzero;"/>
        <path d="M26.913,16L24.37,20.405L21.827,16L26.914,16L26.913,16Z" style="fill:rgb(228,228,228);fill-rule:nonzero;"/>
        <path d="M25.215,22.636L26.47,24.811L21.448,24.811L23.959,20.462L25.215,22.636Z" style="fill:rgb(228,228,228);fill-rule:nonzero;"/>
        <path d="M23.098,9.392L24.37,11.595L19.283,11.595L21.826,7.19L23.098,9.393L23.098,9.392Z" style="fill:rgb(228,228,228);fill-rule:nonzero;"/>
        <path d="M24.369,11.595L21.826,16L19.283,11.595L24.37,11.595L24.369,11.595Z" style="fill:rgb(228,228,228);fill-rule:nonzero;"/>
        <path d="M22.703,18.287L23.958,20.462L18.936,20.462L21.447,16.112L22.702,18.287L22.703,18.287Z" style="fill:rgb(228,228,228);fill-rule:nonzero;"/>
        <path d="M23.959,20.462L21.448,24.811L18.937,20.462L23.959,20.462Z" style="fill:rgb(228,228,228);fill-rule:nonzero;"/>
        <path d="M20.193,13.937L21.448,16.112L16.426,16.112L18.937,11.762L20.192,13.937L20.193,13.937Z" style="fill:rgb(228,228,228);fill-rule:nonzero;"/>
        <path d="M21.448,16.112L18.937,20.462L16.426,16.112L21.448,16.112Z" style="fill:rgb(228,228,228);fill-rule:nonzero;"/>
        <path d="M19.695,22.683L20.924,24.811L16.009,24.811L18.466,20.555L19.695,22.683Z" style="fill:rgb(228,228,228);fill-rule:nonzero;"/>
        <path d="M17.281,9.392L18.553,11.595L16.01,16L13.467,11.595L16.01,7.19L17.282,9.393L17.281,9.392Z" style="fill:rgb(228,228,228);fill-rule:nonzero;"/>
        <path d="M17.238,18.427L18.466,20.555L13.552,20.555L16.009,16.299L17.238,18.427Z" style="fill:rgb(228,228,228);fill-rule:nonzero;"/>
        <path d="M18.466,20.555L16.009,24.811L13.552,20.555L18.466,20.555Z" style="fill:rgb(228,228,228);fill-rule:nonzero;"/>
        <path d="M14.78,22.683L16.009,24.811L11.095,24.811L13.552,20.555L14.78,22.683Z" style="fill:rgb(228,228,228);fill-rule:nonzero;"/>
        <path d="M14.342,13.937L15.597,16.112L10.575,16.112L13.086,11.762L14.341,13.937L14.342,13.937Z" style="fill:rgb(228,228,228);fill-rule:nonzero;"/>
        <path d="M15.597,16.112L13.086,20.462L10.575,16.112L15.597,16.112Z" style="fill:rgb(228,228,228);fill-rule:nonzero;"/>
        <path d="M11.83,18.287L13.086,20.462L8.064,20.462L10.575,16.112L11.83,18.287Z" style="fill:rgb(228,228,228);fill-rule:nonzero;"/>
        <path d="M13.086,20.462L10.575,24.811L8.064,20.462L13.086,20.462Z" style="fill:rgb(228,228,228);fill-rule:nonzero;"/>
        <path d="M11.445,9.392L12.717,11.595L7.63,11.595L10.174,7.19L11.446,9.393L11.445,9.392Z" style="fill:rgb(228,228,228);fill-rule:nonzero;"/>
        <path d="M12.717,11.595L10.174,16L7.63,11.595L12.717,11.595Z" style="fill:rgb(228,228,228);fill-rule:nonzero;"/>
        <path d="M9.319,22.636L10.574,24.811L5.552,24.811L8.063,20.462L9.318,22.636L9.319,22.636Z" style="fill:rgb(228,228,228);fill-rule:nonzero;"/>
        <path d="M8.902,13.797L10.174,16L5.087,16L7.63,11.595L8.902,13.798L8.902,13.797Z" style="fill:rgb(228,228,228);fill-rule:nonzero;"/>
        <path d="M10.174,16L7.63,20.405L5.087,16L10.174,16Z" style="fill:rgb(228,228,228);fill-rule:nonzero;"/>
        <path d="M6.358,18.203L7.63,20.406L2.543,20.406L5.086,16.001L6.358,18.204L6.358,18.203Z" style="fill:rgb(228,228,228);fill-rule:nonzero;"/>
        <path d="M7.63,20.405L5.087,24.81L2.544,20.405L7.631,20.405L7.63,20.405Z" style="fill:rgb(228,228,228);fill-rule:nonzero;"/>
        <path d="M3.815,22.608L5.087,24.811L0,24.811L2.543,20.406L3.815,22.609L3.815,22.608Z" style="fill:rgb(228,228,228);fill-rule:nonzero;"/>
    </g>
</svg>
