<svg clip-rule="evenodd" fill-rule="evenodd" stroke-linejoin="round" stroke-miterlimit="2" viewBox="0 0 96 96" xmlns="http://www.w3.org/2000/svg"><path d="m0 0h96v96h-96z" fill="#ceae32"/><g fill-rule="nonzero"><path d="m15.496 30.304v1.848h1.884v-1.848zm-1.932-3.96h1.764c0-.216.024-.418.072-.606s.122-.352.222-.492.228-.252.384-.336.342-.126.558-.126c.32 0 .57.088.75.264s.27.448.27.816c.008.216-.03.396-.114.54s-.194.276-.33.396-.284.24-.444.36-.312.262-.456.426-.27.362-.378.594-.174.52-.198.864v.54h1.62v-.456c.032-.24.11-.44.234-.6s.266-.302.426-.426.33-.248.51-.372.344-.274.492-.45.272-.388.372-.636.15-.564.15-.948c0-.232-.05-.482-.15-.75s-.266-.518-.498-.75-.538-.426-.918-.582-.854-.234-1.422-.234c-.44 0-.838.074-1.194.222s-.66.354-.912.618-.448.576-.588.936-.214.756-.222 1.188z" transform="matrix(4.77977 0 0 4.77977 -47.5224 -96.1681)"/><path d="m15.496 30.304v1.848h1.884v-1.848zm-1.932-3.96h1.764c0-.216.024-.418.072-.606s.122-.352.222-.492.228-.252.384-.336.342-.126.558-.126c.32 0 .57.088.75.264s.27.448.27.816c.008.216-.03.396-.114.54s-.194.276-.33.396-.284.24-.444.36-.312.262-.456.426-.27.362-.378.594-.174.52-.198.864v.54h1.62v-.456c.032-.24.11-.44.234-.6s.266-.302.426-.426.33-.248.51-.372.344-.274.492-.45.272-.388.372-.636.15-.564.15-.948c0-.232-.05-.482-.15-.75s-.266-.518-.498-.75-.538-.426-.918-.582-.854-.234-1.422-.234c-.44 0-.838.074-1.194.222s-.66.354-.912.618-.448.576-.588.936-.214.756-.222 1.188z" transform="matrix(4.77977 0 0 4.77977 -25.2813 -61.935)"/><path d="m15.496 30.304v1.848h1.884v-1.848zm-1.932-3.96h1.764c0-.216.024-.418.072-.606s.122-.352.222-.492.228-.252.384-.336.342-.126.558-.126c.32 0 .57.088.75.264s.27.448.27.816c.008.216-.03.396-.114.54s-.194.276-.33.396-.284.24-.444.36-.312.262-.456.426-.27.362-.378.594-.174.52-.198.864v.54h1.62v-.456c.032-.24.11-.44.234-.6s.266-.302.426-.426.33-.248.51-.372.344-.274.492-.45.272-.388.372-.636.15-.564.15-.948c0-.232-.05-.482-.15-.75s-.266-.518-.498-.75-.538-.426-.918-.582-.854-.234-1.422-.234c-.44 0-.838.074-1.194.222s-.66.354-.912.618-.448.576-.588.936-.214.756-.222 1.188z" transform="matrix(4.77977 0 0 4.77977 -14.3676 -107.492)"/></g></svg>