<svg xmlns="http://www.w3.org/2000/svg" viewBox="0 0 960 960">
<path d="M667.3 97.9 584.9 15.5V.5C629.9.5 719.8 8 727.3 22.9V97.9Z"/>
<path d="M292.7 97.9 375.1 15.5V.5C330.1.5 240.2 8 232.7 22.9V97.9Z"/>
<polygon points="577.4,120.4 480,30.4 382.6,120.4"/>
<path d="M97.9 292.7 15.5 375.1H.5C.5 330.1 8 240.2 22.9 232.7H97.9Z"/>
<path d="M97.9 667.3 15.5 584.9H.5C.5 629.9 8 719.8 22.9 727.3H97.9Z"/>
<polygon points="120.4,382.6 30.4,480 120.4,577.4"/>
<path d="M292.7 862.1 375.1 944.5V959.5C330.1 959.5 240.2 952 232.7 937.1V862.1Z"/>
<path d="M667.3 862.1 584.9 944.5V959.5C629.9 959.5 719.8 952 727.3 937.1V862.1Z"/>
<polygon points="382.6,839.6 480,929.6 577.4,839.6"/>
<path d="M862.1 667.3 944.5 584.9H959.5C959.5 629.9 952 719.8 937.1 727.3H862.1Z"/>
<path d="M862.1 292.7 944.5 375.1H959.5C959.5 330.1 952 240.2 937.1 232.7H862.1Z"/>
<polygon points="839.6,577.4 929.6,480 839.6,382.6"/>
<circle cx="480" cy="480" r="300"/>
</svg>