<svg viewBox="0 0 128 128" xmlns="http://www.w3.org/2000/svg"><g fill="#fff"><path d="m93.49 31.5-21.68-29.73-6.86 2.15v36.18l10.47 9.67z"/><path d="m62.05 40.1v-36.18l-6.86-2.15-21.68 29.73 18.07 18.27z"/><path d="m64.95 88.45v36.17l6.86 2.15 21.68-29.72-18.07-18.27z"/><path d="m33.51 97.05 21.68 29.72 6.86-2.15v-36.17l-10.47-9.67z"/><path d="m39.66 65.53h-36.49l-2.17 6.8 29.99 21.49 18.42-17.91z"/><path d="m39.66 62.66 9.75-10.39-18.42-17.9-29.99 21.49 2.17 6.8z"/><path d="m87.34 65.53-9.75 10.38 18.42 17.91 29.99-21.49-2.17-6.8z"/><path d="m87.34 62.66h36.49l2.17-6.8-29.99-21.49-18.42 17.9z"/><path d="m65.02 55.22h-.83l-.08 4.66 3.95 4.12-3.92 3.99.05 4.79h.88l7.37-7.16v-3.14z"/><ellipse cx="62.98" cy="64" rx="2.28" ry="2.26"/><path d="m61.89 59.88-.08-4.66h-.83l-7.42 7.26v3.14l7.37 7.16h.88l.05-4.79-3.92-3.99z"/><path d="m78.92 64c0-8.8-7.14-15.94-15.94-15.94s-15.94 7.14-15.94 15.94 7.14 15.94 15.94 15.94 15.94-7.14 15.94-15.94zm-15.94 12.94c-7.13 0-12.94-5.8-12.94-12.94 0-7.13 5.8-12.94 12.94-12.94 7.13 0 12.94 5.8 12.94 12.94 0 7.13-5.81 12.94-12.94 12.94z"/></g></svg>