<svg viewBox="0 0 128 128" xmlns="http://www.w3.org/2000/svg"><path d="m91.15.5c-6.81 0-11.55 1.77-11.55 1.77l-19.93 26.39c-.1.13-.22.25-.31.39-.02.03-.03.06-.04.08l-.38.51s.07.06.08.07c-1.91 3.61-1.06 8.53 1.95 13.65l-17.2 24.1s-19.14-.33-26.22 10.57c-7.08 10.91-11.87 14.16-11.87 14.16s-1.15 1.91 1.34 3.64l1.91 2.11s-8.8 8.04-6.32 11.67c2.49 3.64 6.89 2.49 6.89 2.49s-.96 6.32 6.12 5.74c0 0 .96 5.36 8.23 3.64 0 0 1.37 2.42 4.31 2.72l.02.02h.18c.27.02.55.01.84-.01l.9-.01c-2.47-4.05-4.81-8.02-7.35-11.79-1.57-2.38-3.29-4.61-5.07-6.84-1.85-2.18-3.84-4.18-6.07-6.33 3 .65 5.83 2.14 8.26 4.07 2.42 1.96 4.47 4.32 6.22 6.85 1.66 2.59 3.09 5.32 4.09 8.2.67 1.89 1.19 3.83 1.5 5.82h.33c1.4.74 4.82 2.07 9.44.76 6.12-1.75 10.53-5.76 11.86-8.06 0 0 3.08-2.27 2.97-4.28l.13-.14c-3.98-1.87-7.57-4.33-10.96-7.04-2.1-1.78-4.15-3.66-5.97-5.78-1.8-2.1-3.56-4.45-4.39-7.22 2.2 1.78 4.39 3.28 6.54 4.92 2.18 1.59 4.28 3.27 6.38 4.97 3.34 2.81 6.61 5.7 9.59 9.06 1.39-.76 3.28-2.02 3.25-3.29l.13-.22c-1.53-.28-2.89-.84-4.18-1.53-1.97-1.2-3.78-2.66-4.98-5.19 2.79-.24 4.97.6 6.99 1.7 1.25.77 2.42 1.68 3.43 2.86.03-.07.09-.13.11-.2.11-.29.16-.59.15-.89l.01-.02 1.27-1.05c-10.02-8.71-18.9-18.44-27.47-28.44-1.45.21-3.16.87-4.73 1.76-1.9 1.06-3.8 2.24-5.63 3.56-3.69 2.6-7.31 5.43-10.92 8.33 2.68-3.79 5.75-7.29 9.17-10.49 1.75-1.55 3.57-3.08 5.6-4.4 2.06-1.25 4.25-2.58 7.31-2.74l.82-.04.64.71c5.53 6.15 10.9 12.45 15.98 18.99 2.16.09 4.09.69 5.96 1.46 2.44 1.13 4.76 2.53 6.59 5.06-3.1.39-5.7-.35-8.19-1.36-.22-.1-.44-.22-.66-.33 1.91 2.6 3.77 5.24 5.55 7.95 2.15-.58 6.01-1.97 6.55-4.69.77-3.78 10.72-19.67 10.72-19.67l12.19-13.77c6.64 1.18 12.18.09 14.97-3.39.02-.01.05 0 .07-.01 8.69-4.38 19.51-35.63 19.51-35.63-10.57-21.66-26.11-25.9-36.66-25.9zm-38.82 83.47c-.4-2.17-1.33-4.12-2.68-5.67-.66-.78-1.4-1.47-2.2-2.08-.77-.58-1.71-1.16-2.44-1.46-1.05-.42-1.56-1.62-1.14-2.67s1.62-1.56 2.67-1.14c.22.09.41.21.57.35l.05.05c1.07.93 1.76 1.8 2.49 2.8.69.98 1.27 2.03 1.72 3.11.95 2.17 1.24 4.53.96 6.71zm13.87-12.1-.95.98-1.03-.63c-1.95-1.19-4.09-2.37-6.26-3.26-2.18-.92-4.45-1.68-6.93-1.49 2.29-1.1 5.04-.87 7.5-.42 2.06.42 4.01 1.08 5.95 1.9 4.2-5.46 8.64-10.72 13.26-15.82 4.9-5.34 9.99-10.52 15.63-15.23-3.82 6.27-8.19 12.07-12.75 17.71-4.58 5.6-9.36 11.05-14.42 16.26zm19.36-11.36c-4.39 5.62-9.03 11.04-14 16.18.29.39.56.78.81 1.21.47.79.81 1.65 1.06 2.52.51 1.75.34 3.66-.37 5.2.11-1.71-.29-3.29-1.05-4.63-.75-1.31-1.86-2.54-2.99-3.34l-.95-.68.77-1.14c4.22-6.21 8.84-12.09 13.71-17.78 4.88-5.67 9.96-11.18 15.72-16.13-3.73 6.62-8.12 12.68-12.71 18.59zm24.54-4.08c0-3.53-1.61-7.63-4.54-11.74-.08-.11-.16-.23-.24-.34-.25-.34-.49-.68-.76-1.02-1.25-1.62-2.89-3.48-5-5.41-1.67-1.91-3.53-3.47-6.05-5.16l-.37-.25c-1.08-.73-2.37-1.57-3.83-2-8.43-4.78-16.97-6.75-23.01-5.61l15.14-20.05c1.5-.45 5.06-1.32 9.71-1.32 9.9 0 23.65 4.04 33.4 23.06-3.42 9.61-9.47 23.62-14.45 29.84z" fill="#fff"/></svg>