<svg viewBox="0 0 128 128" xmlns="http://www.w3.org/2000/svg"><g fill="#fff"><path d="m31.44 61.56c-16.97 0-30.74 13.76-30.74 30.74s13.76 30.74 30.74 30.74 30.74-13.76 30.74-30.74-13.76-30.74-30.74-30.74zm-.19 14.82 13.16 7.27-13.16 7.86-12.97-7.56zm-14.15 8.65 12.97 7.27-12.97 7.27zm14.15 23.18-12.97-7.56 12.97-7.56 13.16 7.27zm14.53-8.64-12.96-7.27 12.97-7.27v14.54z"/><path d="m94.97 60.53c-16.98 0-30.74 13.76-30.74 30.74s13.76 30.74 30.74 30.74 30.74-13.76 30.74-30.74c-.01-16.97-13.77-30.74-30.74-30.74zm-.02 26.35-5.4 8.17h5.4l-5.94 9h-5.94l5.4-8.17h-5.4l5.55-8.39h-5.55l5.94-9h5.94l-5.55 8.39zm11.93 9h-5.4l5.4 8.17h-5.94l-5.94-9h5.4l-5.4-8.17h5.55l-5.55-8.39h5.94l5.94 9h-5.55z"/><path d="m92.92 34.92c0-16.98-13.76-30.74-30.74-30.74s-30.74 13.76-30.74 30.74 13.76 30.74 30.74 30.74 30.74-13.76 30.74-30.74zm-30.78-12.11 3.58 5.48-3.5 5.36-3.58-5.48zm-21.2 18.73 12.47-18.73 3.5 5.36-8.97 13.37zm8.38 0 8.28-12.68 3.58 5.48-4.7 7.2zm8.54 0 4.36-6.51 4.36 6.51zm10.09 0-4.7-7.2 3.5-5.36 8.21 12.56zm8.38 0-8.89-13.25 3.58-5.48 12.47 18.73z"/></g></svg>