<svg viewBox="0 0 128 128" xmlns="http://www.w3.org/2000/svg"><g fill="#fff"><path d="m78.46 54.2h3.82l-1.98-3.25z"/><path d="m103.34 62.7v-2.87c8.01-16.63 4.52-34.71 4.11-42.3-.41-7.6-15.2-16.02-15.2-16.02h-16.63c15.68 2.84 12.49 8.49 12.49 8.49-25.72 6.12-41.49-.31-41.49-.31l-7.5-6.89c-9.49 0-22.51 3.67-22.51 3.67v44.09l4.75-.15v11.48l7.2 8.42c1.53 2.6 4.59 17.3 4.59 17.3v1.84 12.86 13.47s13.01 10.72 36.74 10.72 32.46-10.1 32.46-10.1v-18.38l.61-5.82c2.3-.77-1.38-7.35-1.38-7.35l.92-17.15s.46-.61 1.53-2.76c1.07-2.13-.69-2.24-.69-2.24zm3.15-21.28-4.81 8.55c-.78 1.38-2.53 1.87-3.91 1.1-1.38-.78-1.87-2.53-1.1-3.91.28-.5.68-.88 1.15-1.13zm-16.17 7.74c-1.54-2.46-3.07-4.91-4.65-7.28-.79-1.18-1.59-2.34-2.42-3.44-.4-.57-.84-1.05-1.25-1.58-.18-.22-.36-.41-.54-.6-1.11.01-2.21.01-3.32.01l-9.62 14.8-10.57 16.15c.74-3.18 1.82-6.26 2.95-9.31 1.2-3.02 2.48-6.01 3.89-8.93 1.43-2.91 2.91-5.79 4.51-8.61 1.59-2.83 3.25-5.59 5.02-8.34l.79-1.23 1.51-.01c1.99-.02 3.98.02 5.97.03l1.17.01.71.74c2.43 2.54 3.92 5.1 5.43 7.73 1.44 2.63 2.76 5.29 3.95 8.01 1.18 2.71 2.28 5.46 3.27 8.24s1.9 5.59 2.62 8.47c-1.67-2.45-3.24-4.94-4.8-7.42zm1.79 10.55h-23.12l8.26-14.54h5.98zm-49.62-48.09.2-.03.35.26c4.12 3.03 8.57 5.26 13.2 6.9 2.31.84 4.68 1.49 7.07 2.02 2.39.54 4.82.94 7.27 1.21 2.43.3 4.95.44 7.38.5 2.35.06 4.64-.21 6.82-.83 2.16-.65 4.17-1.74 5.87-3.33 1.68-1.58 3.11-3.68 3.96-5.98l.19-.52.34.05c.97.15 1.94.34 2.91.53-.8.16-1.6.31-2.4.44-.06 1.28-.3 2.5-.72 3.7-.45 1.31-1.04 2.62-1.89 3.77-1.61 2.37-3.97 4.32-6.64 5.49-2.66 1.19-5.53 1.77-8.34 1.9-2.73.11-5.38.04-8.08-.26-2.68-.28-5.35-.77-7.96-1.51-2.61-.71-5.17-1.67-7.61-2.88-4.79-2.38-9.16-5.73-12.35-9.94-1.34-.21-2.68-.43-4.02-.71 1.49-.31 2.97-.55 4.45-.78zm18.07 37.29c1.4.63 2.02 2.27 1.39 3.66-.63 1.4-2.27 2.02-3.66 1.39-.18-.08-.35-.18-.5-.29l-21.27-15.54zm33.76 58.6c-2.44 1.76-5.17 3.09-8.01 4.05-5.69 1.84-11.65 2.4-17.46 2.3-5.82-.1-11.67-.9-17.29-2.58-2.8-.88-5.53-2.01-8.12-3.39-2.54-1.45-5.05-3.07-6.92-5.32 2.6 1.25 5.25 2.11 7.94 2.81 2.67.74 5.39 1.22 8.09 1.67 5.43.81 10.91 1.19 16.42 1.29 5.5.09 10.95-.06 16.27-.98 2.64-.51 5.26-1.14 7.74-2.2 2.48-1.03 4.91-2.39 6.78-4.59-.82 2.87-3.08 5.14-5.44 6.94zm-41.02-18.09c.23-2.04.51-4.08.83-6.12.37-2.04.66-4.08 1.1-6.12.03-.15.18-.25.33-.22.11.02.19.11.22.22.44 2.04.73 4.08 1.1 6.12.32 2.04.6 4.08.83 6.12s.96 4.08.55 6.12c-.36 2.04-.96 4.08-2.48 6.12-.11.15-.33.18-.48.07-.03-.02-.05-.04-.07-.07-1.52-2.04-2.12-4.08-2.48-6.12-.42-2.04.32-4.08.55-6.12zm41.34-3.53c.23-1.94.51-3.88.83-5.82.37-1.94.66-3.88 1.1-5.82.03-.15.19-.25.34-.21.11.02.19.11.21.21.44 1.94.73 3.88 1.1 5.82.32 1.94.6 3.88.83 5.82s.96 3.88.55 5.82c-.36 1.94-.96 3.88-2.48 5.82-.12.15-.34.18-.49.06-.02-.02-.04-.04-.06-.06-1.52-1.94-2.12-3.88-2.48-5.82-.42-1.94.32-3.88.55-5.82zm5.42-19.12c-1.02 1.17-2.11 2.27-3.16 3.41l-.14.15-.38.11c-3.6 1.07-7 1.52-10.48 1.96-3.46.42-6.92.68-10.39.89-6.93.39-13.84.48-20.77.3l-.86-.02-.57-.4c-1.93-1.36-3.83-2.76-5.72-4.17-1.89-1.42-3.77-2.84-5.61-4.33-1.85-1.47-3.7-2.95-5.5-4.5-1.82-1.53-3.6-3.11-5.33-4.76 2.2.95 4.35 1.97 6.46 3.05 2.13 1.06 4.21 2.18 6.29 3.31 2.09 1.11 4.13 2.29 6.18 3.48 1.79 1.04 3.56 2.11 5.32 3.19 6.64-.25 13.31-.39 19.95-.4l10.3.04c3.35 0 6.82.13 9.97-.13 1.16-.77 2.31-1.56 3.5-2.3 1.31-.84 2.63-1.66 3.99-2.44-.98 1.24-2.01 2.41-3.05 3.56z"/><path d="m41.94 12.96c.04.05.09.11.13.16.14.02.28.05.42.07z"/><path d="m95.16 12.94c.17-.03.34-.06.51-.09.01-.12.02-.25.02-.37z"/><path d="m95.76 67.96c-.04 0-.09 0-.13.01-.13.09-.26.17-.39.26z"/><path d="m56.15 68.9c-.25-.15-.5-.3-.74-.45-.23.01-.45.01-.68.02z"/></g></svg>