<svg viewBox="0 0 128 128" xmlns="http://www.w3.org/2000/svg"><g fill="#fff"><path d="m106.79 74.35-.26-8.25c-.32.43-.67.87-1.08 1.35.62 3.43.84 6.73.78 10.09-.09 3.6-.57 7.2-1.48 10.67-.85 3.49-2.36 6.8-4.21 9.82-1.79 3.09-4.37 5.59-6.98 7.9 2.39-2.56 4.66-5.23 6.11-8.39 1.5-3.09 2.64-6.36 3.12-9.75.54-3.37.67-6.79.43-10.18-.17-2.37-.57-4.75-1.08-7.05-.6.46-1.24.92-1.93 1.34-1.07 4.9-2.77 9.52-4.71 14.04-.31 3.1-.71 6.14-1.29 9.18-.32 1.6-.66 3.2-1.15 4.77-.52 1.52-1.03 3.22-2.3 4.28 1-1.27 1.13-2.93 1.32-4.47.15-1.57.15-3.16.13-4.75-.06-2.89-.28-5.8-.58-8.65-2.08-2-4.12-4.05-6.01-6.24-1.61-1.85-3.12-3.81-4.52-5.89-5.85-1.47-12.76-4.74-20.87-10.84 0 0 29.66 7.24 47.05.38l.63-.38-.01-1.05c-.02-2.32-.27-22.54-3.31-28.38-4-18.8-20.81-32.4-40.07-32.4-19.11 0-35.48 12.96-39.86 31.54-.52 1.47-7.05 20.2-4.66 35.35 2.54 16.08 30.02 39.51 34.05 40.22l1.17.03 4.97 5.33h5.97l19.97 12.53 11.55-21.17c3-.72 11-4.36 12.78-22.64l.05-.51zm-1.09-17.15c-3.96 1.99-7.99 3.76-12.07 5.38l-.2.08-.33-.01c-12.61-.48-25.2-1.87-37.63-4.21l-.64-.12-.2-.43c-1.28-2.79-2.55-5.59-3.66-8.47 1.84 2.21 3.53 4.5 5.21 6.81 12.43.27 24.7 1.45 36.96 3.52 4.13-1.02 8.31-1.89 12.56-2.55zm-49.69-35.04c1.35 0 2.44 1.09 2.44 2.44s-1.09 2.44-2.44 2.44-2.44-1.09-2.44-2.44 1.09-2.44 2.44-2.44zm2.41 5.47c.07-.09.11-.19.19-.28.06-.06.15-.09.22-.14 3.73-3.6 7.89-6.69 12.29-9.42 2.24-1.33 4.53-2.57 6.99-3.63 1.25-.49 2.51-.96 3.98-1.25.35-.08.78-.12 1.19-.15.49-.02.94.01 1.29.1.78.1 1.48.36 2.17.63 5.31 2.43 8.39 6.88 10.86 11.35-3.64-3.5-7.68-6.98-11.91-8.35-.33-.08-.64-.11-.96-.16 1.89 2.97 3.41 6.13 4.68 9.37 1.4 3.53 2.45 7.19 3.33 10.89 1.61 7.4 2.34 15.18.82 22.72-.9-3.74-1.56-7.38-2.35-11.01-.82-3.62-1.51-7.24-2.38-10.83-1.52-6.99-3.19-13.93-4.42-21.19-.08-.01-.17-.04-.25-.04-.53-.1-.72.02-1.3.14-1.01.28-2.12.76-3.2 1.29-2.19 1.01-4.35 2.26-6.46 3.55-3.79 2.28-7.46 4.8-11.04 7.43l4.03 9.54-7-7.29c-3.37 2.66-6.72 5.4-9.29 8.99 1.58-4.8 4.98-8.78 8.52-12.26zm-27.16 5.71c2.93-1.36 6.27-.57 8.69.71 2.47 1.36 4.5 3.16 6.14 5.21 1.65 2.04 2.99 4.31 3.79 6.83-4.21-3.07-7.84-6.41-11.78-8.5-1.94-1.06-3.89-1.64-5.82-1.31-1.99.37-3.82 1.92-5.9 3.58.67-2.45 1.99-5.16 4.88-6.52zm14.59 16.62c-3.24-2.39-5.77-4.95-8.52-6.53-1.34-.82-2.64-1.29-4.09-1.37-1.49-.08-3.08.6-5.05 1.28.77-1.82 2.19-3.68 4.5-4.36 2.29-.74 4.8-.09 6.67 1 1.87 1.16 3.34 2.66 4.41 4.37 1.07 1.7 1.85 3.57 2.08 5.61zm-13.81 23.13c-2.95.23-5.71-4.37-6.17-10.28s1.56-10.89 4.51-11.12 5.71 4.37 6.17 10.28-1.56 10.89-4.51 11.12zm9.82-.02c0-1.35 1.09-2.44 2.44-2.44s2.44 1.09 2.44 2.44-1.09 2.44-2.44 2.44-2.44-1.09-2.44-2.44zm4.51 7.62c-1.35 0-2.44-1.09-2.44-2.44s1.09-2.44 2.44-2.44 2.44 1.09 2.44 2.44c-.01 1.35-1.1 2.44-2.44 2.44zm37.6 24.94c-1.89-.43-3.71-1.07-5.52-1.73-3.61-1.36-7.01-3.08-10.43-4.89l-1.17-.62.69-1.3 2.13-4.03c-3.4-2.62-6.81-5.23-10.15-7.92l-.71-.57-.01-.93-.05-7.76c-4.31-3.71-8.64-7.4-12.88-11.21l-.37-.33-.15-.41c-.91-2.46-1.98-4.99-3.14-7.41-1.2-2.4-2.53-4.75-4.21-6.74-1.67-1.91-3.78-3.72-6.19-3.25-2.42.56-4.29 2.92-5.85 5.13 1.11-2.47 2.51-5.2 5.48-6.4 1.49-.55 3.22-.32 4.62.32 1.42.63 2.57 1.62 3.62 2.63 2.08 2.07 3.69 4.44 5.17 6.86 1.38 2.29 2.57 4.63 3.6 7.12 4.58 3.68 9.07 7.47 13.58 11.23l.71.6-.01.93-.06 7.78c3.42 2.82 6.78 5.71 10.15 8.58l1.14.97-.75 1.17-2.52 3.91c2.75 1.75 5.59 3.39 8.46 4.95 1.65.88 3.33 1.74 5.07 2.41 1.74.59 3.56 1.36 5.42.88-1.73.85-3.83.43-5.67.03z"/><path d="m83.67 74.71c1.43.97 2.81 1.98 4.15 3.04 1.78 1.4 3.43 2.94 5.09 4.47 1.55-3.15 3.21-6.25 5.21-9.2-3.68 1.74-8.44 2.7-14.45 1.69z"/></g></svg>