<svg viewBox="0 0 128 128" xmlns="http://www.w3.org/2000/svg"><g fill="#fff"><path d="m48.26 97.29-4.99-16.51s3.65-.96 3.45-2.5c-.09-.74-1.15-8.79-2.23-16.97-.66 1-1.33 1.95-1.99 2.9-.79 1.02-1.45 2.08-2.25 3.13-.78 1.07-1.48 2.19-2.51 3.5-1.28-3.04-.26-6.47 1.5-8.95.93-1.23 2.01-2.34 3.3-3.16.47-.31.99-.55 1.5-.79-.32-2.42-.63-4.77-.9-6.84-1.84 2.09-4.74 5.26-6.83 6.99-3.3 2.72-5.73.14-7.17 0-1.43-.14-14.48-13.76-15.48-16.48s1.15-7.6 1.15-7.6c7.02 9.6 12.61 10.03 15.05 12.66s5.16 1.67 6.59 1.53c.91-.09 3.82-2.08 5.84-3.52-.11-.84-.18-1.33-.18-1.33s4.45-3.23 8.83-36.44c-3.15 5.54-8.59 14.47-11.63 15.64-4.44 1.72-13.9-5.88-13.9-5.88s-11.79-10.74-16-15.91h-2.42s4.22 43.55 5.95 46.62 0 .96 0 .96-.19 11.32-.77 12.48c-.17.34-.1 2.32.07 4.92.43.12.85.26 1.25.43 1.42.57 2.63 1.49 3.72 2.5 2.05 2.15 3.55 4.87 3.47 8.05-1.41-.8-2.46-1.69-3.47-2.57-1.02-.87-1.91-1.77-2.83-2.65-.63-.64-1.24-1.27-1.85-1.92.48 5.81 1.17 12.34 1.17 12.34s4.41 1.73 5.57 0v5.37l.96 26.87s0 12.62 17.08 11.52c17.08-1.11 18.62-9.02 18.62-9.02s-.57-14.77-7.67-19.37zm-24.85 17.84v3.15s-2.15-3.01 1.29-13.33 22.93-7.31 22.93-4.87c0 0-21.93-4.73-24.22 15.05z"/><path d="m42.62 9.22c2.93-2.93 5.64-6.25 7.34-8.46h-30.78c3.17 2.96 11.63 10.69 13.83 11.04 2.73.43 4.73 2.29 9.61-2.58z"/><path d="m87.19 17.82c2.14-.63 9.52-7.5 11.34-9.22 1.88-3.8 3.41-7.26 3.09-7.84h-32.75c3.71 4.08 16.25 17.67 18.32 17.06z"/><path d="m101.66 87.88s-5.42-1.92-6.95-3.65c-1.12-1.26-5.28-5.95-9.97-8.57l.57-21.41s.13-.68.36-1.68l-5.93 7.09s-2.15 2.14-8.46-3.8-10.89-12.96-11.32-14.68-1.15-9.46 0-9.32c0 0 7.31 14.76 17.34 17.2 5.68 1.38 9.38-1.88 11.53-4.97 1.71-3.51 3.97-24.55 3.97-24.55s.46-.84 1.18-2.17c-2.28 3.07-4.88 6.03-6.78 7.32-4.44 3.01-6.31.86-6.31.86-9.33-5.14-18.76-20.48-21.28-24.79h-3.1l2.69 50.65s-6.53 17.47-5.76 23.61c.7 5.64-.73 6.74 2.02 6.89-.5 1.36-1.11 4.51-.48 11.35l.35 8.64s10.21 3.84 18.85 1.34c0 0 4.41-1.15 8.64 3.65 4.22 4.8 31.67 4.03 31.67 4.03s5.57-.19 6.53-4.99c-.01 0-.31-15.74-19.36-18.05zm-21.69-10.4c-1.26.39-2.57.66-3.89.9-1.44.16-2.93.2-4.42.08-1.06 1.03-2.07 1.52-3.18 2.07-1.32.59-2.68.94-4.02 1.18-1.85.32-3.66.36-5.46.29-.83-.03-1.67-.04-2.48-.12 1.67-.25 3.28-.67 4.85-1.18.85-.28 1.71-.54 2.5-.91.98-.45 1.89-.98 2.71-1.59.12-.09.27-.17.39-.27.15-.12.31-.26.46-.4-2.51-.92-4.9-2.48-6.44-4.72-1.67-2.32-2.48-5.19-2.02-7.85s0 0 0 0c.38.78.84 1.42 1.29 2.1.34.52.68 1.05 1.05 1.52 2.13 2.65 4.77 4.41 7.83 5.34 2.11.79 4.48.98 6.88 1.33 1.21.03 2.45.2 3.71.27 1.26.06 2.54.11 3.89.33-1.18.66-2.41 1.14-3.65 1.63zm10.51 21.46c1.58 5.02 4.94 6.88 4.94 6.88s-4.23-.72-7.24-7.52c-3.01-6.81 12.33-7.52 12.33-7.52s-11.6 3.14-10.03 8.16z"/></g></svg>