<?xml version="1.0" encoding="UTF-8" standalone="no"?>
<svg
   xmlns:dc="http://purl.org/dc/elements/1.1/"
   xmlns:cc="http://creativecommons.org/ns#"
   xmlns:rdf="http://www.w3.org/1999/02/22-rdf-syntax-ns#"
   xmlns:svg="http://www.w3.org/2000/svg"
   xmlns="http://www.w3.org/2000/svg"
   xmlns:sodipodi="http://sodipodi.sourceforge.net/DTD/sodipodi-0.dtd"
   xmlns:inkscape="http://www.inkscape.org/namespaces/inkscape"
   viewBox="0 0 512 512"
   id="svg4600"
   version="1.1"
   inkscape:version="0.91+devel+osxmenu r12897"
   sodipodi:docname="d.svg">
  <metadata
     id="metadata4608">
    <rdf:RDF>
      <cc:Work
         rdf:about="">
        <dc:format>image/svg+xml</dc:format>
        <dc:type
           rdf:resource="http://purl.org/dc/dcmitype/StillImage" />
      </cc:Work>
    </rdf:RDF>
  </metadata>
  <defs
     id="defs4606" />
  <sodipodi:namedview
     pagecolor="#ffffff"
     bordercolor="#666666"
     borderopacity="1"
     objecttolerance="10"
     gridtolerance="10"
     guidetolerance="10"
     inkscape:pageopacity="0"
     inkscape:pageshadow="2"
     inkscape:window-width="1298"
     inkscape:window-height="786"
     id="namedview4604"
     showgrid="false"
     inkscape:zoom="1.2560484"
     inkscape:cx="256"
     inkscape:cy="256"
     inkscape:window-x="131"
     inkscape:window-y="56"
     inkscape:window-maximized="0"
     inkscape:current-layer="svg4600" />
  <path
     style="fill:#0b9e17;fill-opacity:1"
     d="M 504,256 C 504,392.967 392.967,504 256,504 119.033,504 8,392.967 8,256 8,119.033 119.033,8 256,8 392.967,8 504,119.033 504,256 Z"
     id="path5218" />
  <path
     style="fill:#ffffff;fill-opacity:1"
     d="m 227.314,387.314 184,-184 c 6.248,-6.248 6.248,-16.379 0,-22.627 L 388.687,158.06 c -6.248,-6.249 -16.379,-6.249 -22.628,0 L 216,308.118 145.941,238.059 c -6.248,-6.248 -16.379,-6.248 -22.628,0 l -22.627,22.627 c -6.248,6.248 -6.248,16.379 0,22.627 l 104,104 c 6.249,6.249 16.379,6.249 22.628,0.001 z"
     id="path4602" />
</svg>
