<?xml version="1.0" encoding="utf-8"?>
<!-- Generator: Adobe Illustrator 16.0.0, SVG Export Plug-In . SVG Version: 6.00 Build 0)  -->
<!DOCTYPE svg PUBLIC "-//W3C//DTD SVG 1.1//EN" "http://www.w3.org/Graphics/SVG/1.1/DTD/svg11.dtd">
<svg version="1.1" id="Layer_1" xmlns="http://www.w3.org/2000/svg" xmlns:xlink="http://www.w3.org/1999/xlink" x="0px" y="0px"
	 width="485.55px" height="485.55px" viewBox="0 0 485.55 485.55" enable-background="new 0 0 485.55 485.55" xml:space="preserve">
<g>
	<path fill="#6D6D6D" d="M172.978,88.898c0,0-35.369-20.133-51.149-29.383c-15.779-9.25-59.854-7.073-81.619,23.398
		c-21.766,30.471-22.855,69.105,15.779,100.121c38.634,31.014,85.973,53.324,111.548,152.901c0,0,5.441,35.912,8.706,63.663
		c3.266,27.75,22.308,58.224,63.664,59.854c0,0,60.396,3.267,70.192-59.854c9.796-63.119,10.338-108.281,57.135-164.328
		c0,0,35.912-37,64.753-53.87c0,0,48.972-28.838,19.044-92.503c0,0-25.574-48.429-82.164-31.016c0,0-42.439,25.03-54.957,31.016
		l-0.547,131.68c0,0-0.542,53.87-60.398,63.119c0,0-66.382,5.985-79.442-60.399L172.978,88.898z"/>
	<path fill="#6D6D6D" d="M196.92,127.532v90.871c0,0,4.927,38.633,45.994,40.265c0,0,38.889-0.542,45.964-38.633v-92.503
		c0,0-8.165-38.634-45.981-38.09C242.897,89.442,205.625,89.987,196.92,127.532z"/>
</g>
<path fill="#FFFFFF" stroke="#000000" stroke-width="10" stroke-miterlimit="10" d="M456.471,3.025
	c0,0-86.71,55.532-170.391,352.852c0,0-27.284-99.552-40.019-130.708l-83.682,85.333c0,0,82.464,60.276,129.156,172.022
	c0,0,83.679-223.492,169.182-295.958C460.718,186.566,438.888,128.31,456.471,3.025z"/>
</svg>
