<svg version="1.1" xmlns="http://www.w3.org/2000/svg" x="0px" y="0px" viewBox="0 0 32 32" >
<g>
	<polygon fill="#FFFFFF" points="13.33,11.73 16.8,15.2 21.08,19.47 21.61,20.01 21.88,20.28 21.61,20.54 21.08,21.08 16.8,25.35
		16.27,25.88 16,26.15 15.73,25.88 15.2,25.35 10.92,21.08 7.45,17.6 4.78,20.28 16,31.5 27.22,20.27 16,9.05 	"/>
	<polygon fill="#FFFFFF" points="18.67,20.27 15.2,16.8 10.92,12.53 10.39,11.99 10.12,11.72 10.39,11.46 10.92,10.92 15.2,6.65
		15.73,6.12 16,5.85 16.27,6.12 16.8,6.65 21.08,10.92 24.55,14.4 27.22,11.73 16,0.5 4.78,11.72 16,22.95 	"/>

		<rect x="26.97" y="14.12" transform="matrix(0.7071 -0.7071 0.7071 0.7071 -2.8649 25.0838)" fill="#FFFFFF" width="3.75" height="3.75"/>

		<rect x="1.28" y="14.12" transform="matrix(0.7071 -0.7071 0.7071 0.7071 -10.3899 6.9176)" fill="#FFFFFF" width="3.75" height="3.75"/>
</g>
</svg>