<svg viewBox="0 0 329.81 329.81" xmlns="http://www.w3.org/2000/svg" xmlns:xlink="http://www.w3.org/1999/xlink"><linearGradient id="a" gradientUnits="userSpaceOnUse" x1="47.56" x2="331.31" y1="119.42" y2="119.42"><stop offset="0" stop-color="#38a7de"/><stop offset="1" stop-color="#84c265"/></linearGradient><linearGradient id="b" gradientTransform="matrix(.70710678 .70710678 -.70710678 .70710678 204.94 -164.94)" x1="66.26" x2="332.36" xlink:href="#a" y1="164.9" y2="164.9"/><path d="m136.45 119.42 36.97 36.97 45.48 45.48 5.69 5.69 2.83 2.83-2.83 2.83-5.69 5.68-45.48 45.49-5.68 5.68-2.83 2.83-2.83-2.83-5.69-5.68-45.48-45.49-36.97-36.97-28.46 28.46 119.43 119.42 119.42-119.42-119.42-119.42z" fill="#efefef"/><path d="m193.36 210.39-36.97-36.97-45.48-45.48-5.69-5.69-2.83-2.83 2.83-2.83 5.69-5.68 45.48-45.49 5.69-5.68 2.83-2.83 2.83 2.83 5.68 5.68 45.48 45.49 36.97 36.97 28.46-28.46-119.42-119.42-119.43 119.42 119.43 119.42z" fill="url(#a)"/><path d="m281.59 144.93h39.95v39.95h-39.95z" fill="url(#b)" transform="matrix(.70710678 -.70710678 .70710678 .70710678 -28.28 261.55)"/><path d="m8.27 144.93h39.95v39.95h-39.95z" fill="#efefef" transform="matrix(.70710678 -.70710678 .70710678 .70710678 -108.34 68.28)"/></svg>