<svg enable-background="new 0 0 921 921" viewBox="0 0 921 921" xmlns="http://www.w3.org/2000/svg"><g fill="#f37321"><path d="m552.6 460.5-92.1-92.1-92.1 92.1 92.1 92.1z"/><path d="m835.8 375.3-6.8-6.8-92.1-92.1-92.1-92.1-101.7-101.8-82.6-82.5-92.1 92.1 74.7 74.8 109.5 109.5 92.1 92.1 92.1 92.1-92.1 92.1-74.9 74.9-109.3 109.2-92.1-92.1-92.1-92.1-85-85-7.1-7.1 103.4-103.4 80.8-80.8-92.1-92.1-92.1 92.1-92.1 92.1-92.1 92.1 92.1 92.1 92.1 92.1 92.1 92.1 92.1 92.1 92.1 92.1 92.1-92.1 92.1-92.1 92.1-92.1 92.1-92.1 92.1-92.1-77.3-77.3z"/></g></svg>