<svg clip-rule="evenodd" fill-rule="evenodd" stroke-linecap="round" stroke-linejoin="round" stroke-miterlimit="1.5" viewBox="0 0 100 100" xmlns="http://www.w3.org/2000/svg"><path d="m45.658 4.492c2.442-1.409 5.45-1.409 7.891 0 7.723 4.459 24.753 14.291 32.476 18.75 2.442 1.41 3.946 4.015 3.946 6.834v37.5c0 2.819-1.504 5.424-3.946 6.834-7.723 4.459-24.753 14.291-32.476 18.75-2.441 1.409-5.449 1.409-7.891 0-7.723-4.459-24.753-14.291-32.475-18.75-2.442-1.41-3.946-4.015-3.946-6.834v-37.5c0-2.819 1.504-5.424 3.946-6.834 7.722-4.459 24.752-14.291 32.475-18.75z" fill="none" stroke="#fff" stroke-width="1" transform="matrix(.937285 .541142 -.541142 .937285 29.9289 -22.6066)" vector-effect="non-scaling-stroke"/></svg>
