<svg clip-rule="evenodd" fill-rule="evenodd" stroke-linecap="round" stroke-linejoin="round" stroke-miterlimit="1.5" viewBox="0 0 100 100" xmlns="http://www.w3.org/2000/svg"><path d="m39.749 7.904c6.098-3.521 13.611-3.521 19.71 0 5.413 3.126 12.184 7.035 17.972 10.376 7.759 4.48 12.54 12.76 12.54 21.72v20.752c0 7.042-3.757 13.549-9.855 17.07-6.278 3.624-14.38 8.302-20.657 11.926-6.099 3.521-13.612 3.521-19.71 0-5.414-3.126-12.185-7.035-17.972-10.376-7.76-4.48-12.54-12.76-12.54-21.72v-20.752c0-7.042 3.757-13.549 9.855-17.07 6.277-3.624 14.379-8.302 20.657-11.926z" fill="none" stroke="#fff" stroke-width=".94" transform="matrix(.920696 .531564 -.531564 .920696 30.5873 -21.3096)" vector-effect="non-scaling-stroke"/></svg>
