<?xml version="1.0" encoding="UTF-8" standalone="no"?>
<svg
   xmlns:dc="http://purl.org/dc/elements/1.1/"
   xmlns:cc="http://creativecommons.org/ns#"
   xmlns:rdf="http://www.w3.org/1999/02/22-rdf-syntax-ns#"
   xmlns:svg="http://www.w3.org/2000/svg"
   xmlns="http://www.w3.org/2000/svg"
   xmlns:sodipodi="http://sodipodi.sourceforge.net/DTD/sodipodi-0.dtd"
   xmlns:inkscape="http://www.inkscape.org/namespaces/inkscape"
   viewBox="0 0 100 100"
   x="0"
   y="0"
   version="1.1"
   id="svg2"
   inkscape:version="0.91 r13725"
   sodipodi:docname="engram_hover.svg">
  <metadata
     id="metadata10">
    <rdf:RDF>
      <cc:Work
         rdf:about="">
        <dc:format>image/svg+xml</dc:format>
        <dc:type
           rdf:resource="http://purl.org/dc/dcmitype/StillImage" />
        <dc:title></dc:title>
      </cc:Work>
    </rdf:RDF>
  </metadata>
  <defs
     id="defs8" />
  <sodipodi:namedview
     pagecolor="#ffffff"
     bordercolor="#666666"
     borderopacity="1"
     objecttolerance="10"
     gridtolerance="10"
     guidetolerance="10"
     inkscape:pageopacity="0"
     inkscape:pageshadow="2"
     inkscape:window-width="1680"
     inkscape:window-height="997"
     id="namedview6"
     showgrid="false"
     inkscape:zoom="2.36"
     inkscape:cx="-12.5"
     inkscape:cy="50"
     inkscape:window-x="-8"
     inkscape:window-y="-8"
     inkscape:window-maximized="1"
     inkscape:current-layer="svg2" />
  <path
     d="M33.62 23.176h32.76l9.412-13.48L50 1.316l-25.79 8.38 9.41 13.48zm37.985 3.742l10.14 31.202 15.052 4.37V35.317L80.96 13.52l-9.354 13.398zM50 77.984l25.436-18.48-9.715-29.902H34.28l-9.715 29.903L50 77.985zm3.214 5.61v15.088l25.71-8.353 15.8-21.75L79.83 64.25l-26.62 19.34zm-6.427 0L20.172 64.256 5.278 68.58l15.8 21.75 25.71 8.352V83.594zm-18.39-56.676l-9.357-13.4-15.836 21.8V62.49l15.053-4.37 10.14-31.202z"
     fill="#fff"
     stroke-width="1.126"
     fill-opacity="1"
     id="path4" />
  <path
     style="fill:#a0a0a0;stroke:none;stroke-width:1px;stroke-linecap:butt;stroke-linejoin:miter;stroke-opacity:1"
     d="M 28.813559,16.83925 C 26.366525,13.302385 24.309873,10.201068 24.243221,9.9474343 24.127601,9.5074636 48.608937,1.2703601 50.030513,1.2709228 c 0.728901,2.885e-4 25.439949,7.9566009 25.785656,8.3023081 0.24828,0.2482822 0.567344,-0.2506813 -4.841593,7.5715121 L 66.737288,23.272544 50,23.271228 33.262712,23.269912 28.813559,16.83925 Z"
     id="path3338"
     inkscape:connector-curvature="0" />
  <path
     style="fill:#a0a0a0;stroke:none;stroke-width:1px;stroke-linecap:butt;stroke-linejoin:miter;stroke-opacity:1"
     d="m 2.9661017,48.988289 0,-13.822415 8.0204093,-11.026775 8.020409,-11.026774 1.033145,1.388753 c 3.479838,4.677598 8.349766,11.995836 8.349766,12.547532 0,0.357744 -2.229877,7.545745 -4.955282,15.973335 L 18.479268,58.344839 11.46421,60.37489 C 7.6059284,61.491419 4.1154661,62.496242 3.7076271,62.607822 3.0124206,62.79803 2.9661017,61.947297 2.9661017,48.988289 Z"
     id="path3340"
     inkscape:connector-curvature="0" />
  <path
     style="fill:#a0a0a0;stroke:none;stroke-width:1px;stroke-linecap:butt;stroke-linejoin:miter;stroke-opacity:1"
     d="m 88.74967,60.460212 -7.224907,-2.150687 -4.957296,-15.31714 c -2.726514,-8.424428 -4.957298,-15.604483 -4.957298,-15.95568 0,-0.542187 4.898872,-7.896936 8.349766,-12.535627 l 1.033145,-1.388753 8.020409,11.026774 8.020409,11.026775 0,13.772995 c 0,10.762834 -0.11576,13.761962 -0.529661,13.722512 -0.291313,-0.02775 -3.780869,-1.018288 -7.754567,-2.201169 z"
     id="path3342"
     inkscape:connector-curvature="0" />
  <path
     style="fill:#a0a0a0;stroke:none;stroke-width:1px;stroke-linecap:butt;stroke-linejoin:miter;stroke-opacity:1"
     d="m 53.062475,91.011205 0.115491,-7.71761 13.275908,-9.667706 13.275907,-9.667706 7.603991,2.203246 c 4.182195,1.211785 7.551258,2.36124 7.486804,2.554345 -0.06445,0.193104 -3.623124,5.184081 -7.908159,11.091059 l -7.790974,10.73996 -12.610084,4.09101 c -6.935546,2.250056 -12.824799,4.091011 -13.087229,4.091011 -0.340471,0 -0.444064,-2.210653 -0.361655,-7.717609 z"
     id="path3344"
     inkscape:connector-curvature="0" />
  <path
     style="fill:#e8a534;stroke:none;stroke-width:1px;stroke-linecap:butt;stroke-linejoin:miter;stroke-opacity:1;fill-opacity:0.00392157"
     d="M 33.185317,94.553393 20.819786,90.466102 12.961086,79.661017 C 8.6388017,73.71822 5.0984177,68.748825 5.0935664,68.617916 5.088715,68.487007 8.5069441,67.388995 12.689631,66.177888 l 7.604885,-2.202011 13.263759,9.658859 13.263759,9.658859 0.115491,7.71761 c 0.107183,7.162298 0.06145,7.714438 -0.635593,7.673544 -0.413097,-0.02424 -6.315574,-1.883346 -13.116615,-4.131356 z"
     id="path3346"
     inkscape:connector-curvature="0" />
  <path
     style="fill:#e8a534;fill-opacity:0.00392157"
     d="M 3.2627119,62.20339 C 2.887991,61.828669 2.7586158,58.178309 2.7708827,48.326271 L 2.7875281,34.957627 10.715798,24.052799 c 4.360548,-5.997655 8.118948,-10.900376 8.351999,-10.894936 0.433666,0.01012 0.95236,0.702139 5.60847,7.482531 2.647852,3.855895 4.130174,6.979719 3.575319,7.534574 -0.157017,0.157016 -0.309319,0.460272 -0.33845,0.673902 -0.02913,0.21363 -0.09269,0.436088 -0.141243,0.49435 -0.04855,0.05826 -0.136658,0.487288 -0.19579,0.95339 -0.109671,0.864471 -8.69193,27.849221 -8.939694,28.108615 -0.156874,0.164237 -14.2001651,4.306639 -14.6000775,4.306639 -0.1458298,0 -0.4939586,-0.228813 -0.7736196,-0.508474 z"
     id="path4148"
     inkscape:connector-curvature="0" />
  <path
     style="fill:#e8a534;fill-opacity:0.00392157"
     d="m 28.668162,16.98523 c -2.367065,-3.475921 -4.303755,-6.488463 -4.303755,-6.694539 0,-0.206076 0.713841,-0.6328122 1.586314,-0.9483024 C 26.823193,9.0268983 28.205608,8.4758144 29.022755,8.1177572 29.8399,7.7597 30.603814,7.452239 30.720339,7.4345106 c 0.116525,-0.017729 0.450212,-0.183575 0.741525,-0.3685487 0.291314,-0.1849733 0.532581,-0.1820534 0.53615,0.00649 0.0036,0.1885419 0.146577,0.1351631 0.317797,-0.1186195 0.535396,-0.7935678 14.987639,-5.3305489 17.366392,-5.4518169 1.223517,-0.062374 2.224577,0.062104 2.224577,0.2766188 0,0.2145148 0.170635,0.2845684 0.379189,0.1556748 0.503211,-0.3110012 22.548209,6.8792389 23.295713,7.5981758 0.48917,0.4704788 -0.145703,1.6101338 -3.992021,7.1660268 l -4.573699,6.606576 -17.022022,0 -17.022023,0 -4.303755,-6.319855 z"
     id="path4150"
     inkscape:connector-curvature="0" />
  <path
     style="fill:#e8a534;fill-opacity:0.00392157"
     d="M 90.677966,61.263576 C 88.114407,60.498822 84.95266,59.55425 83.651862,59.164521 L 81.286775,58.455928 76.986922,44.980941 c -2.364919,-7.411244 -4.362454,-13.885185 -4.438965,-14.386537 -0.07651,-0.501351 -0.258007,-1.030443 -0.403323,-1.175758 -0.145315,-0.145315 -0.161608,-0.531585 -0.03621,-0.858377 0.125402,-0.326792 0.02684,-0.594167 -0.219018,-0.594167 -0.782912,0 0.339343,-2.552461 2.701944,-6.145308 3.400768,-5.171604 6.127687,-8.75723 6.546398,-8.607856 0.207391,0.07399 3.910135,4.996808 8.22832,10.939604 l 7.851244,10.805085 0.01423,12.797859 c 0.01406,12.649734 -0.211601,15.003836 -1.430912,14.927463 -0.253905,-0.0159 -2.559104,-0.654623 -5.122663,-1.419373 z"
     id="path4152"
     inkscape:connector-curvature="0" />
  <path
     style="fill:#e8a534;fill-opacity:0.00392157"
     d="m 53.495763,98.267682 c -0.65848,-0.380454 -0.741526,-1.203828 -0.741526,-7.351964 0,-5.971814 0.101931,-7.046045 0.741526,-7.814811 1.218649,-1.464765 25.677254,-19.091246 26.510324,-19.105085 1.003244,-0.01667 12.227575,3.33892 12.82951,3.835464 0.254494,0.209935 0.58818,0.256236 0.741525,0.102891 0.153346,-0.153345 0.27881,-0.05635 0.27881,0.21554 0,0.271893 0.299001,0.494351 0.664445,0.494351 0.779458,0 1.456462,-1.021834 -8.238387,12.434512 -3.835874,5.324151 -7.180831,9.747148 -7.433238,9.828882 -4.950714,1.603144 -23.144815,7.389824 -23.764006,7.558203 -0.466102,0.126749 -1.181144,0.03766 -1.588983,-0.197983 z"
     id="path4154"
     inkscape:connector-curvature="0" />
  <path
     style="fill:#e8a534;fill-opacity:1"
     d="M 38.559322,96.247491 C 34.597458,94.924415 29.030089,93.107535 26.187391,92.209978 L 21.01885,90.578056 13.475526,80.215748 C 9.3266987,74.516479 5.7482696,69.590477 5.5234617,69.269078 5.2986538,68.947678 5.2107583,68.588677 5.3281384,68.471297 c 0.1173802,-0.11738 3.519865,-1.157478 7.5610776,-2.311329 l 7.347659,-2.09791 13.269366,9.600327 13.269366,9.600327 0.02321,7.733051 c 0.01782,5.935591 -0.0999,7.724249 -0.506447,7.695184 -0.291314,-0.02083 -3.771187,-1.120381 -7.733051,-2.443456 z"
     id="path4156"
     inkscape:connector-curvature="0" />
  <path
     style="fill:#e8a534;fill-opacity:1"
     d="m 53.495763,98.267682 c -0.65848,-0.380454 -0.741526,-1.203828 -0.741526,-7.351964 0,-5.969153 0.102216,-7.047351 0.741526,-7.821798 0.407839,-0.494048 3.506356,-2.901428 6.885593,-5.349734 3.379237,-2.448306 9.034447,-6.546141 12.567132,-9.1063 3.532685,-2.560159 6.738815,-4.654835 7.124731,-4.654835 0.980614,0 12.197431,3.382202 12.762378,3.848235 0.254494,0.209935 0.58818,0.256236 0.741525,0.102891 0.153346,-0.153345 0.27881,-0.07033 0.27881,0.184471 0,0.254805 0.272845,0.524932 0.606322,0.600283 0.409293,0.09248 -0.828854,2.133567 -3.810173,6.281069 -2.429072,3.379237 -5.967309,8.304338 -7.862749,10.944668 -1.89544,2.64033 -3.660735,4.870531 -3.922878,4.956001 -3.640097,1.186839 -23.155316,7.394659 -23.781708,7.564996 -0.466102,0.126749 -1.181144,0.03766 -1.588983,-0.197983 z"
     id="path4158"
     inkscape:connector-curvature="0" />
  <path
     style="fill:#e8a534;fill-opacity:1"
     d="M 88.432243,60.618644 C 84.633536,59.493826 81.46235,58.503593 81.385162,58.418119 81.138925,58.145449 72.69802,31.577713 72.550489,30.611 c -0.0779,-0.510479 -0.260539,-1.047039 -0.405855,-1.192354 -0.145315,-0.145315 -0.161608,-0.531585 -0.03621,-0.858377 0.125402,-0.326792 0.02684,-0.594167 -0.219018,-0.594167 -0.782912,0 0.339343,-2.552461 2.701944,-6.145308 3.403009,-5.175013 6.127749,-8.757164 6.547509,-8.607856 0.208003,0.07399 2.707675,3.376045 5.554827,7.337909 2.847152,3.961865 6.383273,8.824153 7.858046,10.805085 l 2.681406,3.601695 0.0063,12.797859 c 0.0062,12.644768 -0.220303,14.995811 -1.438823,14.932328 -0.253906,-0.01322 -3.569679,-0.944356 -7.368386,-2.06917 z"
     id="path4160"
     inkscape:connector-curvature="0" />
  <path
     style="fill:#e8a534;fill-opacity:1"
     d="m 28.680059,16.982041 c -2.373609,-3.477674 -4.315652,-6.490216 -4.315652,-6.694538 0,-0.204323 0.713841,-0.6296242 1.586314,-0.9451144 C 26.823193,9.0268983 28.205608,8.4758144 29.022755,8.1177572 29.8399,7.7597 30.603814,7.452239 30.720339,7.4345106 c 0.116525,-0.017729 0.450212,-0.183575 0.741525,-0.3685487 0.291314,-0.1849733 0.532581,-0.1820534 0.53615,0.00649 0.0036,0.1885419 0.146577,0.1362966 0.317797,-0.1161009 0.52598,-0.7753555 15.31314,-5.3958253 17.529481,-5.477348 1.133818,-0.041705 2.061488,0.096407 2.061488,0.3069156 0,0.2105084 0.170635,0.2772841 0.379189,0.1483905 0.503846,-0.3113939 22.548717,6.8797139 23.297137,7.5996004 0.491072,0.4723502 -0.141521,1.6033912 -4.007958,7.1660262 l -4.591059,6.605152 -16.994189,0 -16.994189,0 -4.315652,-6.323044 z"
     id="path4162"
     inkscape:connector-curvature="0" />
  <path
     style="fill:#e8a534;fill-opacity:1"
     d="M 3.2627119,62.20339 C 2.8888281,61.829504 2.7542373,58.173966 2.7542373,48.393008 l 0,-13.301908 5.5809284,-7.693855 c 3.0695113,-4.23162 6.6447233,-9.165324 7.9449153,-10.963786 1.300193,-1.798462 2.554665,-3.272716 2.787716,-3.27612 0.23305,-0.0034 0.995762,0.827279 1.694915,1.845963 5.57666,8.125338 6.73546,9.941629 7.221261,11.318537 0.304204,0.862205 0.424629,1.696112 0.267613,1.853129 -0.157017,0.157016 -0.309319,0.460272 -0.33845,0.673902 -0.02913,0.21363 -0.09269,0.436088 -0.141243,0.49435 -0.04855,0.05826 -0.13639,0.487288 -0.195194,0.95339 C 27.469548,31.145926 18.872588,58.13 18.618868,58.413381 18.484634,58.563309 4.4486171,62.681614 4.0042373,62.701458 3.8760593,62.707182 3.5423729,62.483051 3.2627119,62.20339 Z"
     id="path4164"
     inkscape:connector-curvature="0" />
</svg>
