<svg viewBox="0 -85 1025 939" xmlns="http://www.w3.org/2000/svg"><path d="m512 653q-47 0-88-18t-72-48.5-48.5-71.5-17.5-88q0-47 17.5-88.5t48.5-72 72-48.5 88-18q47 0 88 18t72 48.5 48.5 72 17.5 88.5q0 47-17.5 88t-48.5 71.5-72 48.5-88 18zm0-46q75 0 127.5-53t52.5-127q0-75-52.5-127.5t-127.5-52.5-127.5 52.5-52.5 127.5q0 74 52.5 127t127.5 53zm53-180q0-22-15.5-37.5t-37.5-15.5-37.5 15.5-15.5 37.5 15.5 37.5 37.5 15.5 37.5-15.5 15.5-37.5zm-506 512v-35l289-288q-18-14-2-.5t42 28.5l-293 295zm870 0-294-294q-18 12 .5 1t40.5-30l289 288v35zm-870-96v-34l244-244q-13-19-1-1t33 40l-240 239zm870 0-240-239q-16 17-1 2t32-40l245 243v34zm-417-106-25-25v-36q4 0 11 .5t14 .5h13.5t12.5-1l-1 35zm-400-245-25-24 26-25h149q0 7 2.5 21.5t6.5 29.5zm801 0h-159q2-4 4.5-18t3.5-31h150l25 25zm-801-80-25-25 26-25h157q-2 4-4.5 18t-3.5 31zm801 0-151-1q0-7-2.5-21.5t-6.5-29.5l159 2 25 25-24 24zm-610-124-244-244v-34h36l240 240q16-18 1-3t-32 40zm418 0q13 19 1 1t-33-39l240-240h36v34zm-45-50q18 14 2 0t-42-29l293-294h36v34zm-328-1-289-288v-34h36l294 293q18-11-.5-.5t-40.5 30.5zm189-59q-4-1-11-1.5t-14-.5-13.5.5-12.5.5l1-34 25-25 25 26z" fill="#fff"/></svg>