<svg xmlns="http://www.w3.org/2000/svg" xmlns:xlink="http://www.w3.org/1999/xlink" viewBox="0 -85 1025 939">
  <path fill="white" d="M512 653v0v0q-47 0 -88 -18t-72 -48.5t-48.5 -71.5t-17.5 -88v0v0v0v0q0 -47 17.5 -88.5t48.5 -72t72 -48.5t88 -18v0v0v0v0q47 0 88 18t72 48.5t48.5 72t17.5 88.5v0v0v0v0q0 47 -17.5 88t-48.5 71.5t-72 48.5t-88 18v0v0v0zM512 607q75 0 127.5 -53t52.5 -127
q0 -75 -52.5 -127.5t-127.5 -52.5t-127.5 52.5t-52.5 127.5q0 74 52.5 127t127.5 53v0zM565 427q0 -22 -15.5 -37.5t-37.5 -15.5t-37.5 15.5t-15.5 37.5t15.5 37.5t37.5 15.5t37.5 -15.5t15.5 -37.5zM59 939v-35l289 -288q-18 -14 -2 -0.5t42 28.5l-293 295h-36v0zM929 939
l-294 -294q-18 12 0.5 1t40.5 -30l289 288v35h-36v0zM59 843v-34l244 -244q-13 -19 -1 -1t33 40l-240 239h-36v0zM929 843l-240 -239q-16 17 -1 2t32 -40l245 243v34h-36zM512 737l-25 -25v-36q4 0 11 0.5t14 0.5h13.5t12.5 -1l-1 35l-25 26v0zM112 492l-25 -24l26 -25h149
q0 7 2.5 21.5t6.5 29.5l-159 -2v0zM913 492h-159q2 -4 4.5 -18t3.5 -31h150l25 25l-24 24v0zM112 412l-25 -25l26 -25h157q-2 4 -4.5 18t-3.5 31l-150 1v0zM913 412l-151 -1q0 -7 -2.5 -21.5t-6.5 -29.5l159 2l25 25l-24 24v1zM303 288l-244 -244v-34h36l240 240
q16 -18 1 -3t-32 40zM721 288q13 19 1 1t-33 -39l240 -240h36v34l-244 244v0zM676 238q18 14 2 0t-42 -29l293 -294h36v34l-289 289v0zM348 237l-289 -288v-34h36l294 293q18 -11 -0.5 -0.5t-40.5 30.5v-1zM537 178q-4 -1 -11 -1.5t-14 -0.5t-13.5 0.5t-12.5 0.5l1 -34
l25 -25l25 26v34v0z" />
</svg>
