<svg width="96" height="96" xmlns="http://www.w3.org/2000/svg" version="1.1">
  <title>kinetic_slot</title>
  <polygon fill="#4d88fe" points="16.172791799101503,5.5518595155412385 0.6383012533187866,26.827038818638968 26.472353588774183,64.98752456795562 30.69383549222397,59.2468279676156 30.69383549222397,23.7873777079473 16.172791799101503,5.5518595155412385"/>
  <polygon fill="#4d88fe" points="34.40890606140778,0.48596927523612976 34.40890606140778,30.541516696456412 43.69566545375159,42.02351031086589 53.65784202695062,28.85329036120463 34.40890606140778,0.48596927523612976"/>
  <path fill="#ffffff" id="svg_1" d="m93.23138,93.15446c-0.39088,0.11743 -0.58548,-0.07549 -0.7935,-0.17279c-5.7139,-2.72274 -11.46135,-5.37503 -16.96891,-8.5071c-0.15266,-0.08724 -0.34223,-0.18118 -0.53683,-0.26338l-0.03858,-0.0151c-0.93778,-0.39759 -1.36892,-0.26506 -1.88898,0.63413c-0.21138,0.37075 -0.43785,0.82873 -0.63917,1.29846l-0.03691,0.09562c-1.24142,2.77475 -2.47278,5.55621 -3.72091,8.33095c-0.09562,0.21306 -0.13421,0.47644 -0.42108,0.65594c-0.45798,-0.95791 -0.91597,-1.89736 -1.35718,-2.84353q-1.60714,-3.42901 -3.20925,-6.86306c-0.1426,-0.31874 -0.28351,-0.58213 -0.44121,-0.83544l0.01678,0.0302c-0.44121,-0.69956 -0.9361,-0.86732 -1.70947,-0.56032c-0.35565,0.15937 -0.64923,0.31371 -0.93107,0.48315l0.03858,-0.02181c-5.53775,3.00458 -11.12751,5.91018 -16.70217,8.82585c-0.10569,0.08724 -0.24325,0.13924 -0.39256,0.13924c-0.01678,0 -0.03523,0 -0.05201,-0.00168l0.00168,0c-0.20299,-0.21641 0.04697,-0.38585 0.12079,-0.55025c2.6959,-5.79107 5.34315,-11.60898 8.54233,-17.15009c0.07549,-0.13253 0.15098,-0.26506 0.21306,-0.4043c0.4865,-1.09883 0.1946,-1.89233 -0.91597,-2.38219c-1.03005,-0.45295 -2.08358,-0.85222 -3.11362,-1.31691c-2.26644,-1.01998 -4.52448,-2.07687 -6.78589,-3.11866c0.10401,-0.36572 0.41772,-0.37914 0.64923,-0.48986q4.39699,-2.10203 8.82249,-4.18225c0.13756,-0.06543 0.27848,-0.12414 0.41437,-0.18286c1.35047,-0.66936 1.53333,-1.21458 0.79854,-2.52646c-1.75141,-3.15221 -3.41895,-6.33461 -5.07474,-9.52037q-1.95944,-3.76453 -3.89538,-7.54416c-0.08724,-0.17112 -0.27848,-0.32545 -0.20131,-0.56535c0.27848,-0.1275 0.47308,0.08388 0.67439,0.18286c5.76255,2.75629 11.54188,5.48239 17.12157,8.60944c0.02516,0.0151 0.04697,0.03691 0.07549,0.05201c1.4226,0.76331 1.94266,0.60226 2.62544,-0.8908c1.40079,-3.07001 2.78146,-6.15343 4.17051,-9.23015c0.12246,-0.27009 0.17112,-0.5838 0.49154,-0.82873c0.58213,1.28169 1.15587,2.53653 1.72122,3.79641q1.33034,2.95593 2.64893,5.91521c0.04865,0.1124 0.09898,0.22312 0.15098,0.33384c0.71969,1.53333 1.28169,1.71786 2.78314,0.87235c5.51259,-3.11362 11.17448,-5.94541 16.8196,-8.80907c0.15266,-0.07717 0.29358,-0.21641 0.5016,-0.18286c0.12246,0.27009 -0.08891,0.46134 -0.18286,0.66097c-2.69087,5.76087 -5.35657,11.54188 -8.47355,17.08634c-0.0151,0.02684 -0.03691,0.05033 -0.04865,0.07717c-0.7415,1.40079 -0.60058,1.90575 0.85054,2.56505c3.10188,1.41254 6.14672,2.94251 9.20163,4.44899l0.50663,0.26171c-0.12414,0.34223 -0.46637,0.35565 -0.71633,0.46637c-2.88379,1.30014 -5.77597,2.5835 -8.66312,3.87525c-1.83194,0.81867 -1.9997,1.33201 -1.01998,3.06329c3.18073,5.62331 6.036,11.40767 8.96844,17.19706l0.00168,0.00168l0.00001,-0.00001zm-39.01759,-38.61664c-0.02684,-0.08388 -0.09227,-0.15266 -0.15769,-0.07717s0.01174,0.12414 0.09395,0.13756c0.08052,0.52341 0.39591,0.94952 0.63078,1.40079c1.60043,3.11362 3.22099,6.20376 4.84323,9.32074c-2.13055,1.01327 -4.25607,2.02654 -6.47217,3.08343c2.19765,1.14244 4.36511,2.07854 6.50908,3.05491c-1.9997,3.59006 -3.69575,7.22542 -5.31295,10.89432l0.15937,0.13253c3.52296,-1.85207 7.04591,-3.70246 10.6041,-5.57466l3.1304,6.61477l2.98613,-6.63826c3.60013,1.97789 7.23213,3.70078 10.9782,5.39851c-0.02013,-0.11911 -0.0453,-0.22312 -0.07549,-0.32378l0.00503,0.01678c-1.65747,-3.32332 -3.3099,-6.64665 -5.0999,-9.8928c-0.36572,-0.66768 -0.36572,-0.66936 0.35397,-0.99314c1.38905,-0.61903 2.78314,-1.22968 4.16715,-1.8571c0.48147,-0.21977 0.99985,-0.36572 1.535,-0.77673l-6.39165,-3.14717q2.98277,-5.41864 5.48071,-11.02853c-3.72091,1.76483 -7.35291,3.59174 -10.96478,5.59647l-3.05826,-6.7775c-1.04682,2.31005 -2.04667,4.51442 -3.05994,6.75066c-3.22099,-1.78496 -6.46379,-3.32668 -9.70994,-4.85329c-0.38081,-0.17447 -0.73647,-0.4345 -1.176,-0.46302l0.00168,0.00168l-0.00001,0z"/>
  <path d="m68.1949,62.9644c2.9358,0.0151 5.3096,2.39897 5.3096,5.33644c0,2.94754 -2.3889,5.33644 -5.33644,5.33644s-5.33644,-2.3889 -5.33644,-5.33644c0,0 0,-0.00168 0,-0.00168l0,0c0.01007,-2.94922 2.40232,-5.33476 5.35322,-5.33476c0.00336,0 0.00839,0 0.01174,0l0,0l-0.00168,0zm1.4981,5.29786c-0.02013,-0.81028 -0.6811,-1.46119 -1.49474,-1.46119c-0.82538,0 -1.49474,0.66936 -1.49474,1.49474c0,0.01174 0,0.02516 0,0.03691l0,-0.00168c0.03187,0.80525 0.69285,1.44777 1.50313,1.44777c0.02516,0 0.05033,0 0.07381,-0.00168l-0.00336,0c0.7935,-0.05704 1.41589,-0.71466 1.41589,-1.51823c0,0 0,0 0,0l0,0l0,0.00336l0.00001,0z" fill="#ffffff"/>
</svg>
