<svg enable-background="new 0 0 932.2 332" viewBox="0 0 932.2 332" xmlns="http://www.w3.org/2000/svg"><g fill="#fff"><path d="m379.5 62.2v42.7h170.7v128.1h-128v-85.4h-42.7v128.1h213.4v-213.5z"/><path d="m899.3 62.3-72.3 66.7-72.9-66.7h-33.1v213.3h42.4v-151.1l63.6 58.4 62.8-58.2v150.9h42.4v-213.3z"/><path d="m635.5 62.4h42.8v213.3h-42.8z"/></g><g fill="#f37423"><path d="m138.3 143.2h45.5v45.5h-45.5z" transform="matrix(.7071 -.7071 .7071 .7071 -70.2059 162.4737)"/><path d="m161 5-32.2 32.2 128.9 128.8-96.7 96.6-96.6-96.6 64.4-64.4-32.2-32.2-96.6 96.6 161 161 161.1-161z"/></g></svg>