<svg xmlns="http://www.w3.org/2000/svg" width="932.207" height="331.982" viewBox="0 0 932.20697 331.98199"><linearGradient id="a" gradientUnits="userSpaceOnUse" x1="218.51" y1="229.069" x2="170.643" y2="181.202"><stop offset="0" stop-color="#fff"/><stop offset="1" stop-color="#c9cacc"/></linearGradient><path transform="translate(-21.259 -31.824)" fill="url(#a)" d="M220.453 197.812l-33.199-33.194-33.198 33.194 33.198 33.201z"/><linearGradient id="b" gradientUnits="userSpaceOnUse" x1="271.619" y1="282.185" x2="104.132" y2="114.698"><stop offset="0" stop-color="#fbb040"/><stop offset="1" stop-color="#f36e21"/></linearGradient><path transform="translate(-21.259 -31.824)" fill="url(#b)" d="M322.512 167.083l-2.467-2.465-33.199-33.197-33.197-33.2-36.645-36.645-29.752-29.752-33.2 33.198 26.945 26.945 39.454 39.454 33.198 33.194-.003.003 33.2 33.198-33.2 33.197.003.002-26.983 26.981-39.414 39.413-33.2-33.198-33.196-33.198v.002L90.21 200.37l-2.554-2.554 37.268-37.269 29.128-29.13-33.196-33.196-33.2 33.196-33.198 33.201-33.199 33.198 33.2 33.197 33.201 33.198-.004.002 33.2 33.196 33.196 33.201 33.2 33.196 33.199-33.196 33.2-33.201 33.195-33.198 33.199-33.198 33.2-33.197-27.871-27.87z"/><path fill="#f2f2f2" d="M736.95 52.484h-36.365v224.422l46.55.002V120.76l69.653 63.971 68.868-63.817v155.994l46.551-.002V52.484h-36.081l-79.266 73.207zM626.782 52.487h44.881v224.422h-44.881zM556.131 52.486H373.255v44.885H552.799l-.005 44.884h.005v36.48l-.005 53.29H418.14V142.255h-44.885V276.91l44.885-.002h44.887v.002l44.882-.002h44.89v.002l44.88-.002v-89.769.002V52.486h-37.68z"/></svg>