<svg version="1.1" id="Layer_1" xmlns="http://www.w3.org/2000/svg" xmlns:xlink="http://www.w3.org/1999/xlink" x="0px" y="0px" viewBox="0 0 932.2 332" style="enable-background:new 0 0 932.2 332;" xml:space="preserve"><g><g><polygon fill="#F37423" points="379.5,62.2 379.5,104.9 550.2,104.9 550.2,233 422.2,233 422.2,147.6 379.5,147.6 379.5,275.7 592.9,275.7 592.9,62.2"/><polygon fill="#F37423" points="899.3,62.3 827,129 754.1,62.3 721,62.3 721,275.6 763.4,275.6 763.4,124.5 827,182.9 889.8,124.7 889.8,275.6 932.2,275.6 932.2,62.3"/><rect x="635.5" y="62.4" fill="#F37423" width="42.8" height="213.3"/></g><g><rect x="138.3" y="143.2" transform="matrix(0.7071 -0.7071 0.7071 0.7071 -70.2059 162.4737)" fill="#F37423" width="45.5" height="45.5"/><polygon fill="#F37423" points="161,5 128.8,37.2 257.7,166 161,262.6 64.4,166 128.8,101.6 96.6,69.4 0,166 161,327 322.1,166"/></g></g></svg>