<svg clip-rule="evenodd" fill-rule="evenodd" stroke-linejoin="round" stroke-miterlimit="2" viewBox="0 0 96 96" xmlns="http://www.w3.org/2000/svg"><path d="m0 0h96v96h-96z" fill="#ceae32"/><path d="m256 8c-136.966 0-248 111.033-248 248s111.034 248 248 248 248-111.034 248-248-111.033-248-248-248zm130.108 117.892c65.448 65.448 70 165.481 20.677 235.637l-256.315-256.313c70.204-49.356 170.226-44.735 235.638 20.676zm-260.216 260.216c-65.448-65.448-70-165.481-20.677-235.637l256.315 256.313c-70.203 49.356-170.226 44.736-235.638-20.676z" fill="#6f0c0c" fill-rule="nonzero" transform="matrix(.152407 0 0 .152407 8.98388 8.98388)"/></svg>