<svg viewBox="0 0 32 32" xmlns="http://www.w3.org/2000/svg"><path d="m15.12 31.97c-12.3-.64-19.28-14.6-12.43-24.85 6.33-9.49 20.31-9.5 26.6-.02 6.88 10.35-.1 24.23-12.5 24.87-.8.04-.84.04-1.67 0zm2.36-3.62a12.46 12.46 0 0 0 7.85-20.58c-6.11-7-17.56-4.95-20.94 3.73-3.37 8.7 3.86 18 13.09 16.85zm-1.8-5.4a13.78 13.78 0 0 0 -6.64-6.64c-.75-.36-.73-.3-.15-.57a13.99 13.99 0 0 0 6.84-6.83c.3-.62.24-.62.51-.04a13.91 13.91 0 0 0 6.83 6.85c.63.3.64.23-.12.59a13.78 13.78 0 0 0 -6.63 6.63l-.32.64c-.01 0-.16-.29-.32-.64z" fill="#fff"/></svg>