<?xml version="1.0" encoding="UTF-8" standalone="no"?>
<!DOCTYPE svg PUBLIC "-//W3C//DTD SVG 1.1//EN" "http://www.w3.org/Graphics/SVG/1.1/DTD/svg11.dtd">
<svg width="100%" height="100%" viewBox="0 0 96 96" version="1.1" xmlns="http://www.w3.org/2000/svg" xmlns:xlink="http://www.w3.org/1999/xlink" xml:space="preserve" xmlns:serif="http://www.serif.com/" style="fill-rule:evenodd;clip-rule:evenodd;stroke-linejoin:round;stroke-miterlimit:2;">
    <g transform="matrix(1.60098,0,0,1.60098,-35.0658,-22.4911)">
        <path d="M75.003,16.596C71.429,17.97 68.169,19.431 67.757,19.843C67.345,20.255 68.988,22.535 71.408,24.91C75.755,29.176 75.822,29.201 76.991,27.016C78.129,24.89 82.099,13.948 81.696,14.049C81.588,14.076 78.576,15.222 75.003,16.596"/>
    </g>
    <g transform="matrix(1.3671,0,0,1.3671,-17.5923,-17.5213)">
        <path d="M46.25,21.662C44.274,22.46 44.69,25.988 47.586,31.309L50.108,35.639L46.322,39.517L41.973,43.496L43.961,46.872C44.922,48.499 47.039,50.616 48.666,51.577L52.322,53.679L56.689,49.864L60.492,46.15L65.031,49.071C72.14,53.237 76.745,51.981 75.005,46.247C73.445,41.107 70.568,39.295 70.192,39.248C69.767,39.194 72.29,43.719 71.839,44.703C71.116,46.283 70.187,45.487 66.765,43.708C61.574,41.009 55.757,33.715 52.619,29.33C50.666,26.601 51.063,24.564 52.094,24.061C52.52,23.854 56.932,26.111 57.073,26.146C58.94,26.603 53.18,21.809 51.507,21.252C48.952,20.4 47.986,20.366 46.25,21.662"/>
    </g>
    <g transform="matrix(1.3671,0,0,1.3671,-17.5923,-17.5213)">
        <path d="M60.101,25.737L56.405,29.425L58.974,33.039C60.309,34.745 62.586,36.708 63.803,37.715C66.81,40.206 66.42,40.247 70.116,36.332L73.798,32.633L68.755,27.227L63.824,21.996L60.101,25.737"/>
    </g>
    <g transform="matrix(1.3671,0,0,1.3671,-17.5923,-17.5213)">
        <path d="M24.945,28.925C23.25,30.165 23.543,32.294 24.624,35.902C25.287,38.117 27.471,41.925 29.939,45.278C32.407,48.631 34.78,50.723 34.78,50.997C34.78,51.27 31.93,51.105 30.235,51.614C27.622,52.4 25.652,53.783 19.867,59.612L12.921,66.612L18.47,66.612C25.991,66.612 30,68.41 30,76.038L29.674,82.642L36.674,75.696C42.503,69.911 44.486,68.662 44.486,65.933C44.486,64.131 44.557,61.668 44.83,61.668C45.104,61.668 47.626,63.837 50.933,66.271C53.055,67.834 55.161,69.223 57.049,70.246C60.808,72.283 64.511,72.516 66.128,71.897C68.979,70.803 68.453,65.2 64.134,58.732C60.566,53.389 57.073,50.402 57.073,51.531C57.073,51.699 58.404,53.991 59.779,55.855C62.345,59.333 63.495,63.024 61.741,64.108C58.783,65.936 42.063,51.842 35.408,42.172C28.294,31.833 31.324,29.922 42.29,37.125C44.163,38.355 43.722,38.404 41.79,36.101C36.508,29.804 27.957,26.693 24.945,28.925"/>
    </g>
    <g transform="matrix(1.61195,0,0,1.54152,-22.5756,-30.6815)">
        <path d="M20.223,70.671C18.857,71.22 15,78.16 15,80.069C15,81.485 19.509,80.505 22.804,78.374C26.016,76.296 26.544,74.259 24.466,71.963C22.615,69.917 22.322,69.827 20.223,70.671"/>
    </g>
</svg>
