<svg viewBox="0 0 31.220833 31.220833" xmlns="http://www.w3.org/2000/svg">
<path d="m 0,0 0.03514,14.1273 h 4.0659013 c 4.520975,0.0848 4.758349,0.0895 6.0740467,-1.70738 1.179897,-1.61149 1.731161,-3.60606 1.731161,-6.26319 V 3.80855 h 2.248958 V 0 Z m 17.065624,0 v 3.80855 h 2.248958 v 2.34818 c 0,2.65713 0.551265,4.6517 1.731161,6.26319 1.315699,1.79692 1.553073,1.79219 6.074048,1.70738 h 4.065898 L 31.220789,0 Z M 6.2275263,17.06563 c -0.581837,-10e-4 -1.278802,0.012 -2.126485,0.0279 H 0.03514 L 0,31.22083 h 14.155207 v -3.80855 h -2.248958 v -2.34817 c 0,-2.65714 -0.551264,-4.65171 -1.731161,-6.26319 -1.0690037,-1.46 -1.4262647,-1.73061 -3.9475617,-1.73529 z m 18.7657787,0 c -2.521296,0.005 -2.878558,0.27529 -3.947562,1.73529 -1.179896,1.61148 -1.731161,3.60605 -1.731161,6.26319 v 2.34817 h -2.248958 v 3.80855 h 14.155205 l -0.0351,-14.1273 H 27.11983 c -0.847683,-0.0159 -1.544648,-0.029 -2.126485,-0.0279 z" fill="#d25336" />
</svg>