<?xml version="1.0" standalone="no"?>
<!DOCTYPE svg PUBLIC "-//W3C//DTD SVG 20010904//EN"
 "http://www.w3.org/TR/2001/REC-SVG-20010904/DTD/svg10.dtd">
<svg version="1.0" xmlns="http://www.w3.org/2000/svg"
 width="336.000000pt" height="336.000000pt" viewBox="0 0 336.000000 336.000000"
 preserveAspectRatio="xMidYMid meet">

<g transform="translate(0.000000,336.000000) scale(0.100000,-0.100000)"
fill="white" stroke="none">
<path d="M1465 3345 c-352 -43 -688 -203 -948 -454 -152 -147 -253 -284 -346
-468 -117 -232 -171 -467 -171 -743 0 -353 92 -652 294 -950 199 -295 509
-530 851 -645 161 -54 292 -76 495 -82 153 -5 192 -2 305 17 553 96 1004 436
1248 940 60 124 118 303 136 415 6 39 15 100 21 136 19 126 10 303 -29 519
-34 192 -158 465 -294 646 -372 496 -947 742 -1562 669z m488 -140 c164 -29
365 -105 510 -191 392 -236 650 -610 733 -1059 25 -135 26 -411 1 -543 -111
-596 -557 -1076 -1142 -1228 -232 -61 -570 -58 -785 5 -217 64 -377 144 -545
271 -64 48 -237 219 -264 260 -9 14 -30 44 -48 68 -115 153 -223 406 -263 617
-18 96 -24 358 -11 470 49 418 280 807 631 1066 151 112 400 220 595 259 157
32 424 35 588 5z"/>
<path d="M1643 2254 c-95 -58 -93 -55 -93 -160 l0 -93 73 -41 c39 -22 79 -40
87 -40 8 0 47 20 85 44 l70 43 3 90 c3 100 9 88 -82 149 -70 46 -78 46 -143 8z"/>
<path d="M672 2237 l-72 -42 2 -99 3 -98 73 -39 72 -40 63 36 c34 19 68 39 75
44 10 6 14 35 14 100 0 51 -2 94 -4 95 -1 1 -28 18 -58 38 -81 53 -86 53 -168
5z"/>
<path d="M1147 2238 l-67 -43 0 -97 0 -96 71 -41 c39 -23 73 -41 75 -41 3 0
38 19 79 43 l75 42 0 95 c0 82 -3 97 -18 105 -10 6 -40 25 -67 43 -27 17 -56
32 -65 32 -9 0 -46 -19 -83 -42z"/>
<path d="M2145 2262 c-17 -9 -47 -28 -67 -42 l-37 -25 -3 -90 c-4 -103 -2
-107 94 -158 l53 -28 77 43 78 43 0 96 c0 83 -2 98 -17 103 -10 3 -43 22 -73
41 -63 40 -64 40 -105 17z"/>
<path d="M2573 2230 l-63 -40 0 -89 c0 -100 -1 -98 93 -150 l58 -32 80 43 79
42 0 98 c0 64 -4 98 -11 98 -6 0 -34 16 -63 35 -68 45 -96 44 -173 -5z"/>
<path d="M668 1787 l-68 -42 0 -95 0 -95 48 -27 c26 -15 59 -35 73 -44 25 -16
27 -15 101 27 l76 44 4 89 c3 102 -1 111 -80 148 -23 11 -45 24 -48 29 -10 17
-39 7 -106 -34z"/>
<path d="M1205 1821 c-6 -5 -26 -17 -45 -28 -84 -45 -80 -38 -80 -143 l0 -95
48 -27 c26 -15 59 -35 73 -44 25 -16 28 -15 102 27 l76 44 1 92 c0 90 0 92
-31 117 -17 14 -36 26 -43 26 -8 0 -25 9 -39 20 -27 22 -48 25 -62 11z"/>
<path d="M1630 1790 l-65 -37 -3 -100 -3 -100 73 -43 73 -42 35 21 c19 12 54
31 78 43 l42 22 0 92 0 92 -32 24 c-18 14 -43 28 -55 32 -11 4 -27 13 -33 21
-18 22 -38 17 -110 -25z"/>
<path d="M2115 1794 c-33 -19 -64 -41 -70 -48 -5 -7 -10 -53 -10 -102 l1 -89
74 -42 74 -42 51 30 c27 16 63 35 78 41 l28 10 -3 96 -3 97 -70 42 c-38 23
-74 42 -80 42 -5 0 -37 -16 -70 -35z"/>
<path d="M2620 1808 c-19 -12 -52 -31 -72 -45 l-38 -23 0 -93 1 -92 76 -43 77
-42 67 40 c37 22 72 40 78 40 16 0 15 185 -1 198 -19 16 -139 82 -146 81 -4 0
-23 -10 -42 -21z"/>
<path d="M668 1338 l-68 -43 0 -95 0 -95 74 -41 74 -41 75 41 76 40 3 91 c2
71 0 93 -12 102 -119 94 -134 97 -222 41z"/>
<path d="M1158 1350 c-77 -51 -79 -56 -76 -156 l3 -88 71 -42 71 -42 59 34
c33 19 67 37 77 40 15 6 17 20 17 105 0 55 -3 99 -8 99 -4 0 -31 18 -61 40
-64 48 -92 50 -153 10z"/>
<path d="M1623 1341 l-62 -42 -3 -90 c-2 -50 -1 -94 2 -98 6 -8 47 -34 103
-65 l43 -25 60 35 c32 19 67 37 77 40 15 6 17 20 17 103 l-1 96 -55 38 c-81
56 -106 57 -181 8z"/>
<path d="M2113 1350 c-75 -43 -84 -61 -81 -161 l3 -82 35 -20 c19 -11 53 -30
75 -42 l40 -23 40 22 c22 12 57 32 78 45 l37 23 0 92 0 91 -67 43 c-37 23 -76
42 -87 42 -12 0 -45 -14 -73 -30z"/>
<path d="M2600 1354 c-89 -53 -91 -57 -88 -158 l3 -90 65 -38 c36 -21 72 -38
82 -38 9 0 48 18 87 41 l71 41 0 91 -1 92 -61 38 c-81 51 -103 54 -158 21z"/>
</g>
</svg>
