<svg height="1024" viewBox="0 0 1024 1024" width="1024" xmlns="http://www.w3.org/2000/svg"><g fill="#fff"><path d="m567 474.9c14.7 23.4 14.8 47.7.2 71.1-12.5 20-31.4 29.6-55.2 30.6-23.7-1-42.7-10.5-55.2-30.6-14.5-23.4-14.5-47.8.2-71.1 12.5-19.9 31.4-29.4 55-30.3 23.6 1 42.5 10.5 55 30.3z"/><path d="m512 713.3v-.8z"/><path d="m512.3 320v.6z"/><g><path d="m3.5 263 230.3 230.2c5.3-72.1 33.5-133.4 83.9-182.4 52.6-51.2 118-77.7 194.2-78.9 76.4 1.2 141.7 27.7 194.4 78.9 50.4 48.9 78.6 110.3 83.9 182.4 10.7-10.7 21.6-21.6 32.3-32.3l198-197.9c.8-.7 1.5-1.4 2.3-2 .1-.1.7-.7 1.2-1.2v-70.8l-203.4 203.2-2.7-6.6c-17.1-41-41.3-77.2-71.9-107.7-30.3-30.4-65.7-54.1-105-70.5l-2-.7c-40.2-16.5-82.8-24.8-127-24.8s-86.8 8.3-126.8 24.8c-40.8 16.9-76.9 40.9-107.2 71.3-30.6 30.5-54.8 66.8-71.9 107.8l-2.7 6.6-5.1-5.1-198.3-198.3v70.8l1.6 1.6c.3.2 1.1.9 1.9 1.6z"/><path d="m767.7 544.4.7-11.2c2.5-43.6-3.5-83.9-17.9-119.7-14.6-36.4-38.4-69.3-70.6-97.7-44.8-39.6-105.2-62.3-165.5-62.3h-2.3-2.6c-60.3 0-120.6 22.7-165.4 62.3-32.2 28.5-56 61.3-70.6 97.7-14.4 35.8-20.5 76.1-17.9 119.7l.7 11.5-9.3-8.2c-.5-.4-.9-.7-1.4-1.2l-6.3-6.2c-5.1-5-10.3-10.2-15.5-15.3-13.6-13.6-27.4-27.3-40.9-40.9l-133.2-133.3c-16.6-16.6-33.6-33.6-49.7-49.7v71.9l10.1 10c6.1 6 12.2 12.1 18.3 18.1 20.9 20.8 42.1 41.9 62.9 62.8 24.4 24.4 49.2 49.2 73.6 73.7 39.2 39.2 79 79 118.3 118.2l20 20.1c9.5 9.5 19.3 19.4 29 28.9 24.9 24.5 54.6 43.5 88.2 56.5 27.8 10.6 57.6 16.3 88.8 16.9.5 0 1 0 1.6-.1l1-.1 1.2.1c.9.1 1.3.1 1.7.1 31.3-.6 61.2-6.2 88.9-16.9 33.6-12.9 63.3-31.9 88.1-56.5 10.8-10.6 21.6-21.5 32.1-32l135.3-135.2c24.4-24.4 49.1-49.2 73.5-73.6 20.9-20.8 42-41.9 63-62.8 6.7-6.7 13.5-13.4 20-19.9l8.3-8.3v-71.9l-223.7 223.8c-4.3 4.3-8.7 8.7-13.1 12.9l-8.8 8.7c-.5.5-.9.8-1.4 1.3l-2.4-1.6 1.8 2.1zm-253 172.7h-2.8-2.8v-.1c-113.9-2.5-203.4-91.9-204.3-204.8-.4-50.3 15.4-95.1 46.9-133.2 40.4-48.8 94.3-74.4 160.1-76.1 66.1 1.7 119.9 27.3 160.3 76.1 31.5 38.1 47.2 82.9 46.9 133.2-.8 112.9-90.4 202.4-204.3 204.9z"/><path d="m721 694.8c-8.5 8.5-15.6 15.5-23.2 22.4-18.1 16.6-39.3 30.9-63.1 42.5-28.1 14.2-60.2 23.4-92.8 26.6l-1.2.1c-5.8.6-11.7.8-17.4 1.1l-11.1.6-11.6-.6c-5.7-.3-11.6-.5-17.5-1.1-33.8-3.4-65.9-12.6-95.5-27.5l-2.5-1.2c-22.1-11.3-42-24.9-59.1-40.5-7.9-7.2-15.5-14.7-23.2-22.4-38.8-38.8-78.3-78.2-117.1-117.1l-144.2-144.3c-13.8-13.8-28.1-28.1-41.5-41.4v72.1l4.5 4.6c4 4.1 8.5 8.6 11.9 12l269.2 269.3c9.6 9.6 20.1 18.5 31.1 26.4l.7.5c27 19.8 56.8 35.1 88.6 45.7 33 11 67.6 16.6 102.7 16.8.7 0 1.3 0 1.9-.1l1-.1 1.6.1c.7 0 1.3.1 1.8.1 68.3-.2 133.5-21.2 188.9-60.6l2.3-1.7c11.7-8.4 22.2-17.2 32-27 89.2-89.4 179.7-180 269-269.3 4.8-4.8 9.7-9.7 14.5-14.5.2-.2 1.3-1.3 2.1-2.1v-72.2l-58.3 58.2c-42.4 42.4-85.3 85.3-127.5 127.5z"/><path d="m605.9 350c-28.4-16.8-60.6-25.6-93-25.6h-1.8c-32.4 0-64.6 8.9-93 25.6-29.5 17.4-53.7 42.7-69.8 73.1-16.2 30.5-23.4 64.8-21 99.2s14.5 67.6 34.8 95.9c17.8 24.8 41.9 44.9 69.6 58.3 25.5 12.3 54.3 18.9 80.1 18 1.6 0 3 .1 4.3.1 24.9 0 51.9-6.4 76-18.1 27.8-13.4 51.9-33.5 69.7-58.3 20.4-28.3 32.4-61.5 34.8-95.9 2.5-34.4-4.8-68.7-21-99.2-16-30.4-40.2-55.7-69.7-73.1zm3.4 258.1c-26.1 25.9-58.8 39.4-97.2 40.3-38.7-.9-71.4-14.5-97.4-40.3-26.8-26.5-40.7-59.3-41.2-97.3-.4-31.4 9-59.9 27.9-84.6 26.7-34.8 63-53.4 108-55.4v-.2l2.5.1 2.6-.1v.2c45 2 81.3 20.6 108 55.4 19 24.7 28.3 53.2 27.9 84.6-.4 38-14.3 70.8-41.1 97.3z"/></g><path d="m512 444.7c-23.6.9-42.6 10.4-55 30.3-14.7 23.3-14.8 47.7-.2 71.1 12.5 20 31.4 29.6 55.2 30.6 23.7-1 42.7-10.5 55.2-30.6 14.6-23.4 14.5-47.8-.2-71.1-12.5-19.9-31.4-29.4-55-30.3z"/></g></svg>