<svg xmlns="http://www.w3.org/2000/svg" viewBox="0 0 16 16">
  <path d="m 1.0000026,1 v 0.933596 l 1.0000407,0.57617 V 2.000002 H 14.000231 v 7.439452 l 1.000003,0.57617 V 1 Z m 0,7.322267 v 6.677734 H 12.566596 L 10.834147,14.000002 H 2.0000433 V 8.900391 Z" />
  <path d="M 1.405817,3.958584 0.32315405,3.333355 0,3.893213 1.0826619,4.51843 1.022191,4.62301 3.0214781,5.777553 3.0819491,5.673011 3.2172582,5.751131 3.0751459,5.997216 3.1016064,6.119862 3.2244433,6.190882 3.0929142,6.418523 2.7977276,6.247991 2.8472384,6.161891 2.0290716,5.689416 1.8053201,6.077007 l 0.8181668,0.472475 0.038931,-0.06769 0.3012337,0.174048 -0.042711,0.07378 0.073701,0.255836 0.4798185,0.277077 0.1629005,0.200769 2.8543055,1.648324 0.2982094,0.06569 0.061607,0.03553 -0.9445943,1.636494 0.046489,0.133153 1.7162724,0.991128 0.174617,-0.04683 0.2237515,-0.387583 0.0703,0.262035 -0.074458,0.129222 -0.00378,0.193852 0.2921621,0.0621 0.046489,0.133152 2.7050508,0.741789 0.116411,-0.03099 -0.123971,-0.2112 0.09033,-0.169247 0.09713,-0.296542 0.03855,-0.290645 -0.02646,-0.466254 -0.06387,-0.315742 -0.04687,-0.117354 0.06047,-0.04732 0.09222,-0.15995 0.442968,0.04256 1.993089,1.150968 0.613806,1.068106 -0.112254,0.279723 0.01134,0.08999 0.354147,0.35229 0.09411,0.02154 L 14.9549,13.48114 15.345747,12.747095 15.69687,12.195306 15.927425,11.852692 16,11.71421 l -0.0038,-0.09252 -0.239626,-0.138557 -0.05821,0.01587 -0.165923,-0.09592 -0.100537,0.03213 -0.07446,0.129222 -2.854382,-1.6483118 -0.09071,0.02948 -0.406192,-0.3904331 -0.048,-0.1587781 -0.07975,-0.160705 -0.102805,-0.09211 -0.03024,0.0076 -0.04951,0.0861 -0.190491,-0.110135 0.152695,-0.264567 -0.09071,-0.183685 -0.04913,-0.02835 0.128128,-0.22148 -0.129262,-0.07461 -0.12775,0.22148 -0.11679,-0.0675 -0.436088,0.0024 -0.0994,0.172233 L 9.5128388,7.976132 9.0180909,7.895472 7.3940404,6.957643 7.4760577,6.816137 7.4609395,6.732267 6.4951039,6.174541 5.9622201,6.145821 5.0456707,5.616502 4.9549593,5.318373 4.1122252,4.831702 4.0638444,4.844932 3.9039679,5.121782 3.7070518,5.008094 3.6390208,5.026234 3.5467993,5.186183 3.4114902,5.108063 3.4719611,5.003522 1.4727109,3.848986 Z m 7.5809056,7.896884 0.2392479,-1.650252 0.075214,-0.08772 0.088442,-0.03927 0.1186791,0.03591 0.7381914,0.426286 -0.05329,0.149556 -0.137199,0.166828 -0.095246,0.05167 0.00378,0.06096 0.060852,-0.0053 0.128128,-0.0655 0.134554,-0.119206 0.110741,-0.149254 0.02268,0.01436 0.03402,0.09434 -0.01512,0.139125 -0.09373,0.134437 -0.121704,0.06905 -0.135687,0.03666 -0.01512,0.09774 0.129263,0.07461 0.08088,0.08757 0.02646,0.138634 -0.03855,0.150689 -0.0412,0.156699 0.02646,0.154319 0.01134,0.20451 -0.03024,0.221064 -0.04346,0.03213 -1.0120706,-0.264451 -0.1062064,-0.08598 -0.067655,-0.09638 z" />
</svg>