<svg xmlns="http://www.w3.org/2000/svg" viewBox="0 0 16 16">
  <path d="M 15,1 V 3.7617159 L 14,4.2734375 V 2 H 2 V 10.429686 L 1,10.943358 V 1 Z m 0,9.673825 v 4.326172 H 6.5659458 L 8.5151615,14 H 14 v -2.812501 z" />
  <path d="m 14.62405,5.7831282 1.087332,-0.5579604 0.288378,0.5622615 -1.087332,0.557964 0.05405,0.1049575 -2.007877,1.0303257 -0.05405,-0.1049575 -0.135684,0.06977 0.126614,0.2471433 -0.03402,0.1184504 -0.123591,0.063383 0.117544,0.2286237 0.296693,-0.1522016 -0.04422,-0.086438 0.821707,-0.4216365 0.199559,0.3892422 -0.821631,0.421663 -0.03402,-0.067956 -0.30274,0.1553386 0.03817,0.07423 -0.08466,0.2461985 -0.481852,0.2472569 -0.168945,0.188145 -2.8666204,1.4709925 -0.2944252,0.0497 -0.061606,0.03175 0.842948,1.643528 -0.05178,0.127786 -1.7236913,0.884511 -0.168189,-0.05416 -0.199559,-0.38925 -0.08126,0.252397 0.06652,0.129751 -0.00325,0.189505 -0.2883779,0.04649 -0.05178,0.127785 -2.6769259,0.59316 -0.112252,-0.03628 0.1311496,-0.200164 -0.080126,-0.169625 -0.080882,-0.294198 -0.022677,-0.285506 0.048,-0.453966 0.07748,-0.305197 0.05178,-0.112403 -0.056693,-0.04925 -0.082394,-0.16063 -0.43457,0.02003 -2.0016756,1.027147 -0.6510236,1.013087 0.096,0.278551 -0.015118,0.08727 -0.3632126,0.326778 -0.092976,0.01663 L 0.9350551,14.42372 0.5892283,13.688111 0.2728819,13.132343 0.064252,12.786667 0,12.647921 l 0.011339,-0.09018 0.2407559,-0.123628 0.055937,0.01814 0.1666772,-0.08557 0.096378,0.03628 0.06652,0.129752 2.8666204,-1.470996 0.087307,0.03326 0.4154835,-0.361512 0.054803,-0.152731 0.085417,-0.153071 0.1046929,-0.085 0.030236,0.0091 0.04422,0.08644 0.1916221,-0.09827 -0.136063,-0.265701 0.097512,-0.1749166 0.049512,-0.0257 -0.1141418,-0.222425 0.1296378,-0.06656 0.1141418,0.222425 0.1175433,-0.06025 0.4256882,0.02343 0.088441,0.173027 1.2294425,-0.63089 0.4869529,-0.05478 L 8.637693,8.4206669 8.565126,8.2785188 8.584024,8.1975238 9.5539641,7.6997902 l 0.5216509,-0.00233 0.920542,-0.4723842 0.103181,-0.2866772 0.846425,-0.434313 0.04649,0.01474 0.142488,0.2780221 0.19767,-0.1015181 0.06576,0.021165 0.08239,0.1606299 0.135686,-0.06977 -0.05405,-0.1049574 2.007873,-1.0303257 z m -7.7840129,7.3426538 -0.1530709,-1.622778 -0.069165,-0.08935 -0.084284,-0.0426 -0.1175433,0.0291 -0.7413543,0.380425 0.044976,0.148649 0.1262362,0.169511 0.090331,0.05507 -0.011339,0.05922 -0.058961,-0.0079 -0.1220788,-0.07011 -0.1254803,-0.122759 -0.1009133,-0.151143 -0.026457,0.01285 -0.039685,0.09033 0.00756,0.136554 0.085039,0.135799 0.1156536,0.07332 0.1307716,0.04214 0.011339,0.09619 -0.1296378,0.06656 -0.08315,0.08156 -0.034016,0.13406 0.030236,0.148762 0.034016,0.15496 -0.034016,0.149405 -0.022677,0.19903 0.015118,0.217247 0.040819,0.03364 1.0008567,-0.209197 0.1080945,-0.0788 0.070677,-0.09086 z" />
  <path d="M 3,3 V 4 H 5 V 5 H 3 v 3 H 6 V 7 H 4 V 6 H 6 V 3 Z" />
</svg>