<svg xmlns="http://www.w3.org/2000/svg" viewBox="0 0 16 16">
  <path d="m 0.99939606,1 v 9.308595 L 1.9993951,9.7324244 V 2.0000025 H 12.933133 L 14.665576,1 Z M 14.999577,9.1074229 13.99954,9.685547 v 4.314455 H 2.4798919 l -1.48049584,0.847654 v 0.152353 H 14.999577 Z" />
  <path d="m 14.607446,3.0000012 0.368509,0.1282394 0.779045,1.349382 -0.0737,0.3684662 -0.418776,0.2417385 -0.343941,0.73375 -0.215058,0.124233 0.06727,0.1162961 -0.192002,0.1108913 -0.07672,-0.025323 -0.0514,0.2467275 -0.715397,0.4130268 0.124348,0.2151685 0.288382,0.096869 0.09865,-0.056995 1.475168,0.5132372 0.05745,0.098835 L 16,7.7484717 l -0.0771,0.4168289 -0.288381,-0.09702 -0.07559,0.043653 -1.484352,-0.5156976 -0.03779,-0.063912 -0.282712,-0.1003464 -0.197671,0.1141417 -0.188223,0.023055 -0.04044,-0.069808 -0.145514,0.083981 -0.151561,-0.2616567 0.139466,-0.080542 -0.03402,-0.058205 0.07559,-0.043653 -0.03024,-0.052309 -0.471124,0.271937 -0.0076,0.4006262 -0.558394,0.3223181 -0.148159,-0.2559118 -0.09865,0.056995 0.04611,0.1747275 0.04573,0.2530772 -0.04611,0.2434772 -0.134931,0.2098015 -0.277043,0.1910551 -0.19238,-0.1989543 -0.279311,0.1611591 -0.02268,0.9672529 0.167813,0.2907587 -1.017801,0.587645 -2.6346269,-0.130733 -0.3620834,-0.628147 -0.1481588,-0.054274 -0.337138,0.194797 -0.02646,0.164259 -0.2619242,0.151067 -0.080501,-0.139578 -0.7924255,0.13183 -0.1629,0.09403 -0.2381129,-0.103143 -3.0884782,1.78309 0.1073403,0.186142 0.0076,0.896323 L 1.5816761,13.647675 1.4652647,13.606555 1.2135456,13.170344 1.0098262,13.287811 0.84957225,13.225184 0,11.753671 0.03779046,11.561973 1.0614498,10.970972 1.4699087,11.060849 1.9267452,10.804484 2.0412666,10.815822 4.4950032,9.3838956 5.4838911,8.6655775 5.3595426,8.450409 5.1652733,8.4228185 4.4002121,8.7093445 4.2418472,8.7308875 4.2010267,8.6610795 5.1914636,8.0661402 5.7904878,7.7203135 7.6333701,7.1914593 7.7206811,7.342716 7.7864419,7.335913 7.6927108,7.1730909 7.7267312,7.0688138 8.0173807,6.900965 7.8866071,6.6741177 7.7788898,6.6355287 7.4530899,6.8235225 7.3926192,6.7188674 7.4682101,6.6752139 7.4043393,6.5647761 7.3287484,6.6084301 7.2815078,6.5270191 7.4209735,6.4464771 7.4908944,6.0962661 8.5145157,5.5052462 8.6097569,5.5354822 8.7356164,5.0284662 8.790797,4.895767 8.8958683,4.796176 11.286373,3.4160513 l 0.06841,0.03806 0.419344,0.4170935 0.657268,-0.3794419 0.191246,0.3315024 -0.686295,0.3962419 -0.110363,0.5602922 0.129261,0.049361 0.05329,-0.27103 0.314083,-0.1814173 0.13493,0.04611 1.349384,-0.7790551 0.03893,-0.2009197 z m -12.5892287,9.4784048 -0.04422,-0.07559 -0.01512,0.319937 -0.6097203,0.36771 0.1946483,0.337361 0.049891,0.01776 0.4013159,-0.231685 z m 8.4906977,-3.4673762 -0.131151,-0.2268094 -0.05707,-0.067994 -0.07786,-0.040328 -0.0514,-0.00869 -0.04535,0.00288 -0.4362759,0.2518299 -0.045731,0.081033 -0.0076,0.096642 0.01512,0.1074142 0.3620829,0.628131 0.354902,-0.2048126 z M 8.9129145,5.4811363 9.3349036,5.2448781 9.039719,5.13633 8.9758483,5.172991 Z m 2.7285495,2.697668 -0.04725,-0.081411 -0.0703,-0.09891 -0.418776,0.2417386 0.113764,0.1977449 0.07635,0.07971 0.04611,0.012094 0.220726,-0.1275213 0.06236,-0.066898 0.02646,-0.076724 z m -0.599667,-3.9267212 0.05291,-0.4724712 -1.9516957,1.1193978 -0.01134,0.084964 0.3997658,0.1414299 z" />
</svg>