<svg xmlns="http://www.w3.org/2000/svg" viewBox="0 0 16 16">
  <path d="M 15,1 V 3.7617159 L 14,4.2734375 V 2 H 2 V 10.429686 L 1,10.943358 V 1 Z m 0,9.673825 v 4.326172 H 6.5659458 L 8.5151615,14 H 14 v -2.812501 z" />
  <path d="m 14.606891,5.1627376 0.368504,0.1282772 0.779074,1.349416 -0.07408,0.3685417 -0.418772,0.2417764 -0.343937,0.7337802 -0.215055,0.1242708 0.06728,0.1162961 -0.191622,0.1108535 -0.07672,-0.025323 -0.0514,0.2468031 -0.715426,0.4130457 0.124346,0.2152063 0.288378,0.096983 0.09902,-0.057071 1.475149,0.5132598 0.05707,0.098835 0.221102,0.073965 -0.0771,0.4168666 -0.288756,-0.09698 -0.07559,0.04365 -1.484334,-0.5157164 -0.0378,-0.06395 -0.282708,-0.1003464 -0.197669,0.1141417 -0.188221,0.023055 -0.04044,-0.06977 -0.145134,0.083943 -0.151184,-0.2617316 0.139465,-0.080579 -0.03402,-0.058167 0.07559,-0.043654 -0.03024,-0.052346 -0.471118,0.2719748 -0.0076,0.4007396 -0.558387,0.3223563 -0.14778,-0.2559123 -0.09902,0.057071 0.04649,0.174765 0.04535,0.253039 -0.04573,0.24344 -0.134883,0.209687 -0.277418,0.191169 -0.192378,-0.199068 -0.279307,0.161197 -0.02268,0.967276 0.167811,0.290796 -1.017864,0.587664 -2.6346713,-0.130734 -0.3624567,-0.628176 -0.1477795,-0.05431 -0.3371338,0.194797 -0.026457,0.164258 -0.2619213,0.151106 -0.080504,-0.139578 -0.7924536,0.13183 -0.1625196,0.094 -0.2381103,-0.103067 -3.0885543,1.783158 0.1073386,0.186142 0.00756,0.896341 L 1.5820724,15.811163 1.465285,15.770043 1.2135685,15.333813 1.0098519,15.451357 0.8496,15.388767 0,13.917208 0.037795,13.725435 1.06148,13.134411 1.4700847,13.224213 1.926954,12.96781 2.0418516,12.979149 4.4955591,11.547059 5.4845102,10.828722 5.3601638,10.613516 5.1658961,10.585925 4.4007685,10.872526 4.2427843,10.89407 4.2023433,10.8243 5.1927307,10.229255 5.7917858,9.8833901 7.6346834,9.3545246 7.7219905,9.5057813 7.7877543,9.4989782 7.694022,9.3361183 7.7280378,9.231879 8.0186834,9.0639546 7.8875338,8.8371451 7.7798173,8.7984805 7.454022,8.9865498 7.3935496,8.8818569 7.4691401,8.8382034 7.4052661,8.7277278 7.3296756,8.7713813 7.2824315,8.6899325 7.421896,8.609353 7.4914393,8.2592176 8.5150866,7.668194 8.6103307,7.6984302 8.7365669,7.1913763 8.791748,7.0586771 8.8971968,6.9591244 11.287786,5.578943 l 0.06841,0.038022 0.419225,0.4171615 0.65726,-0.3794645 0.191622,0.3315024 -0.686324,0.3962608 -0.11074,0.5603035 0.12926,0.049398 0.05291,-0.2709542 0.314079,-0.1813419 0.134929,0.046035 1.349405,-0.7790815 0.03893,-0.2009575 z m -12.5894547,9.4787184 -0.043843,-0.07559 -0.015118,0.319937 -0.6098268,0.367597 0.1946457,0.337323 0.049134,0.01814 0.4013102,-0.231723 z m 8.4908977,-3.467489 -0.13115,-0.22681 -0.05518,-0.0689 -0.07786,-0.04044 -0.05178,-0.0091 -0.04498,0.0027 -0.4362706,0.251868 -0.04611,0.08103 -0.00756,0.09664 0.015118,0.107376 0.3624566,0.628169 0.354898,-0.20485 z M 8.9123149,7.6439369 9.3342992,7.4076787 9.0391181,7.2990551 8.9752441,7.3360944 Z m 2.7285921,2.6977701 -0.04724,-0.08141 -0.07181,-0.09797 -0.418772,0.241776 0.114142,0.197745 0.07672,0.0796 0.04573,0.01247 0.221102,-0.127634 0.06236,-0.06694 0.02646,-0.07672 z m -0.599735,-3.9268384 0.05291,-0.472577 -1.9516728,1.1194734 -0.011339,0.085002 0.399685,0.1415055 z" />
  <path d="M 3,3 V 4 H 5 L 5,5 H 3 V 6 H 5 V 7 L 3,7 V 8 H 6 V 3 Z" />
</svg>