<?xml version="1.0" encoding="UTF-8" standalone="no"?>
<svg
   viewBox="0 0 16 16"
   version="1.1"
   id="svg27710"
   sodipodi:docname="weapon-slot-energy.svg"
   inkscape:version="1.2 (dc2aedaf03, 2022-05-15)"
   xmlns:inkscape="http://www.inkscape.org/namespaces/inkscape"
   xmlns:sodipodi="http://sodipodi.sourceforge.net/DTD/sodipodi-0.dtd"
   xmlns="http://www.w3.org/2000/svg"
   xmlns:svg="http://www.w3.org/2000/svg">
  <defs
     id="defs27714" />
  <sodipodi:namedview
     id="namedview27712"
     pagecolor="#ffffff"
     bordercolor="#666666"
     borderopacity="1.0"
     inkscape:showpageshadow="2"
     inkscape:pageopacity="0.0"
     inkscape:pagecheckerboard="0"
     inkscape:deskcolor="#d1d1d1"
     showgrid="false"
     inkscape:zoom="14.75"
     inkscape:cx="-2.8135593"
     inkscape:cy="8"
     inkscape:window-width="1920"
     inkscape:window-height="1017"
     inkscape:window-x="-8"
     inkscape:window-y="-8"
     inkscape:window-maximized="1"
     inkscape:current-layer="svg27710" />
  <path
     id="path23153"
     style="fill:#0f9ce1;fill-opacity:1;stroke-width:0.265617"
     d="M 8.00194,0 8.00001,0.0019 C 7.981112,0.03705 7.948608,0.08282 7.925931,0.119103 7.3452822,1.063373 6.7428633,1.994652 6.1290303,2.917934 5.7692193,3.458728 5.3882429,3.9880923 5.1270775,4.5878542 4.8538177,5.2128482 4.7354807,5.855829 4.9335657,6.5273074 c 0.1855748,0.6284447 0.592252,1.0967622 1.099578,1.4882797 l -0.00756,-0.00378 C 6.2984656,8.225615 6.6130357,8.3898393 6.9728467,8.5000881 6.9463897,8.4473261 6.8995237,8.4388971 6.8655081,8.4180721 6.5155239,8.2055871 6.2203428,7.9344098 6.0139806,7.5782271 5.6178105,6.8932029 5.6700436,6.2121585 6.0551776,5.5430725 6.6493571,4.5100898 7.3424091,3.542644 7.975102,2.533306 7.982662,2.523506 7.997779,2.518186 8.014031,2.509876 8.1236373,2.682033 8.23022,2.852377 8.3402043,3.021594 8.8788625,3.8564236 9.4462452,4.6744078 9.9437444,5.535267 10.483461,6.4681148 10.321697,7.4383725 9.5101192,8.1446414 l 0.00756,-0.00378 c -0.072945,0.061304 -0.1489134,0.120378 -0.2286615,0.1777512 l 0.060472,0.062513 C 9.7491778,8.205804 10.09474,7.9501227 10.400277,7.63313 11.094349,6.9141051 11.320441,6.0747514 11.060409,5.1057864 10.913386,4.5580875 10.633776,4.0735332 10.328012,3.605786 9.5773605,2.4554 8.8065637,1.317717 8.0936314,0.142893 8.0671744,0.098783 8.0131274,0.02036 8.0017884,3.29e-4 Z M 8.00001,4.4082028 C 7.984892,4.4395728 7.981112,4.4531418 7.973553,4.4648578 7.6250806,5.0561195 7.2655341,5.6389076 6.9442743,6.2461075 6.6509829,6.8007116 6.7666365,7.345213 7.2470144,7.7500156 c 0.1390866,0.1175055 0.2917795,0.2003527 0.4512,0.246085 l -0.018898,-1.326172 1.0703244,1.095704 C 9.2155841,7.3929713 9.3534613,6.855632 9.109077,6.3339892 8.965077,6.027205 8.7881951,5.739428 8.616907,5.4472705 8.4192377,5.109154 8.2198676,4.771045 8.0055684,4.4082104 Z" />
  <path
     id="path23159"
     style="fill:#4e7a20;fill-opacity:1;stroke:none;stroke-width:0.265626;stroke-opacity:1"
     class="st0"
     d="M 4.2500031,7.4999999 C 1.901896,7.4999999 0,9.401964 0,11.749999 c 0,2.348213 1.9018582,4.25 4.2500031,4.25 2.0518299,0 3.7629354,-1.451562 4.1620913,-3.384768 L 7.6796975,12.2832 7.2851527,11.499995 c -0.030236,0.381804 -0.1239685,0.758033 -0.2849764,1.10742 -0.1114961,0.225676 -0.2520945,0.438648 -0.4277291,0.613282 -0.1783937,0.174576 -0.3926552,0.3072 -0.6210898,0.378908 C 6.1452472,13.461993 6.3054991,13.292557 6.427918,13.103512 6.5473511,12.912873 6.6391936,12.70789 6.691729,12.490231 6.8115401,12.062797 6.8190991,11.609287 6.7680755,11.173822 6.7151621,10.738458 6.5840125,10.321996 6.3637794,9.9687457 6.1457007,9.6130544 5.8420913,9.3090216 5.488781,9.080073 5.3081196,8.9606777 5.1376629,8.875147 4.9379905,8.8144478 4.7441007,8.7424478 4.537096,8.7139501 4.3246866,8.69921 4.1145448,8.688249 3.8867905,8.688627 3.6743055,8.70488 3.461896,8.721132 3.2505826,8.76883 3.0434645,8.8357272 2.2120063,9.0994241 1.4823307,9.7103848 0.94578896,10.49393 1.2273638,9.5799268 1.9164094,8.752781 2.8539968,8.335729 v 0.00983 C 3.0875716,8.2387496 3.3346393,8.1640283 3.5922897,8.1209417 c 0.2554961,-0.048189 0.5014677,-0.064441 0.761726,-0.064441 0.2150551,0.00161 0.4340787,0.02948 0.6503811,0.082016 A 4.3437501,4.8125 0 0 1 4.4614299,7.5056994 c -0.069921,-0.00341 -0.1402205,-0.00605 -0.2108977,-0.00605 z m 2.2949291,1.611326 C 6.6881763,9.2764912 6.8147905,9.4559432 6.9198613,9.6484345 7.170066,10.103138 7.2872314,10.6126 7.2966802,11.107419 L 8.456844,11.15625 C 8.3638676,10.487932 8.1178204,9.8686638 7.7517731,9.3378934 A 4.3437501,4.8125 0 0 1 6.5447432,9.1113485 Z M 2.4199181,9.7832011 c -0.1938898,0.1376126 -0.3560315,0.3079559 -0.478526,0.4960929 -0.119811,0.190867 -0.2108976,0.396393 -0.263811,0.613282 -0.1194331,0.427355 -0.1273701,0.88281 -0.076347,1.318359 0.052913,0.435387 0.1844409,0.849872 0.4042961,1.203126 0.2177008,0.355691 0.5236913,0.6598 0.876926,0.888673 0.1806614,0.119395 0.3499842,0.204888 0.5488251,0.265625 0.1938898,0.07177 0.4008567,0.100498 0.613304,0.115238 0.2101417,0.01096 0.4398614,0.0102 0.6523464,-0.0061 0.2127879,-0.01587 0.4216068,-0.06365 0.6288761,-0.130845 0.8314583,-0.263962 1.561096,-0.872647 2.0976756,-1.656249 -0.2785512,0.910953 -0.9658961,1.736575 -1.9062425,2.15625 v -0.0079 c -0.2335748,0.106851 -0.4806047,0.181761 -0.7382929,0.224621 -0.2551181,0.04819 -0.5033953,0.06251 -0.7636536,0.06251 -0.2577637,-0.0053 -0.519874,-0.03848 -0.7773732,-0.113272 C 2.9824252,15.140587 2.7259464,15.015749 2.5133102,14.87277 2.0776441,14.585677 1.7031307,14.197462 1.4508094,13.73605 1.1953134,13.271161 1.0773921,12.750036 1.0719118,12.245817 1.068359,11.741095 1.1588409,11.236626 1.3708724,10.777066 1.4823685,10.551352 1.6229669,10.338391 1.7986015,10.163784 1.9769953,9.9892081 2.1912189,9.8546947 2.4196913,9.7829252 Z m 1.830085,0.4062499 c 0.8632819,0 1.5624945,0.698075 1.5624945,1.560548 0,0.863036 -0.6992126,1.562498 -1.5624945,1.562498 -0.8633197,0 -1.5624945,-0.699942 -1.5624945,-1.562498 0,-0.86304 0.6992126,-1.560548 1.5624945,-1.560548 z" />
  <path
     fill="#79bbe7"
     d="m 11.488025,15.858818 c 0,-0.508093 0,-0.986766 0,-1.464847 0,-0.353914 -0.03893,-0.378784 -0.340535,-0.212031 q -1.022778,0.56287 -2.0425704,1.128098 c -0.1938898,0.107641 -0.408189,0.145399 -0.6238111,0.174539 -0.3189921,0.04581 -0.6386267,0.08115 -0.9797291,0.07174 0.042709,-0.08115 0.1160315,-0.115653 0.1674331,-0.166526 0.303874,-0.290192 0.6138331,-0.574624 0.9165354,-0.866872 0.4769386,-0.459073 0.9489638,-0.9242 1.4253351,-1.384422 0.0669,-0.06157 0.05405,-0.094 -0.026456,-0.133077 C 9.453203,12.729169 8.9394518,12.417006 8.3933857,12.170827 8.0781731,12.02917 7.8555967,11.792874 7.6630298,11.513182 c 0.058583,-0.03099 0.1065827,-0.0189 0.1526929,-0.0189 0.4594772,0 0.9185764,0.002 1.3780535,0 0.2498268,0 0.2849764,-0.06187 0.1678111,-0.270312 C 8.9843904,10.532137 8.607118,9.841077 8.2199054,9.1559092 8.0997164,8.9425171 8.05474,8.7134059 8.0222361,8.480432 7.9783931,8.1633675 7.9334171,7.8440957 7.9530711,7.4999848 8.1031183,7.6566084 8.2399372,7.7967155 8.3735057,7.941358 Q 9.3572033,8.9969045 10.37091,10.02308 c 0.08353,0.08137 0.109985,0.06157 0.156473,-0.0189 0.280819,-0.545654 0.59947,-1.0703469 0.856289,-1.6284244 0.133417,-0.2901921 0.377197,-0.4795805 0.627288,-0.6659187 0.03893,0.061568 0.02646,0.1046929 0.02646,0.1515212 0,0.4635969 0,0.9283465 0,1.3929071 0,0.2548535 0.04384,0.2840315 0.264945,0.1625197 q 1.042847,-0.5696391 2.081839,-1.1470224 c 0.195024,-0.1095307 0.406375,-0.155263 0.619994,-0.1836472 0.267213,-0.030992 0.536844,-0.061871 0.80572,-0.081147 0.05518,-0.00794 0.112252,0 0.19011,0 -0.07446,0.1229103 -0.166677,0.1916977 -0.248693,0.2674772 Q 14.63165,9.3155971 13.543826,10.390842 c -0.09373,0.094 -0.08428,0.131188 0.03024,0.191169 0.539716,0.281197 1.060989,0.596655 1.615521,0.849797 0.262677,0.118601 0.445908,0.334903 0.61697,0.558878 0.0189,0.01852 0.04384,0.04581 0.03024,0.07174 -0.01512,0.0189 -0.06274,0.0189 -0.09373,0.0189 q -0.689424,0 -1.378356,0 c -0.05329,0 -0.106583,0.0019 -0.159496,0.0023 -0.118299,0 -0.14778,0.06157 -0.09713,0.159307 q 0.181417,0.348473 0.369638,0.689212 c 0.281575,0.512081 0.567231,1.022181 0.84771,1.534991 0.144756,0.264491 0.16063,0.563429 0.199559,0.854317 0.02646,0.157946 0.03893,0.340309 0.03893,0.52354 0,0.0573 -0.0011,0.104693 -0.0022,0.155036 l 2.27e-4,-0.0079 c -0.116078,-0.104693 -0.254031,-0.206438 -0.377244,-0.329084 -0.216567,-0.220044 -0.420397,-0.453902 -0.635338,-0.6755 -0.464278,-0.48009 -0.932183,-0.955389 -1.394835,-1.435502 -0.07786,-0.07174 -0.116032,-0.08115 -0.174236,0.0189 -0.27137,0.521775 -0.578419,1.027404 -0.819855,1.566984 -0.134174,0.304554 -0.370016,0.520033 -0.665159,0.724229 z m 0.26759,-4.885874 c -0.03024,0.0189 -0.04989,0.03099 -0.06916,0.06187 -0.222614,0.22303 -0.442696,0.447053 -0.667351,0.665918 -0.06652,0.06157 -0.05443,0.107074 0.0076,0.165203 q 0.326551,0.319333 0.645846,0.646697 c 0.0582,0.06157 0.096,0.07173 0.162519,0.0083 0.218079,-0.22647 0.441638,-0.447614 0.667352,-0.6679 0.04989,-0.0565 0.06123,-0.07174 0.0023,-0.136516 -0.228661,-0.22303 -0.452825,-0.449972 -0.678576,-0.67553 -0.02646,-0.0189 -0.04384,-0.03099 -0.07105,-0.06157 z"
     id="path23151"
     style="fill:#85130c;fill-opacity:1;stroke:none;stroke-width:0.265579;stroke-opacity:1" />
</svg>
