<?xml version="1.0" encoding="UTF-8" standalone="no"?>
<svg
   viewBox="0 0 16 16"
   version="1.1"
   id="svg35880"
   sodipodi:docname="weapon-slot-power.svg"
   inkscape:version="1.2 (dc2aedaf03, 2022-05-15)"
   xmlns:inkscape="http://www.inkscape.org/namespaces/inkscape"
   xmlns:sodipodi="http://sodipodi.sourceforge.net/DTD/sodipodi-0.dtd"
   xmlns="http://www.w3.org/2000/svg"
   xmlns:svg="http://www.w3.org/2000/svg">
  <defs
     id="defs35884" />
  <sodipodi:namedview
     id="namedview35882"
     pagecolor="#ffffff"
     bordercolor="#666666"
     borderopacity="1.0"
     inkscape:showpageshadow="2"
     inkscape:pageopacity="0.0"
     inkscape:pagecheckerboard="0"
     inkscape:deskcolor="#d1d1d1"
     showgrid="false"
     inkscape:zoom="14.75"
     inkscape:cx="-2.8135593"
     inkscape:cy="8"
     inkscape:window-width="1920"
     inkscape:window-height="1017"
     inkscape:window-x="-8"
     inkscape:window-y="-8"
     inkscape:window-maximized="1"
     inkscape:current-layer="svg35880" />
  <path
     id="path36612"
     style="stroke-width:0.0111607;fill:#4d7900;fill-opacity:1"
     d="M 2 2.2851562 L 0 4.2851562 L 0 11.714844 L 2 13.714844 L 14 13.714844 L 16 11.714844 L 16 4.2851562 L 14 2.2851562 L 2 2.2851562 z M 2.5722656 3.7148438 L 13.427734 3.7148438 L 14.572266 4.8574219 L 14.572266 11.142578 L 13.427734 12.285156 L 2.5722656 12.285156 L 1.4277344 11.142578 L 1.4277344 4.8574219 L 2.5722656 3.7148438 z M 5.1425781 5 C 4.7140069 5 4.1425781 6.4285718 4.1425781 7 L 6.1425781 7 C 6.1425781 6.4285718 5.5711493 5 5.1425781 5 z M 8 5 C 7.5714287 5 7 6.4285718 7 7 L 9 7 C 9 6.4285718 8.4285712 5 8 5 z M 10.857422 5 C 10.428851 5 9.8574219 6.4285718 9.8574219 7 L 11.857422 7 C 11.857422 6.4285718 11.285993 5 10.857422 5 z M 4.1425781 7.5722656 L 4.1425781 10.857422 L 6.1425781 10.857422 L 6.1425781 7.5722656 L 4.1425781 7.5722656 z M 7 7.5722656 L 7 10.857422 L 9 10.857422 L 9 7.5722656 L 7 7.5722656 z M 9.8574219 7.5722656 L 9.8574219 10.857422 L 11.857422 10.857422 L 11.857422 7.5722656 L 9.8574219 7.5722656 z " />
</svg>
