<svg xmlns="http://www.w3.org/2000/svg" viewBox="0 0 16 16">
  <path d="M 0.999949,1 V 8.9570317 L 1.999974,8.3808616 V 2.0000025 h 11.0527 L 14.785096,1 Z m 14.000013,6.0878928 -0.999988,0.5781241 v 3.4589861 l 0.202961,0.351571 -0.202961,0.117204 v 2.406251 H 9.833952 L 8.10153,15.000027 h 6.898432 z" />
  <path d="M 14.765253,2.5841701 14.911143,2.5 l 0.801902,1.388931 -0.04535,0.1694362 0.33222,0.57552 -0.184063,0.1063559 -0.05405,0.2255244 -3.253606,1.8784781 -0.226772,-0.073701 -0.283842,0.1639181 -1.325896,3.1085333 1.227174,2.125602 -0.04422,0.189203 -1.949102,1.125321 -0.161764,-0.04982 -0.465184,-0.805734 -3.778772,0.933441 -0.167055,-0.006 -0.09789,-0.04573 -0.06652,-0.115124 0.126993,-0.134665 0.07181,-0.123401 -0.135686,-0.341216 -0.09524,-0.395244 -0.04876,-0.54491 0.0189,-0.533132 0.05178,-0.459625 0.0189,-0.112214 -0.0189,-0.05015 -0.06917,-0.03175 -3.03874,1.75443 -0.199559,0.841667 0.0076,0.08678 0.327685,0.567847 0.03024,0.299906 -0.407773,0.481001 -0.08353,-0.0029 L 1.584682,14.542219 1.514002,14.419423 1.18027,13.752687 0.804585,13.048793 0.382865,12.371437 0.06992,11.917811 0,11.743385 0.03402,11.661936 0.12057,11.581356 0.258523,11.501646 0.411216,11.53604 0.58016,11.438604 0.61418,11.305489 5.579005,8.4390277 5.980656,8.0536709 6.105758,7.756411 6.120878,7.5013685 6.117078,7.3508299 6.562117,7.0938976 6.504667,6.9941186 6.819124,6.8124745 6.822924,6.5739863 7.575806,6.088181 7.615486,5.8912676 7.509659,5.583992 7.770447,5.4333779 l 0.193512,0.2463874 0.276283,0.1064692 0.06198,0.107452 0.882482,-0.5094954 0.06652,0.1151244 5.056894,-2.919617 z M 8.853089,11.890894 7.510715,9.5657813 6.62056,10.079706 l 0.01512,0.09453 0.07257,0.142262 0.128126,0.151067 0.157607,0.113613 -0.03024,0.108926 -0.07257,-0.01928 -0.09373,-0.03802 -0.169701,-0.116863 -0.119433,-0.135723 -0.10885,-0.172346 -0.137953,0.07975 -0.01512,0.100119 0.04158,0.16029 0.117165,0.16766 0.13115,0.06758 0.198803,0.0079 0.03968,0.06905 -0.03402,0.15292 -0.08844,0.0415 -0.113764,0.08617 -0.05329,0.102463 -0.0076,0.147288 0.05707,0.222841 0.119433,0.207194 -0.06539,0.09921 -0.04762,0.201335 0.0022,0.234066 0.07143,0.265587 2.257209,-0.556278 -0.04006,-0.06905 z M 7.573228,8.5576793 7.0992,7.736592 6.945751,7.8251842 7.419817,8.6462714 Z" />
</svg>