<svg xmlns="http://www.w3.org/2000/svg" viewBox="0 0 16 16">
  <path d="M 1,1 V 3.7617159 L 2,4.2734375 V 2 H 14 v 8.4296872 l 1,0.5 V 1 Z m 0,9.673825 v 4.326172 H 9.4339549 L 7.4847101,14 H 2 v -2.812501 z" />
  <path d="M 1.3757307,5.7831282 0.28838221,5.2251678 0,5.7874293 1.0873484,6.3453933 1.0333004,6.4503508 3.0412044,7.4806765 3.0952522,7.375719 3.2309393,7.445489 3.1043235,7.6926324 3.1383397,7.8110828 3.2619321,7.8744654 3.1443871,8.1030891 2.8476897,7.9508875 2.8919108,7.8644497 2.0701915,7.4428132 1.8706294,7.8320554 l 0.8216438,0.421663 0.034017,-0.067956 0.3027447,0.1553386 -0.038174,0.07423 0.084662,0.2461985 0.4818591,0.2472567 0.1689475,0.1881448 2.8666632,1.470992 0.2944296,0.0497 0.061607,0.03175 -0.8429606,1.643528 0.05178,0.127786 1.723717,0.884511 0.1681915,-0.05416 0.1995621,-0.38925 0.081261,0.252397 -0.066521,0.129751 0.00325,0.189505 0.2883823,0.04649 0.051781,0.127785 2.6769664,0.59316 0.112253,-0.03628 -0.131152,-0.200164 0.08013,-0.169625 0.08088,-0.294198 0.02268,-0.285506 -0.048,-0.453966 -0.07748,-0.305197 -0.05178,-0.112403 0.05669,-0.04925 0.08239,-0.16063 0.434578,0.02003 2.001705,1.027147 0.651034,1.013087 -0.096,0.278551 0.01512,0.08727 0.363219,0.326778 0.09298,0.01663 0.191247,-0.47943 0.345832,-0.735609 0.316351,-0.555768 0.208632,-0.345676 L 16,12.647921 l -0.01134,-0.09018 -0.24076,-0.123628 -0.05594,0.01814 -0.166679,-0.08557 -0.09638,0.03628 -0.06652,0.129752 -2.866662,-1.470996 -0.08731,0.03326 -0.415489,-0.361512 -0.0548,-0.152731 -0.08542,-0.153071 -0.104694,-0.085 -0.03024,0.0091 -0.04422,0.08644 -0.191616,-0.09826 0.136065,-0.2657 -0.09751,-0.1749169 -0.04951,-0.025701 0.114144,-0.2224252 -0.12964,-0.066558 -0.114143,0.2224252 -0.117545,-0.060246 -0.425695,0.023433 L 10.70964,9.9432465 9.4801792,9.3123564 8.9932176,9.2575911 7.362176,8.4206639 7.434744,8.2785158 7.4158461,8.1975206 6.4458914,7.699787 5.9242332,7.6974588 5.0036777,7.2250746 4.9004951,6.9383974 4.0540573,6.5040844 4.0075685,6.5188245 3.8650781,6.7968466 3.6674059,6.6953285 3.6016411,6.7164938 3.5192462,6.8771237 3.3835591,6.8073536 3.4376071,6.7023962 1.4297032,5.6720705 Z m 7.7841287,7.3426538 0.1530732,-1.622778 0.069166,-0.08935 0.084284,-0.0426 0.1175451,0.0291 0.7413653,0.380425 -0.04498,0.148649 -0.126238,0.169511 -0.09033,0.05507 0.01134,0.05922 0.05896,-0.0079 0.122081,-0.07011 0.125482,-0.122759 0.100915,-0.151143 0.02646,0.01285 0.03969,0.09033 -0.0076,0.136554 -0.08504,0.135799 -0.115655,0.07332 -0.130773,0.04214 -0.01134,0.09619 0.12964,0.06656 0.08315,0.08156 0.03402,0.13406 -0.03024,0.148762 -0.03402,0.15496 0.03402,0.149405 0.02268,0.19903 -0.01512,0.217247 -0.04082,0.03364 -1.000872,-0.209197 -0.1080961,-0.0788 -0.070678,-0.09086 z" />
  <path d="M 10,3 V 4 h 1 v 3 h -1 v 1 h 3 V 7 H 12 V 4 3 Z" />
</svg>