<?xml version="1.0" encoding="UTF-8" standalone="no"?>
<svg
   viewBox="0 0 16 16"
   version="1.1"
   id="svg7714"
   sodipodi:docname="weapon-slot-kinetic.svg"
   inkscape:version="1.2 (dc2aedaf03, 2022-05-15)"
   xmlns:inkscape="http://www.inkscape.org/namespaces/inkscape"
   xmlns:sodipodi="http://sodipodi.sourceforge.net/DTD/sodipodi-0.dtd"
   xmlns="http://www.w3.org/2000/svg"
   xmlns:svg="http://www.w3.org/2000/svg">
  <defs
     id="defs7718" />
  <sodipodi:namedview
     id="namedview7716"
     pagecolor="#ffffff"
     bordercolor="#666666"
     borderopacity="1.0"
     inkscape:showpageshadow="2"
     inkscape:pageopacity="0.0"
     inkscape:pagecheckerboard="0"
     inkscape:deskcolor="#d1d1d1"
     showgrid="false"
     inkscape:zoom="16"
     inkscape:cx="7.46875"
     inkscape:cy="6.625"
     inkscape:window-width="1920"
     inkscape:window-height="1017"
     inkscape:window-x="-8"
     inkscape:window-y="-8"
     inkscape:window-maximized="1"
     inkscape:current-layer="svg7714" />
  <path
     id="path14629"
     style="fill:#000000;fill-opacity:1;stroke-width:0.0520123;stroke-linejoin:bevel"
     d="m 4.46572,7 c 6.1e-4,0.001 10e-4,0.003 0.002,0.004 l 0.002,-0.002 z m 0.002,0.004 C 4.41592,7.0447 4.40762,7.096 4.38762,7.14071 4.1548,7.65632 3.92312,8.1731 3.68841,8.68758 3.57389,8.93782 3.48583,8.96594 3.247,8.83797 3.243,8.83597 3.239,8.83097 3.2357,8.82797 2.30065,8.30394 1.33229,7.84848 0.36655,7.38656 c -0.034,-0.0178 -0.0669,-0.0527 -0.11339,-0.0314 -0.0151,0.0403 0.0189,0.067 0.034,0.0957 0.21619,0.42227 0.43347,0.84306 0.65234,1.26367 0.27742,0.53389 0.55809,1.06743 0.85157,1.59571 0.12283,0.21985 0.0911,0.31169 -0.13493,0.42382 -0.0227,0.009 -0.0453,0.0166 -0.0684,0.0295 -0.49444,0.2324 -0.98725,0.46634 -1.47851,0.70117 -0.0389,0.0174 -0.0915,0.0204 -0.10923,0.082 0.37905,0.17484 0.75693,0.35248 1.13673,0.52344 0.17235,0.0778 0.35036,0.14498 0.52343,0.22072 0.18633,0.0821 0.23357,0.21434 0.15231,0.39843 -0.0113,0.0231 -0.0227,0.0459 -0.034,0.0684 -0.53613,0.9286 -0.97981,1.90448 -1.43165,2.875 -0.0113,0.0261 -0.0544,0.0555 -0.0189,0.0918 0.003,2.6e-4 0.004,0 0.008,0 0.0265,0 0.0488,-0.009 0.0665,-0.0234 0.93385,-0.48843 1.86917,-0.97522 2.79689,-1.47852 0.0457,-0.0261 0.0926,-0.0527 0.15042,-0.0781 0.12926,-0.0514 0.21317,-0.0231 0.28725,0.0938 0.0264,0.0409 0.0491,0.0833 0.0722,0.13477 0.17915,0.38366 0.35754,0.7673 0.53711,1.1504 0.0741,0.15874 0.14966,0.31604 0.22677,0.47656 0.048,-0.0302 0.0548,-0.0737 0.0703,-0.10938 0.20938,-0.46499 0.41699,-0.93146 0.62502,-1.39648 l 0.004,-0.0178 c 0.034,-0.0786 0.0714,-0.15673 0.10734,-0.21876 0.0873,-0.15084 0.15722,-0.17212 0.31445,-0.10548 l 0.004,0.002 c 0.0302,0.0147 0.0646,0.0302 0.0899,0.0449 0.923,0.52491 1.88618,0.96945 2.84372,1.42578 0.034,0.0178 0.0684,0.0472 0.13266,0.0295 C 8.17308,14.68409 7.69549,13.7139 7.16251,12.7715 6.9981,12.4815 7.02569,12.39502 7.33258,12.25783 7.8164,12.04149 8.30245,11.82727 8.7857,11.60939 c 0.0419,-0.0178 0.0983,-0.02 0.11905,-0.0781 l -0.0839,-0.0449 C 8.30891,11.23384 7.79769,10.97895 7.27786,10.74224 7.03446,10.63169 7.0114,10.54522 7.13537,10.31061 c 0.002,-0.006 0.004,-0.008 0.008,-0.0136 0.0937,-0.16686 0.18406,-0.33471 0.27326,-0.5039 L 6.73661,9.3205 c -0.257,0.56486 -0.53657,1.12053 -0.83788,1.66797 l 1.07225,0.52734 c -0.09,0.069 -0.17688,0.0941 -0.25776,0.13085 -0.23206,0.10496 -0.46647,0.20682 -0.69921,0.31057 -0.12057,0.0544 -0.11981,0.0563 -0.0586,0.16796 0.30048,0.54388 0.57774,1.0994 0.85546,1.65625 0.004,0.0178 0.008,0.0336 0.0113,0.0527 C 6.19435,13.54969 5.58566,13.26132 4.98233,12.92985 L 4.48234,14.04117 3.95891,12.93375 c -0.59625,0.31378 -1.18696,0.6232 -1.77736,0.93359 l -0.0264,-0.0234 C 2.42614,13.22908 2.71059,12.61942 3.04575,12.01777 2.6867,11.85404 2.32421,11.69753 1.95593,11.50605 2.32708,11.32894 2.68284,11.16022 3.0399,10.99043 2.76815,10.46806 2.49561,9.94971 2.22741,9.42793 2.18771,9.35223 2.13561,9.28121 2.12196,9.19356 c -0.0151,-0.002 -0.0265,-0.0117 -0.0151,-0.0234 0.0113,-0.0117 0.0227,-10e-4 0.0265,0.0117 0.0737,0.006 0.13342,0.0473 0.19729,0.0762 0.54403,0.2558 1.08715,0.5153 1.62698,0.81445 0.1697,-0.37474 0.336,-0.74567 0.51171,-1.13281 v 0.004 l 0.51367,1.13476 C 5.52284,9.77886 6.06441,9.50262 6.61777,9.23666 L 5.87952,8.7269 C 5.81752,8.7613 5.75555,8.7956 5.69394,8.83042 5.44222,8.97189 5.34774,8.94086 5.22717,8.68393 5.21917,8.66613 5.21207,8.64603 5.20067,8.62723 5.05327,8.2966 4.90587,7.96724 4.7573,7.637 4.6636,7.42697 4.56681,7.21759 4.47005,7.00419 Z m 4.10154,0.31835 c -0.0227,0.005 -0.0412,0.0215 -0.0605,0.0314 C 7.98492,7.61949 7.4613,7.88315 6.94041,8.15453 7.06513,8.61423 7.33355,9.26828 7.49509,9.64281 7.87229,8.91732 8.2174,8.17477 8.56345,7.43383 c 0.0151,-0.0336 0.0507,-0.0663 0.0302,-0.11134 -0.008,-0.002 -0.0151,-0.002 -0.0227,0 z m -4.09958,3.27344 c -0.49451,0 -0.89476,0.40028 -0.8965,0.89453 0,0.49398 0.40056,0.89453 0.89454,0.89453 0.49395,0 0.89454,-0.40055 0.89454,-0.89453 0,-0.49218 -0.3987,-0.89185 -0.89065,-0.89453 z m 0.002,0.64258 h 0.002 c 0.1353,10e-4 0.24604,0.11108 0.24982,0.24608 -3e-4,0.13448 -0.10507,0.24431 -0.23811,0.25391 -0.003,2e-4 -0.008,0 -0.0113,0 -0.13569,0 -0.24643,-0.10741 -0.2521,-0.24219 v -0.008 c 0,-0.13765 0.11263,-0.24892 0.24983,-0.25001 z" />
  <path
     id="path14633"
     d="m 13.31507,7 v 4.19369 l 1.29578,1.60211 1.39007,-1.83767 z M 10.77058,7.70685 8.60302,10.6754 12.20767,16 12.79671,15.19899 v -4.94771 z"
     style="fill:#b27700;fill-opacity:1;stroke-width:0.00935724" />
  <path
     id="path14635"
     style="fill:#ca1c99;fill-opacity:1;stroke-width:0.0128532"
     d="M 8.17079,0 6.13174,1.76367 c -0.72283,0.62597 -0.72283,1.74846 0,2.375 L 6.704,4.63476 7.70206,3.76953 7.4424,3.54491 c -0.36094,-0.31302 -0.36094,-0.87393 0,-1.1875 l 0.72851,-0.6289 0.72657,0.6289 c 0.36208,0.31299 0.36208,0.87394 0,1.1875 L 8.63783,3.76953 8.17102,4.17383 7.173,5.03906 6.70422,5.44336 6.13197,5.93945 c -0.7228,0.626 -0.7228,1.74904 0,2.375 L 6.91909,8.99414 C 6.31206,8.4588 6.31508,7.50851 6.92709,6.97656 L 7.44077,6.5332 7.70042,6.30666 8.16919,5.90236 9.16722,5.03908 9.63403,4.63283 l 0.002,0.002 0.57226,-0.49414 c 0.72283,-0.62654 0.72283,-1.74957 0,-2.375 z M 9.63566,5.44336 8.6376,6.30859 8.89726,6.53321 9.41093,6.97852 C 9.70725,7.23508 9.85994,7.58918 9.87188,7.94727 L 10.70194,6.73829 C 10.62594,6.44027 10.4627,6.16041 10.20977,5.94141 l -0.002,-0.002 z" />
</svg>
