<svg viewBox="0 0 16 16" xmlns="http://www.w3.org/2000/svg"><path d="m8.00194 0-.00193.0019c-.018898.03515-.051402.08092-.074079.117203-.5806488.94427-1.1830677 1.875549-1.7969007 2.798831-.359811.540794-.7407874 1.0701583-1.0019528 1.6699202-.2732598.624994-.3915968 1.2679748-.1935118 1.9394532.1855748.6284447.592252 1.0967622 1.099578 1.4882797l-.00756-.00378c.2728819.2138079.587452.3780322.947263.488281-.026457-.052762-.073323-.061191-.1073386-.082016-.3499842-.212485-.6451653-.4836623-.8515275-.839845-.3961701-.6850242-.343937-1.3660686.041197-2.0351546.5941795-1.0329827 1.2872315-2.0004285 1.9199244-3.0097665.00756-.0098.022677-.01512.038929-.02343.1096063.172157.216189.342501.3261733.511718.5386582.8348296 1.1060409 1.6528138 1.6035401 2.513673.5397166.9328478.3779526 1.9031055-.4336252 2.6093744l.00756-.00378c-.072945.061304-.1489134.120378-.2286615.1777512l.060472.062513c.3996881-.1753216.7452503-.4310029 1.0507873-.7479956.694072-.7190249.920164-1.5583786.660132-2.5273436-.147023-.5476989-.426633-1.0322532-.732397-1.5000004-.7506515-1.150386-1.5214483-2.288069-2.2343806-3.462893-.026457-.04411-.080504-.122533-.091843-.142564zm-.00193 4.4082028c-.015118.03137-.018898.044939-.026457.056655-.3484724.5912617-.7080189 1.1740498-1.0292787 1.7812497-.2932914.5546041-.1776378 1.0991055.3027401 1.5039081.1390866.1175055.2917795.2003527.4512.246085l-.018898-1.326172 1.0703244 1.095704c.4659433-.3726613.6038205-.9100006.3594362-1.4316434-.144-.3067842-.3208819-.5945612-.49217-.8867187-.1976693-.3381165-.3970394-.6762255-.6113386-1.0390601z" fill="#f0631e"/><path d="m4.2500031 7.4999999c-2.3481071 0-4.2500031 1.9019641-4.2500031 4.2499991 0 2.348213 1.9018582 4.25 4.2500031 4.25 2.0518299 0 3.7629354-1.451562 4.1620913-3.384768l-.7323969-.332031-.3945448-.783205c-.030236.381804-.1239685.758033-.2849764 1.10742-.1114961.225676-.2520945.438648-.4277291.613282-.1783937.174576-.3926552.3072-.6210898.378908.1938898-.137612.3541417-.307048.4765606-.496093.1194331-.190639.2112756-.395622.263811-.613281.1198111-.427434.1273701-.880944.0763465-1.316409-.0529134-.435364-.184063-.851826-.4042961-1.2050763-.2180787-.3556913-.5216881-.6597241-.8749984-.8886727-.1806614-.1193953-.3511181-.204926-.5507905-.2656252-.1938898-.072-.4008945-.1004977-.6133039-.1152378-.2101418-.010961-.4378961-.010583-.6503811.00567-.2124095.016252-.4237229.06395-.630841.1308472-.8314582.2636969-1.5611338.8746576-2.09767554 1.6582028.28157484-.9140032.97062044-1.741149 1.90820784-2.158201v.00983c.2335748-.1068094.4806425-.1815307.7382929-.2246173.2554961-.048189.5014677-.064441.761726-.064441.2150551.00161.4340787.02948.6503811.082016a4.3437501 4.8125 0 0 1 -.5429669-.6328173c-.069921-.00341-.1402205-.00605-.2108977-.00605zm2.2949291 1.611326c.1432441.1651653.2698583.3446173.3749291.5371086.2502047.4547035.3673701.9641655.3768189 1.4589845l1.1601638.048831c-.0929764-.668318-.3390236-1.2875862-.7050709-1.8183566a4.3437501 4.8125 0 0 1 -1.2070299-.2265449zm-4.1250141.6718752c-.1938898.1376126-.3560315.3079559-.478526.4960929-.119811.190867-.2108976.396393-.263811.613282-.1194331.427355-.1273701.88281-.076347 1.318359.052913.435387.1844409.849872.4042961 1.203126.2177008.355691.5236913.6598.876926.888673.1806614.119395.3499842.204888.5488251.265625.1938898.07177.4008567.100498.613304.115238.2101417.01096.4398614.0102.6523464-.0061.2127879-.01587.4216068-.06365.6288761-.130845.8314583-.263962 1.561096-.872647 2.0976756-1.656249-.2785512.910953-.9658961 1.736575-1.9062425 2.15625v-.0079c-.2335748.106851-.4806047.181761-.7382929.224621-.2551181.04819-.5033953.06251-.7636536.06251-.2577637-.0053-.519874-.03848-.7773732-.113272-.255496-.072025-.5119748-.196863-.724611-.339842-.4356661-.287093-.8101795-.675308-1.0625008-1.13672-.255496-.464889-.3734173-.986014-.3788976-1.490233-.0035528-.504722.0869291-1.009191.2989606-1.468751.1114961-.225714.2520945-.438675.4277291-.613282.1783938-.1745759.3926174-.3090893.6210898-.3808588zm1.830085.4062499c.8632819 0 1.5624945.698075 1.5624945 1.560548 0 .863036-.6992126 1.562498-1.5624945 1.562498-.8633197 0-1.5624945-.699942-1.5624945-1.562498 0-.86304.6992126-1.560548 1.5624945-1.560548z" fill="#8e749e"/><path d="m11.488025 15.858818c0-.508093 0-.986766 0-1.464847 0-.353914-.03893-.378784-.340535-.212031q-1.022778.56287-2.0425704 1.128098c-.1938898.107641-.408189.145399-.6238111.174539-.3189921.04581-.6386267.08115-.9797291.07174.042709-.08115.1160315-.115653.1674331-.166526.303874-.290192.6138331-.574624.9165354-.866872.4769386-.459073.9489638-.9242 1.4253351-1.384422.0669-.06157.05405-.094-.026456-.133077-.531024-.276251-1.0447752-.588414-1.5908413-.834593-.3152126-.141657-.537789-.377953-.7303559-.657645.058583-.03099.1065827-.0189.1526929-.0189.4594772 0 .9185764.002 1.3780535 0 .2498268 0 .2849764-.06187.1678111-.270312-.3771969-.691833-.7544693-1.382893-1.1416819-2.0680608-.120189-.2133921-.1651654-.4425033-.1976693-.6754772-.043843-.3170645-.088819-.6363363-.069165-.9804472.1500472.1566236.2868661.2967307.4204346.4413732q.9836976 1.0555465 1.9974043 2.081722c.08353.08137.109985.06157.156473-.0189.280819-.545654.59947-1.0703469.856289-1.6284244.133417-.2901921.377197-.4795805.627288-.6659187.03893.061568.02646.1046929.02646.1515212v1.3929071c0 .2548535.04384.2840315.264945.1625197q1.042847-.5696391 2.081839-1.1470224c.195024-.1095307.406375-.155263.619994-.1836472.267213-.030992.536844-.061871.80572-.081147.05518-.00794.112252 0 .19011 0-.07446.1229103-.166677.1916977-.248693.2674772q-1.119685 1.0431516-2.207509 2.1183965c-.09373.094-.08428.131188.03024.191169.539716.281197 1.060989.596655 1.615521.849797.262677.118601.445908.334903.61697.558878.0189.01852.04384.04581.03024.07174-.01512.0189-.06274.0189-.09373.0189q-.689424 0-1.378356 0c-.05329 0-.106583.0019-.159496.0023-.118299 0-.14778.06157-.09713.159307q.181417.348473.369638.689212c.281575.512081.567231 1.022181.84771 1.534991.144756.264491.16063.563429.199559.854317.02646.157946.03893.340309.03893.52354 0 .0573-.0011.104693-.0022.155036l.000227-.0079c-.116078-.104693-.254031-.206438-.377244-.329084-.216567-.220044-.420397-.453902-.635338-.6755-.464278-.48009-.932183-.955389-1.394835-1.435502-.07786-.07174-.116032-.08115-.174236.0189-.27137.521775-.578419 1.027404-.819855 1.566984-.134174.304554-.370016.520033-.665159.724229zm.26759-4.885874c-.03024.0189-.04989.03099-.06916.06187-.222614.22303-.442696.447053-.667351.665918-.06652.06157-.05443.107074.0076.165203q.326551.319333.645846.646697c.0582.06157.096.07173.162519.0083.218079-.22647.441638-.447614.667352-.6679.04989-.0565.06123-.07174.0023-.136516-.228661-.22303-.452825-.449972-.678576-.67553-.02646-.0189-.04384-.03099-.07105-.06157z" fill="#79bbe8"/></svg>