<svg viewBox="0 0 16 16" xmlns="http://www.w3.org/2000/svg"><path d="m4.46572 7c.00061.001.001.003.002.004l.002-.002zm.002.004c-.0518.0407-.0601.092-.0801.13671-.23282.51561-.4645 1.03239-.69921 1.54687-.11452.25024-.20258.27836-.44141.15039-.004-.002-.008-.007-.0113-.01-.93505-.52403-1.90341-.97949-2.86915-1.44141-.034-.0178-.0669-.0527-.11339-.0314-.0151.0403.0189.067.034.0957.21619.42227.43347.84306.65234 1.26367.27742.53389.55809 1.06743.85157 1.59571.12283.21985.0911.31169-.13493.42382-.0227.009-.0453.0166-.0684.0295-.49444.2324-.98725.46634-1.47851.70117-.0389.0174-.0915.0204-.10923.082.37905.17484.75693.35248 1.13673.52344.17235.0778.35036.14498.52343.22072.18633.0821.23357.21434.15231.39843-.0113.0231-.0227.0459-.034.0684-.53613.9286-.97981 1.90448-1.43165 2.875-.0113.0261-.0544.0555-.0189.0918.003.00026.004 0 .008 0 .0265 0 .0488-.009.0665-.0234.93385-.48843 1.86917-.97522 2.79689-1.47852.0457-.0261.0926-.0527.15042-.0781.12926-.0514.21317-.0231.28725.0938.0264.0409.0491.0833.0722.13477.17915.38366.35754.7673.53711 1.1504.0741.15874.14966.31604.22677.47656.048-.0302.0548-.0737.0703-.10938.20938-.46499.41699-.93146.62502-1.39648l.004-.0178c.034-.0786.0714-.15673.10734-.21876.0873-.15084.15722-.17212.31445-.10548l.004.002c.0302.0147.0646.0302.0899.0449.923.52491 1.88618.96945 2.84372 1.42578.034.0178.0684.0472.13266.0295-.49137-.97022-.96896-1.94041-1.50194-2.88281-.16441-.29-.13682-.37648.17007-.51367.48382-.21634.96987-.43056 1.45312-.64844.0419-.0178.0983-.02.11905-.0781l-.0839-.0449c-.51194-.25255-1.02316-.50744-1.54299-.74415-.2434-.11055-.26646-.19702-.14249-.43163.002-.006.004-.008.008-.0136.0937-.16686.18406-.33471.27326-.5039l-.68002-.47261c-.257.56486-.53657 1.12053-.83788 1.66797l1.07225.52734c-.09.069-.17688.0941-.25776.13085-.23206.10496-.46647.20682-.69921.31057-.12057.0544-.11981.0563-.0586.16796.30048.54388.57774 1.0994.85546 1.65625.004.0178.008.0336.0113.0527-.62782-.28445-1.23651-.57282-1.83984-.90429l-.49999 1.11132-.52343-1.10742c-.59625.31378-1.18696.6232-1.77736.93359l-.0264-.0234c.27099-.61486.55544-1.22452.8906-1.82617-.35905-.16373-.72154-.32024-1.08982-.51172.37115-.17711.72691-.34583 1.08397-.51562-.27175-.52237-.54429-1.04072-.81249-1.5625-.0397-.0757-.0918-.14672-.10545-.23437-.0151-.002-.0265-.0117-.0151-.0234.0113-.0117.0227-.001.0265.0117.0737.006.13342.0473.19729.0762.54403.2558 1.08715.5153 1.62698.81445.1697-.37474.336-.74567.51171-1.13281v.004l.51367 1.13476c.53983-.2996 1.0814-.57584 1.63476-.8418l-.73825-.50976c-.062.0344-.12397.0687-.18558.10352-.25172.14147-.3462.11044-.46677-.14649-.008-.0178-.0151-.0379-.0265-.0567-.1474-.33063-.2948-.65999-.44337-.99023-.0937-.21003-.19049-.41941-.28725-.63281zm4.10154.31835c-.0227.005-.0412.0215-.0605.0314-.52384.26574-1.04746.5294-1.56835.80078.12472.4597.39314 1.11375.55468 1.48828.3772-.72549.72231-1.46804 1.06836-2.20898.0151-.0336.0507-.0663.0302-.11134-.008-.002-.0151-.002-.0227 0zm-4.09958 3.27344c-.49451 0-.89476.40028-.8965.89453 0 .49398.40056.89453.89454.89453.49395 0 .89454-.40055.89454-.89453 0-.49218-.3987-.89185-.89065-.89453zm.002.64258h.002c.1353.001.24604.11108.24982.24608-.0003.13448-.10507.24431-.23811.25391-.003.0002-.008 0-.0113 0-.13569 0-.24643-.10741-.2521-.24219v-.008c0-.13765.11263-.24892.24983-.25001z" fill="#fff"/><path d="m13.31507 7v4.19369l1.29578 1.60211 1.39007-1.83767zm-2.54449.70685-2.16756 2.96855 3.60465 5.3246.58904-.80101v-4.94771z" fill="#4d88ff"/><path d="m8.17079 0-2.03905 1.76367c-.72283.62597-.72283 1.74846 0 2.375l.57226.49609.99806-.86523-.25966-.22462c-.36094-.31302-.36094-.87393 0-1.1875l.72851-.6289.72657.6289c.36208.31299.36208.87394 0 1.1875l-.25965.22462-.46681.4043-.99802.86523-.46878.4043-.57225.49609c-.7228.626-.7228 1.74904 0 2.375l.78712.67969c-.60703-.53534-.60401-1.48563.008-2.01758l.51368-.44336.25965-.22654.46877-.4043.99803-.86328.46681-.40625.002.002.57226-.49414c.72283-.62654.72283-1.74957 0-2.375zm1.46487 5.44336-.99806.86523.25966.22462.51367.44531c.29632.25656.44901.61066.46095.96875l.83006-1.20898c-.076-.29802-.23924-.57788-.49217-.79688l-.002-.002z" fill="#35e366"/></svg>