<?xml version="1.0" encoding="utf-8"?>
<!-- Generator: Adobe Illustrator 23.0.3, SVG Export Plug-In . SVG Version: 6.00 Build 0)  -->
<svg version="1.1" id="Layer_1" xmlns="http://www.w3.org/2000/svg" xmlns:xlink="http://www.w3.org/1999/xlink" x="0px" y="0px"
	 viewBox="0 0 1000 1000" style="enable-background:new 0 0 1000 1000;" xml:space="preserve">
<style type="text/css">
	.st0{fill:#1A1A1A;}
	.st1{fill:#F37321;}
</style>
<g>
	<path class="st0" d="M112.8,895.8H129c6.3,0,11,2.7,14.1,8.1c1.1,1.8,1.8,3.7,2.1,5.6c0.2,2,0.3,5.4,0.3,10.2
		c0,5.1-0.2,8.7-0.5,10.8c-0.2,1-0.4,1.9-0.8,2.8c-0.4,0.8-0.8,1.6-1.3,2.5c-1.4,2.3-3.2,4.1-5.7,5.6c-2.4,1.6-5.3,2.4-8.8,2.4
		h-15.7V895.8z M119.8,936.8h8.4c3.9,0,6.8-1.4,8.6-4.2c0.8-1,1.3-2.3,1.5-3.9c0.2-1.6,0.3-4.5,0.3-8.7c0-4.2-0.1-7.1-0.3-8.9
		c-0.3-1.8-0.9-3.3-1.8-4.4c-2-2.8-4.7-4.1-8.3-4h-8.4C119.8,902.6,119.8,936.8,119.8,936.8z M156.9,895.8h29.6v6.8h-22.6v13.7h19.3
		v6.4h-19.3v14.1h22.6v6.8h-29.6V895.8z M198.3,932c3.7,3.1,8.1,4.7,13.2,4.8c6-0.1,9.1-2.3,9.2-6.7c0-3.6-2-5.7-6-6.4
		c-2-0.3-4.1-0.6-6.1-0.9c-4-0.7-7-2.2-9.1-4.6c-2.1-2.4-3.2-5.4-3.2-8.9c0-4.2,1.3-7.5,4-10.1c2.6-2.5,6.3-3.8,11.1-3.9
		c5.8,0.1,10.8,1.8,15,4.9l-3.9,6c-3.5-2.4-7.3-3.6-11.5-3.7c-2.2,0-4,0.6-5.4,1.7c-1.5,1.2-2.3,2.9-2.3,5.2c0,1.4,0.5,2.6,1.6,3.7
		c1,1.1,2.7,1.9,5,2.4c1.3,0.2,3,0.5,5.2,0.8c4.3,0.6,7.6,2.2,9.6,4.8c2.1,2.6,3.1,5.5,3.1,8.9c-0.2,9.1-5.6,13.8-16.3,13.9
		c-6.9,0-12.8-2.2-17.7-6.5L198.3,932L198.3,932z M246,902.2h-12.7v-6.4h32.4v6.4H253v41.4h-7L246,902.2L246,902.2z M274.2,895.8h7
		v47.8h-7V895.8z M293.3,895.8h6.6l21,34h0.1v-34h7v47.8h-6.6l-20.9-34h-0.1v34h-7V895.8z M349.1,923.9l-13.9-28.1h7.4l9.8,21.2
		l9.8-21.2h7.4l-13.9,28.1v19.7h-6.6V923.9z M412.3,895.8h7v47.8h-7V895.8z M439.3,902.2h-12.7v-6.4H459v6.4h-12.7v41.4h-7V902.2z
		 M466.8,895.8h29.6v6.8h-22.6v13.7h19.3v6.4h-19.3v14.1h22.6v6.8h-29.6V895.8z M505.3,895.8h6.6l13.3,31.2l13-31.2h6.6v47.8h-7
		v-29.8h-0.2l-9.7,23h-5.8l-9.7-23h-0.1v29.8h-7L505.3,895.8L505.3,895.8z M593.8,895.8h6.6l13.3,31.2l13-31.2h6.6v47.8h-7v-29.8
		h-0.2l-9.7,23h-5.8l-9.7-23h-0.1v29.8h-7L593.8,895.8L593.8,895.8z M670.3,932.9h-17.6l-3.6,10.7h-7.4l16.8-47.8h5.9l16.8,47.8
		h-7.4L670.3,932.9L670.3,932.9z M668.3,926.5l-6.7-20.9h-0.1l-6.7,20.9L668.3,926.5L668.3,926.5z M689.3,895.8h6.6l21,34h0.1v-34h7
		v47.8h-6.6l-20.9-34h-0.1v34h-7L689.3,895.8L689.3,895.8z M760.8,932.9h-17.6l-3.6,10.7h-7.4l16.8-47.8h5.9l16.8,47.8h-7.4
		L760.8,932.9L760.8,932.9z M758.8,926.5l-6.7-20.9H752l-6.7,20.9L758.8,926.5L758.8,926.5z M793.7,917.3h16.5v9.7
		c-0.1,4.8-1.7,8.8-4.8,12c-3.1,3.2-7,4.9-11.7,4.9c-3.6-0.1-6.7-1-9.1-2.8c-2.5-1.7-4.3-3.6-5.4-5.8c-0.3-0.7-0.6-1.4-0.9-2.1
		c-0.3-0.7-0.5-1.5-0.6-2.6c-0.3-1.9-0.5-5.6-0.5-11.1c0-5.6,0.2-9.3,0.5-11.2c0.3-1.9,0.9-3.4,1.6-4.6c1.1-2.2,2.9-4.2,5.4-5.9
		c2.4-1.7,5.5-2.6,9.1-2.7c4.5,0,8.1,1.4,10.9,4.1c2.8,2.7,4.6,6.1,5.3,10.1h-7.4c-0.6-1.9-1.6-3.6-3.1-4.9c-1.6-1.3-3.5-2-5.7-2
		c-1.7,0-3.1,0.4-4.3,1c-1.2,0.7-2.2,1.5-2.9,2.5c-0.9,1-1.5,2.4-1.8,4c-0.3,1.7-0.5,4.9-0.5,9.6s0.2,7.9,0.5,9.6
		c0.3,1.7,0.9,3,1.8,4c0.7,1,1.7,1.8,2.9,2.4c1.2,0.7,2.6,1.1,4.3,1.1c2.7,0,5-1,6.8-2.9c1.8-1.8,2.7-4.3,2.7-7.3v-2.5h-9.5
		L793.7,917.3L793.7,917.3z M821.4,895.8H851v6.8h-22.6v13.7h19.3v6.4h-19.3v14.1H851v6.8h-29.6L821.4,895.8L821.4,895.8z
		 M860.6,895.8h18.1c3.9,0,7,1,9.4,3.1c2.9,2.4,4.5,5.8,4.6,10.2c-0.1,6.5-3.1,10.9-8.9,13.2l10.7,21.2h-8.3l-9.6-20.4h-9v20.4h-7
		L860.6,895.8L860.6,895.8z M867.6,916.8h10.6c2.6,0,4.6-0.8,5.9-2.4c1.3-1.4,1.9-3.2,1.9-5.3c0-2.5-0.8-4.3-2.3-5.4
		c-1.2-1-2.9-1.5-5.2-1.5h-11V916.8z"/>
</g>
<path class="st1" d="M423.4,405l71.6,71.6l71.6-71.6L495,333.5L423.4,405z"/>
<path class="st1" d="M792.7,344.9l-6.2-6.2l-5.3-5.3l-71.6-71.6l-71.6-71.6v0l-79-79L495,47.2l-71.6,71.6l58.1,58.1l85,85l71.6,71.6
	v0l71.6,71.6v0l-71.6,71.6v0l-58.2,58.2l-85,85l-71.6-71.6l-71.6-71.6v0l-66.1-66.1l-5.5-5.5l80.3-80.3l62.8-62.8l-71.6-71.6
	l-71.6,71.6v0l-71.6,71.6v0L137.2,405l71.6,71.6v0l71.6,71.6l0,0l71.6,71.6l71.6,71.6l71.6,71.6l71.6-71.6l71.6-71.6v0l71.6-71.6
	l71.6-71.6l71.6-71.6L792.7,344.9z"/>
<path class="st0" d="M838.5,548.6L728.3,650.5L617.1,548.6h-50.6v312.1l64.7,0V643.6l96.9,89l95.8-88.8v217l64.7,0V548.6H838.5z
	 M463.9,548.6h62.4v312.1h-62.4V548.6z M371,548.6H111.3v62.4H361l0,62.4h0v50.7l0,74.1H173.7V673.5h-62.4v187.3l62.4,0h62.4v0
	l62.4,0H361v0l62.4,0V735.9v0V548.6L371,548.6z"/>
</svg>
