<svg xmlns="http://www.w3.org/2000/svg" width="1000" height="1000" viewBox="0 0 1000 1000"><g fill="#1A1A1A"><path d="M112.78 895.803h16.205c6.27.045 10.973 2.733 14.108 8.068 1.122 1.793 1.83 3.673 2.126 5.641.233 1.968.349 5.367.349 10.199 0 5.138-.18 8.724-.54 10.757-.169 1.027-.424 1.945-.763 2.755-.36.786-.794 1.606-1.302 2.459-1.356 2.252-3.241 4.11-5.656 5.575-2.394 1.574-5.327 2.361-8.801 2.361H112.78v-47.815zm7.012 40.997h8.396c3.944 0 6.806-1.392 8.587-4.174.784-1.029 1.283-2.333 1.495-3.91.19-1.556.287-4.47.287-8.742 0-4.162-.096-7.143-.287-8.939-.254-1.796-.858-3.253-1.812-4.37-1.951-2.782-4.708-4.13-8.27-4.043h-8.396V936.8zM156.899 895.803h29.586v6.818H163.91v13.682h19.27v6.422h-19.27V936.8h22.575v6.818h-29.586v-47.815zM198.318 932.034c3.688 3.134 8.075 4.722 13.162 4.766 6.019-.087 9.071-2.309 9.156-6.663.043-3.566-1.969-5.711-6.037-6.434a922.678 922.678 0 0 1-6.132-.886c-3.982-.679-7.011-2.199-9.087-4.562-2.14-2.429-3.209-5.383-3.209-8.862 0-4.18 1.343-7.55 4.031-10.109 2.602-2.539 6.294-3.829 11.076-3.874 5.755.132 10.759 1.778 15.012 4.939l-3.909 5.953c-3.476-2.365-7.3-3.592-11.475-3.681-2.161 0-3.962.559-5.403 1.675-1.504 1.16-2.278 2.888-2.32 5.186 0 1.379.519 2.626 1.557 3.742 1.038 1.138 2.701 1.926 4.988 2.363 1.271.219 3.007.47 5.211.755 4.342.612 7.551 2.221 9.626 4.824 2.055 2.561 3.083 5.537 3.083 8.929-.233 9.146-5.65 13.786-16.251 13.917-6.856 0-12.75-2.175-17.68-6.526l4.601-5.452zM245.963 902.228H233.27v-6.425h32.408v6.425h-12.702v41.391h-7.012v-41.391zM274.16 895.803h7.012v47.815h-7.012v-47.815zM293.289 895.803h6.61l20.975 33.992H321v-33.992h7.012v47.815h-6.642l-20.942-33.991h-.127v33.991h-7.012v-47.815zM349.116 923.948l-13.939-28.146h7.435l9.818 21.215 9.817-21.215h7.435l-13.947 28.139v19.677h-6.619v-19.67zM412.275 895.803h7.012v47.815h-7.012v-47.815zM439.275 902.228h-12.694v-6.425h32.408v6.425h-12.702v41.391h-7.012v-41.391zM466.8 895.803h29.586v6.818h-22.575v13.682h19.27v6.422h-19.27V936.8h22.575v6.818H466.8v-47.815zM505.296 895.803h6.608l13.279 31.167 13.025-31.167h6.631v47.815h-7.012v-29.819h-.158l-9.694 22.963h-5.848l-9.693-22.963h-.127v29.819h-7.012v-47.815zM593.839 895.803h6.608l13.279 31.167 13.025-31.167h6.631v47.815h-7.012v-29.819h-.158l-9.694 22.963h-5.848l-9.693-22.963h-.127v29.819h-7.012v-47.815zM670.283 932.924h-17.564l-3.558 10.694h-7.433l16.835-47.815h5.876l16.834 47.815h-7.401l-3.589-10.694zm-2.001-6.422l-6.702-20.918h-.127l-6.701 20.918h13.53zM689.324 895.803h6.61l20.975 33.992h.127v-33.992h7.012v47.815h-6.642l-20.943-33.991h-.127v33.991h-7.012v-47.815zM760.816 932.924h-17.564l-3.558 10.694h-7.433l16.835-47.815h5.876l16.834 47.815h-7.401l-3.589-10.694zm-2.001-6.422l-6.702-20.918h-.127l-6.701 20.918h13.53zM793.658 917.319h16.462v9.728c-.085 4.781-1.672 8.788-4.762 12.02-3.112 3.21-7.027 4.857-11.748 4.945-3.641-.088-6.678-1.006-9.111-2.755-2.478-1.684-4.276-3.629-5.398-5.838a53.87 53.87 0 0 1-.92-2.065c-.254-.678-.466-1.53-.636-2.559-.317-1.923-.476-5.618-.476-11.084 0-5.554.158-9.27.476-11.15.339-1.88.857-3.399 1.556-4.559 1.122-2.208 2.921-4.176 5.398-5.903 2.434-1.749 5.471-2.645 9.111-2.689 4.467.045 8.107 1.41 10.923 4.1 2.814 2.71 4.593 6.066 5.334 10.066h-7.44a10.605 10.605 0 0 0-3.116-4.943c-1.568-1.296-3.477-1.967-5.723-2.011-1.653.044-3.073.384-4.261 1.019-1.208.658-2.184 1.479-2.925 2.465-.912 1.03-1.516 2.356-1.812 3.978-.339 1.709-.509 4.919-.509 9.629s.17 7.898.509 9.563c.298 1.665.902 3.012 1.814 4.042.742.986 1.718 1.786 2.927 2.399 1.188.723 2.609 1.084 4.264 1.084 2.736 0 4.995-.965 6.777-2.895 1.781-1.842 2.693-4.266 2.736-7.271v-2.5h-9.45v-6.816zM821.417 895.803h29.587v6.818h-22.575v13.682H847.7v6.422h-19.271V936.8h22.575v6.818h-29.587v-47.815zM860.584 895.803h18.096c3.858 0 7.007 1.05 9.445 3.148 2.934 2.384 4.465 5.783 4.592 10.199-.085 6.494-3.065 10.91-8.943 13.249l10.72 21.219h-8.331l-9.586-20.435h-8.98v20.435h-7.012v-47.815zm7.012 20.959h10.637c2.633-.043 4.606-.832 5.923-2.367 1.295-1.425 1.943-3.179 1.943-5.262-.043-2.498-.817-4.307-2.325-5.425-1.188-.986-2.908-1.48-5.159-1.48h-11.019v14.534z"/></g><linearGradient id="a" gradientUnits="userSpaceOnUse" x1="562.369" y1="472.383" x2="459.186" y2="369.2"><stop offset="0" stop-color="#6d6e71"/><stop offset="1" stop-color="#414042"/></linearGradient><path fill="url(#a)" d="M423.434 405.01l71.564 71.561 71.559-71.561-71.559-71.559z"/><linearGradient id="b" gradientUnits="userSpaceOnUse" x1="676.85" y1="586.873" x2="315.823" y2="225.846"><stop offset="0" stop-color="#fbb040"/><stop offset="1" stop-color="#f36e21"/></linearGradient><path fill="url(#b)" d="M792.723 344.938l-6.171-6.171-5.32-5.316-71.558-71.558-71.564-71.565v.003l-78.987-78.992-64.137-64.131-71.558 71.562 58.077 58.079 85.046 85.046 71.559 71.553v.003l71.564 71.561v.003l-71.564 71.559v.002l-58.161 58.158-84.963 84.959-71.558-71.558-71.558-71.561v.002l-66.056-66.055-5.509-5.509 80.333-80.333 62.79-62.792-71.558-71.559-71.565 71.559v.003l-71.564 71.561v.003l-71.558 71.558 71.564 71.559v.003l71.564 71.561-.006.004 71.565 71.557 71.558 71.562 71.565 71.559 71.558-71.559 71.564-71.565v.003l71.559-71.561 71.558-71.561 71.565-71.559z"/><path fill="#1A1A1A" d="M838.52 548.642L728.274 650.46l-111.14-101.818h-50.577v312.132l64.742.002V643.603l96.875 88.97 95.784-88.757v216.96l64.743-.002V548.642zM463.909 548.646h62.422v312.132h-62.422zM371.026 548.645H111.299v62.427h249.712l-.005 62.426h.005v50.735l-.005 74.119H173.727V673.498h-62.428v187.281l62.428-.003h62.428v.003l62.423-.003h62.433v.003l62.423-.003V735.923v.003-187.281z"/></svg>