<svg xmlns="http://www.w3.org/2000/svg" version="1" width="21.333" height="21.333" viewBox="0 0 16.000000 16.000000"><path d="M9.598 8L8 6.403 6.403 8 8 9.597z"/><path d="M14.508 6.521l-.119-.118-1.597-1.598-1.597-1.597-1.763-1.763L8 .013 6.403 1.611l1.296 1.296 1.898 1.898 1.598 1.598L12.792 8l-1.597 1.597-1.298 1.299L8 12.792l-1.597-1.597-1.598-1.598-1.474-1.474L3.208 8 5 6.207l1.402-1.402-1.598-1.597-1.597 1.597L1.61 6.403.013 8l1.598 1.597 1.597 1.598 1.597 1.597 1.598 1.597L8 15.987l1.597-1.598 1.598-1.597 1.597-1.597 1.597-1.598L15.987 8 14.646 6.66z"/></svg>