<?xml version="1.0" standalone="no"?>
<!DOCTYPE svg PUBLIC "-//W3C//DTD SVG 20010904//EN"
 "http://www.w3.org/TR/2001/REC-SVG-20010904/DTD/svg10.dtd">
<svg version="1.0" xmlns="http://www.w3.org/2000/svg"
 width="16.000000pt" height="16.000000pt" viewBox="0 0 16.000000 16.000000"
 preserveAspectRatio="xMidYMid meet">
<metadata>
Created by potrace 1.11, written by Peter Selinger 2001-2013
</metadata>
<g transform="translate(0.000000,16.000000) scale(0.002286,-0.002286)"
fill="#000000" stroke="none">
<path d="M2999 6966 c-2 -2 -26 -6 -53 -9 -98 -12 -174 -89 -190 -192 -13 -90
-16 -130 -21 -350 -4 -126 -8 -295 -10 -375 -10 -348 -15 -527 -20 -695 -14
-453 -28 -1157 -29 -1455 -1 -274 0 -287 21 -325 27 -50 65 -87 123 -117 l45
-23 610 0 610 0 40 22 c53 29 96 69 125 118 24 39 25 42 24 295 -1 543 -42
2424 -60 2795 -7 138 -21 180 -80 239 -74 74 -50 71 -620 73 -282 1 -513 0
-515 -1z"/>
<path d="M1488 6385 c-2 -2 -16 -6 -31 -9 -75 -13 -138 -68 -507 -434 -399
-396 -430 -444 -370 -578 21 -48 38 -75 263 -399 284 -410 334 -483 490 -722
84 -127 157 -240 164 -250 18 -27 213 -336 224 -353 5 -8 36 -59 69 -113 33
-54 60 -100 60 -102 0 -4 22 -41 90 -155 44 -74 155 -316 190 -412 10 -29 28
-78 40 -108 31 -81 115 -365 160 -535 15 -60 31 -117 34 -125 3 -8 8 -26 10
-40 3 -14 8 -38 11 -55 3 -16 10 -43 15 -60 5 -16 11 -41 14 -55 2 -14 12 -56
21 -95 9 -38 19 -79 21 -90 2 -11 19 -94 39 -185 19 -91 48 -237 65 -325 16
-88 32 -170 34 -181 2 -12 7 -37 10 -55 3 -19 8 -47 11 -64 21 -118 35 -195
40 -229 3 -21 7 -48 10 -60 5 -23 10 -50 26 -146 21 -133 52 -257 75 -307 33
-69 95 -102 205 -108 109 -6 986 -6 1043 1 62 7 81 15 133 53 55 40 92 99 103
164 5 29 20 120 35 202 15 83 28 161 30 175 2 14 7 39 10 55 2 17 12 71 21
120 8 50 24 135 34 190 10 55 21 114 24 130 6 39 32 175 57 300 11 55 23 111
25 125 3 14 12 59 21 100 8 41 17 84 19 95 2 11 6 31 9 45 3 14 7 34 9 45 16
80 61 277 95 415 22 91 44 183 49 205 58 239 146 523 207 670 130 310 480 875
929 1502 60 83 389 526 396 533 15 15 130 180 144 208 25 48 23 141 -4 197
-31 65 -567 599 -750 748 -69 56 -142 82 -214 74 -60 -6 -153 -58 -630 -353
l-282 -174 2 -202 c1 -112 5 -324 8 -473 3 -148 9 -423 12 -610 4 -187 8 -502
8 -700 l1 -360 -32 -68 c-38 -80 -122 -169 -187 -198 -62 -27 -144 -30 -851
-32 -610 -1 -711 2 -787 25 -50 15 -158 111 -183 163 -39 83 -44 237 -31 955
3 212 9 513 11 670 3 157 7 404 10 550 l4 265 -87 53 c-48 29 -213 131 -367
227 -154 96 -286 175 -292 175 -7 0 -13 4 -13 9 0 22 -206 92 -222 76z"/>
<path d="M5614 4127 c-192 -287 -301 -459 -443 -697 -61 -101 -199 -394 -235
-495 -59 -169 -147 -483 -212 -755 -50 -210 -180 -786 -191 -840 -2 -14 -9
-45 -14 -70 -6 -25 -13 -66 -16 -92 l-5 -48 76 35 c126 59 110 63 286 -76 85
-67 202 -158 260 -203 58 -44 110 -84 115 -89 6 -4 44 -32 87 -62 66 -48 82
-55 122 -55 89 0 125 30 522 430 281 284 312 317 331 359 18 43 19 122 0 159
-7 15 -100 140 -207 277 -228 295 -272 352 -293 385 -15 24 -14 28 15 90 16
36 55 126 85 200 30 74 58 138 61 142 4 4 33 10 65 13 32 4 66 8 75 10 9 1 46
6 82 10 36 3 76 8 90 10 14 2 50 7 80 10 149 17 429 57 461 65 38 11 62 32
103 96 l26 40 0 470 c1 258 -1 478 -4 489 -2 11 -5 27 -5 36 -1 26 -79 137
-114 163 -24 18 -50 26 -107 31 -41 4 -77 8 -80 10 -3 1 -36 6 -75 9 -60 6
-132 15 -430 51 -69 8 -139 17 -163 20 -12 1 -25 4 -27 7 -2 2 -21 46 -42 98
-21 51 -42 95 -48 96 -5 2 -110 -146 -231 -329z"/>
<path d="M1075 4374 c-11 -61 -41 -119 -61 -121 -11 -1 -100 -11 -199 -23 -99
-11 -200 -23 -225 -26 -25 -2 -56 -7 -70 -9 -14 -2 -45 -7 -70 -10 -234 -29
-283 -41 -319 -77 -68 -70 -70 -85 -72 -688 -1 -446 4 -484 73 -550 38 -35 69
-45 188 -60 47 -5 96 -12 110 -14 14 -3 54 -7 90 -11 36 -3 79 -7 95 -10 17
-2 55 -7 86 -10 31 -3 65 -7 75 -9 11 -2 60 -7 109 -12 50 -4 95 -9 100 -10 6
-1 21 -2 35 -3 22 -1 28 -10 49 -68 13 -38 32 -86 42 -108 95 -211 106 -242
96 -261 -6 -10 -13 -21 -16 -24 -3 -3 -33 -41 -66 -85 -32 -44 -129 -170 -215
-280 -218 -279 -221 -284 -222 -347 -2 -95 0 -97 292 -393 226 -229 392 -391
450 -437 80 -65 150 -66 239 -3 55 40 405 308 470 361 14 12 59 46 99 77 l74
55 79 -36 c43 -19 81 -33 83 -31 6 5 -32 193 -63 319 -12 47 -23 94 -26 105
-79 355 -218 866 -297 1093 -116 334 -302 681 -630 1180 -26 41 -48 75 -48 77
0 7 -282 429 -305 457 l-23 27 -7 -35z"/>
</g>
</svg>
